<?xml version="1.0" encoding="utf-8"?>
<!-- Generator: Adobe Illustrator 27.5.0, SVG Export Plug-In . SVG Version: 6.00 Build 0)  -->
<svg version="1.1" id="Layer_1" xmlns="http://www.w3.org/2000/svg" xmlns:xlink="http://www.w3.org/1999/xlink" x="0px" y="0px"
	 viewBox="0 0 4000 4000" style="enable-background:new 0 0 4000 4000;" xml:space="preserve">

<g id="phone">
	<g>
		<path style="fill:#1A2E35;" d="M2658.373,279.315H1316.807c-74.911,0-135.696,61.817-135.696,138.235V768.4h-19.56
			c-5.7,0-10.32,4.62-10.32,10.32v270.24c0,5.7,4.62,10.32,10.32,10.32h19.56V1132h-19.56c-5.7,0-10.32,4.62-10.32,10.32v157.56
			c0,5.699,4.62,10.32,10.32,10.32h19.56v1868.964c0,76.259,60.785,138.235,135.696,138.235h1341.566
			c74.911,0,135.854-61.976,135.854-138.235V417.551C2794.228,341.133,2733.284,279.315,2658.373,279.315z M2709.319,3093.778
			c0,72.689-54.438,131.491-121.571,131.491H1387.592c-67.292,0-121.73-58.802-121.73-131.491V522.219
			c0-148.075,54.438-155.297,121.73-155.297h240.444c13.966,0,25.393,15.871,25.393,35.551v8.491
			c0,46.105,25.235,46.264,56.183,46.264h555.958c31.265,0,56.341-0.159,56.341-46.264v-8.491c0-19.68,11.268-35.551,25.473-35.551
			h240.365c67.134,0,121.571,19.68,121.571,155.297V3093.778z"/>
		<path style="fill:#FFFFFF;" d="M2063.462,399.642h-151.649c-5.174,0-9.367-4.193-9.367-9.367l0,0c0-5.174,4.193-9.366,9.367-9.366
			h151.649c5.175,0,9.368,4.192,9.368,9.366l0,0C2072.83,395.449,2068.637,399.642,2063.462,399.642z"/>
	</g>
	<path style="opacity:0.7;fill:#66D8D9;" d="M2709.319,522.22v2571.559c0,72.689-54.438,131.49-121.572,131.49H1387.592
		c-67.292,0-121.73-58.802-121.73-131.49V522.22c0-148.075,54.438-155.297,121.73-155.297h240.444
		c13.967,0,25.393,15.871,25.393,35.551v8.491c0,46.105,25.235,46.264,56.183,46.264h555.957c31.265,0,56.341-0.159,56.341-46.264
		v-8.491c0-19.68,11.268-35.551,25.473-35.551h240.364C2654.881,366.923,2709.319,386.603,2709.319,522.22z"/>
	<path style="fill:#C1F4F4;" d="M1268.643,1206.705c471.99-266.546,943.979-533.092,1415.969-799.637
		c-22.204-33.308-57.33-40.145-96.864-40.145h-240.364c-14.205,0-25.473,15.871-25.473,35.551v8.491
		c0,46.105-25.076,46.264-56.341,46.264h-555.957c-30.948,0-56.183-0.159-56.183-46.264v-8.491c0-19.68-11.427-35.551-25.394-35.551
		h-240.444c-67.292,0-121.73,7.221-121.73,155.297V1207.5L1268.643,1206.705z"/>
</g>
<g id="money_box">
	<ellipse style="fill:#A5AAA7;" cx="2364.286" cy="3419.019" rx="328.951" ry="67.747"/>
	
		<radialGradient id="SVGID_1_" cx="2898.8093" cy="2565.8567" r="794.9585" fx="2737.8262" fy="2567.5234" gradientTransform="matrix(0.9983 0.0576 -0.0576 0.9983 -27.4604 -99.2675)" gradientUnits="userSpaceOnUse">
		<stop  offset="0.0947" style="stop-color:#EA948B"/>
		<stop  offset="0.1252" style="stop-color:#EB9288"/>
		<stop  offset="0.6874" style="stop-color:#FF715A"/>
	</radialGradient>
	<path style="fill:url(#SVGID_1_);" d="M1877.775,2680.957c-16.19-208.783,63.721-370.107,63.721-370.107
		s100.202-202.287,355.469-311.38c21.501-9.189,36.794-9.843,49.384-5.668c7.49,2.484,22.406,9.458,55.348,65.697
		c12.352,21.086,21.398,39.13,27.315,51.579c15.762-5.437,35.151-10.714,57.639-13.917c29.825-4.247,55.842-3.527,75.948-1.454
		c12.45-26.12,14.494-48.202,14.588-61.182c0.112-15.378,0.221-30.412-9.741-39.506c-14.16-12.928-40.616-3.218-41.414-7.197
		c-0.524-2.615,10.614-7.411,20.057-10.142c14.918-4.313,27.165-3.924,29.31-3.838c68.138,2.725,111.129,15.547,111.129,15.547
		c54.129,16.143,94.957,28.319,145.199,58.38c0,0,83.337,49.862,149.339,132.291c0,0,0.003,0.004,0.008,0.009c0,0,0,0.001,0,0.001
		c34.156,37.96,80.27,97.618,116.816,180.003c32.05,72.249,43.276,131.569,46.17,147.91
		c19.968,112.739,3.324,210.403-15.122,276.058c-0.244,0.448-3.896,7.437-0.096,14.086c2.54,4.442,6.828,5.971,7.98,6.341
		c38.831,23.198,77.662,46.396,116.493,69.594c28.475,30.466,36.709,74.137,21.011,110.834
		c-20.207,47.238-69.517,58.251-74.092,59.191c-57.744-15.832-115.488-31.664-173.232-47.496c-1.771-0.613-5.552-1.634-10.063-0.581
		c-8.021,1.873-11.731,8.76-12.311,9.879c-23.974,37.01-59.865,82.516-112.263,124.289
		c-127.153,101.372-267.759,113.998-325.949,115.784c-1.118-0.136-5.516-0.539-9.493,2.372c-6.012,4.401-5.334,12.189-5.294,12.57
		c-2.994,22.626-5.988,45.252-8.982,67.878c-5.7,49.976-46.942,88.227-95.332,90.162c-51.582,2.063-97.844-37.675-103.53-91.117
		c-1.633-26.524-3.266-53.048-4.9-79.572c0.294-1.099,4.088-16.204-5.695-26.292c-3.873-3.993-8.39-5.67-11.169-6.414
		c-68.836-19.537-121.142-47.098-156.133-68.867c-105.42-65.585-162.638-146.385-187.124-181.719
		c-17.17-24.776-43.262-62.927-65.245-119.156C1885.45,2774.017,1880.37,2714.426,1877.775,2680.957z"/>
	
		<linearGradient id="SVGID_00000145767160808995172030000008115793593310599073_" gradientUnits="userSpaceOnUse" x1="2696.4854" y1="2692.9492" x2="3212.5767" y2="2704.3584" gradientTransform="matrix(0.9983 0.0576 -0.0576 0.9983 -27.4604 -99.2675)">
		<stop  offset="0" style="stop-color:#F7B9AA"/>
		<stop  offset="0.238" style="stop-color:#F7AB99"/>
		<stop  offset="0.7063" style="stop-color:#F7886E"/>
		<stop  offset="1" style="stop-color:#F76F4F"/>
	</linearGradient>
	<path style="fill:url(#SVGID_00000145767160808995172030000008115793593310599073_);" d="M3002.824,2778.13
		c-6.596,114.332-127.315,200.36-269.635,192.149c-142.319-8.211-252.344-107.551-245.749-221.882
		c6.596-114.332,127.316-200.36,269.635-192.149C2899.395,2564.458,3009.42,2663.799,3002.824,2778.13z"/>
	
		<linearGradient id="SVGID_00000127749360774068286920000001004369451366856114_" gradientUnits="userSpaceOnUse" x1="2947.5742" y1="2787.1526" x2="3352.0735" y2="3107.9363" gradientTransform="matrix(0.9983 0.0576 -0.0576 0.9983 -27.4604 -99.2675)">
		<stop  offset="0.0901" style="stop-color:#D34640"/>
		<stop  offset="0.0958" style="stop-color:#D44741"/>
		<stop  offset="0.2361" style="stop-color:#E36655"/>
		<stop  offset="0.3558" style="stop-color:#EC7861"/>
		<stop  offset="0.4401" style="stop-color:#EF7F65"/>
	</linearGradient>
	<path style="fill:url(#SVGID_00000127749360774068286920000001004369451366856114_);" d="M2733.189,2970.279
		c-132.947-7.67-237.699-94.864-245.545-199.513c-1.398,7.265-2.34,14.667-2.775,22.197
		c-6.596,114.332,103.429,213.672,245.748,221.882c142.319,8.211,263.039-77.818,269.635-192.149
		c0.435-7.53,0.349-14.991-0.204-22.369C2980.221,2903.38,2866.136,2977.949,2733.189,2970.279z"/>
	
		<ellipse transform="matrix(0.0576 -0.9983 0.9983 0.0576 -247.0721 5272.5352)" style="fill:#871A19;" cx="2669.183" cy="2767.135" rx="66.96" ry="70.2"/>
	<path style="fill:#A0493A;" d="M2675.213,2833.882c34.305-2.605,62.107-28.974,64.053-62.704
		c2.13-36.92-27.521-68.659-66.227-70.892c-2.052-0.118-4.083-0.133-6.1-0.084c34.247,0.981,62.421,26.922,66.141,59.441
		C2737.083,2794.629,2711.743,2828.173,2675.213,2833.882z"/>
	
		<ellipse transform="matrix(0.0576 -0.9983 0.9983 0.0576 -10.6153 5423.6626)" style="fill:#871A19;" cx="2867.494" cy="2717.454" rx="66.96" ry="70.2"/>
	<path style="fill:#A0493A;" d="M2873.524,2784.201c34.305-2.605,62.108-28.974,64.053-62.704
		c2.13-36.919-27.521-68.659-66.227-70.892c-2.052-0.118-4.083-0.133-6.1-0.084c34.247,0.981,62.421,26.922,66.141,59.441
		C2935.394,2744.948,2910.054,2778.492,2873.524,2784.201z"/>
	<path style="fill:#AF4636;" d="M2393.456,2045.841c58.195,9.506,88.68-2.51,105.9-16.511c10.79-8.773,26.994-26.962,43.142-22.753
		c8.347,2.176,13.084,9.399,14.812,12.033c18.044,27.515-10.792,72.908-12.653,75.766c0.274,0.012,0.557,0.03,0.833,0.043
		c0.74,0.036,1.471,0.074,2.199,0.114c0.663,0.036,1.327,0.074,1.997,0.116c0.756,0.046,1.504,0.095,2.247,0.147
		c0.368,0.025,0.728,0.045,1.097,0.072c0.251,0.018,0.493,0.041,0.742,0.06c1.044,0.078,2.072,0.161,3.09,0.247
		c0.468,0.04,0.94,0.077,1.404,0.118c1.47,0.131,2.919,0.268,4.332,0.414c12.45-26.12,14.494-48.202,14.588-61.182
		c0.112-15.379,0.221-30.412-9.741-39.506c-14.16-12.928-40.616-3.218-41.414-7.197c-10.349,9.358-25.613,20.851-46.179,29.566
		c-42.53,18.022-81.491,13.046-98.777,9.698l0.002,0.003C2384.838,2032.409,2388.954,2038.611,2393.456,2045.841z"/>
	<g>
		<path style="fill:#59150E;" d="M2401.696,2059.498c12.352,21.086,21.398,39.131,27.315,51.579
			c15.762-5.437,35.151-10.715,57.639-13.917c21.964-3.128,41.852-3.557,58.845-2.74c-0.002,0-0.004,0-0.006,0
			c-0.276-0.013-0.559-0.031-0.833-0.043c1.862-2.859,30.697-48.252,12.653-75.766c-1.728-2.635-6.465-9.857-14.812-12.033
			c-16.148-4.209-32.352,13.98-43.142,22.753c-17.22,14.001-47.705,26.017-105.9,16.511c-0.001-0.002-0.002-0.004-0.004-0.006
			C2396.068,2050.034,2398.811,2054.573,2401.696,2059.498z"/>
		<path style="fill:#59150E;" d="M2551.948,2094.797c0.402,0.028,0.801,0.057,1.2,0.086l0.002-0.006
			c-0.04-0.003-0.079-0.006-0.119-0.009C2552.666,2094.841,2552.31,2094.822,2551.948,2094.797z"/>
	</g>
	
		<linearGradient id="SVGID_00000110471258665274079340000014347744624908534968_" gradientUnits="userSpaceOnUse" x1="2185.1423" y1="3070.6633" x2="2342.2209" y2="3223.2524" gradientTransform="matrix(0.9983 0.0576 -0.0576 0.9983 -27.4604 -99.2675)">
		<stop  offset="0.1854" style="stop-color:#CC4640"/>
		<stop  offset="0.3295" style="stop-color:#D85F51"/>
		<stop  offset="0.4764" style="stop-color:#E2715E"/>
		<stop  offset="0.5802" style="stop-color:#E57863"/>
	</linearGradient>
	<path style="fill:url(#SVGID_00000110471258665274079340000014347744624908534968_);" d="M2024.723,3025.153l-77.095,112.799
		c-13.594,29.682-7.598,64.507,14.699,86.911c24.557,24.675,64.06,29.432,95.057,10.773l103.813-91.903
		c-24.324-15.486-51.684-35.316-79.78-60.506C2059.132,3063.247,2040.363,3043.462,2024.723,3025.153z"/>
	
		<linearGradient id="SVGID_00000150077604861775177570000009469255371026690960_" gradientUnits="userSpaceOnUse" x1="3021.1677" y1="3186.3623" x2="3187.8782" y2="3090.0889" gradientTransform="matrix(0.9983 0.0576 -0.0576 0.9983 -27.4604 -99.2675)">
		<stop  offset="0.1854" style="stop-color:#CC4640"/>
		<stop  offset="0.3295" style="stop-color:#D85F51"/>
		<stop  offset="0.4764" style="stop-color:#E2715E"/>
		<stop  offset="0.5802" style="stop-color:#E57863"/>
	</linearGradient>
	<path style="fill:url(#SVGID_00000150077604861775177570000009469255371026690960_);" d="M2777.348,3199.348l33.215,65.316
		c16.585,31.297,53.726,43.492,81.916,30.208c23.1-10.885,37.149-37.447,33.581-65.375l-28.489-103.53
		c-15.687,12.832-34.338,26.539-56.075,39.909C2818.529,3180.004,2796.75,3190.906,2777.348,3199.348z"/>
	<g>
		
			<linearGradient id="SVGID_00000108992671893399133510000012148099134732342174_" gradientUnits="userSpaceOnUse" x1="2198.4526" y1="2036.135" x2="2401.4417" y2="2220.3188" gradientTransform="matrix(0.9983 0.0576 -0.0576 0.9983 -27.4604 -99.2675)">
			<stop  offset="0" style="stop-color:#F49687"/>
			<stop  offset="0.2376" style="stop-color:#EF8776"/>
			<stop  offset="0.7008" style="stop-color:#E2614B"/>
		</linearGradient>
		<path style="fill:url(#SVGID_00000108992671893399133510000012148099134732342174_);" d="M2301.152,2148.358
			c-33.685-35.208-67.37-70.417-101.054-105.625c-37.085-29.099-87.891-31.677-125.072-7.216
			c-42.759,28.131-59.253,86.598-35.995,136.393l78.149,126.751c5.796-3.102,14.193-7.688,24.17-13.479
			c32.565-18.901,60.047-34.851,87.92-59.985c11.162-10.065,23.263-23.256,47.465-49.638
			C2286.991,2164.381,2295.363,2154.951,2301.152,2148.358z"/>
		
			<linearGradient id="SVGID_00000098187324905872570230000007192166677316189061_" gradientUnits="userSpaceOnUse" x1="2334.426" y1="2022.4125" x2="2299.8625" y2="2236.2356" gradientTransform="matrix(0.9983 0.0576 -0.0576 0.9983 -27.4604 -99.2675)">
			<stop  offset="0.1143" style="stop-color:#F99180"/>
			<stop  offset="0.7621" style="stop-color:#EA4B3F"/>
		</linearGradient>
		<path style="fill:url(#SVGID_00000098187324905872570230000007192166677316189061_);" d="M2146.308,2281.99
			c-16.514-18.781-34.242-41.659-51.194-68.943c-10.407-16.75-19.122-32.91-26.437-48.042
			c-18.95-32.277-10.771-73.881,18.537-96.292c28.562-21.841,69.568-19.624,95.96,5.536c14.988,13.35,31.433,29.666,48.001,49.287
			c16.844,19.948,30.347,39.206,41.096,56.461c-14.294,17.671-33.851,38.682-59.675,59.302
			C2188.617,2258.444,2165.58,2272.186,2146.308,2281.99z"/>
		<path style="fill:#D14B3D;" d="M2232.564,2114.877c-17.807-21.088-35.482-38.624-51.591-52.973
			c-28.367-27.042-72.439-29.425-103.138-5.95c-31.499,24.088-40.291,68.803-19.923,103.495
			c7.862,16.264,17.229,33.632,28.414,51.635c18.219,29.325,37.274,53.914,55.023,74.1c19.509-9.925,42.609-23.608,66.762-42.359
			c-22.36,17.322-43.736,29.974-61.804,39.166c-16.514-18.781-34.242-41.659-51.194-68.943
			c-10.407-16.75-19.122-32.91-26.437-48.042c-18.95-32.277-10.771-73.881,18.537-96.292c28.562-21.841,69.567-19.624,95.96,5.536
			c14.989,13.35,31.434,29.665,48.001,49.286c16.844,19.948,30.347,39.207,41.096,56.461
			c-13.401,16.566-31.427,36.069-54.906,55.432c25.407-20.906,44.899-41.979,59.369-59.867
			C2265.181,2157.016,2250.668,2136.316,2232.564,2114.877z"/>
		
			<linearGradient id="SVGID_00000076588388678529224460000005379390029257972924_" gradientUnits="userSpaceOnUse" x1="2175.0554" y1="2295.802" x2="2260.4397" y2="2225.582" gradientTransform="matrix(0.9983 0.0576 -0.0576 0.9983 -27.4604 -99.2675)">
			<stop  offset="0" style="stop-color:#F76C59"/>
			<stop  offset="0.2717" style="stop-color:#EF5A4B"/>
			<stop  offset="0.7973" style="stop-color:#E23A33"/>
		</linearGradient>
		<path style="fill:url(#SVGID_00000076588388678529224460000005379390029257972924_);" d="M2117.179,2298.663
			c-6.393,3.952-88.585,54.136-106.394,34.671c-3.862-4.222-4.401-11.397-4.876-17.731c-0.621-8.278,0.204-22.089,14.369-45.241
			c7.947-12.989,22.486-32.849,47.765-51.394c7.543,12.235,15.086,24.469,22.63,36.703
			C2099.508,2270.001,2108.344,2284.332,2117.179,2298.663z"/>
	</g>
	
		<linearGradient id="SVGID_00000024003455308374187130000001788026651553823126_" gradientUnits="userSpaceOnUse" x1="5914.5981" y1="1939.2097" x2="6117.5874" y2="2123.3936" gradientTransform="matrix(-0.9983 -0.0576 -0.0576 0.9983 9037.082 423.6)">
		<stop  offset="0" style="stop-color:#F49687"/>
		<stop  offset="0.2376" style="stop-color:#EF8776"/>
		<stop  offset="0.7008" style="stop-color:#E2614B"/>
	</linearGradient>
	<path style="fill:url(#SVGID_00000024003455308374187130000001788026651553823126_);" d="M2761.17,2077.68
		c37.51-31.101,75.021-62.202,112.531-93.302c40.186-24.641,90.951-21.359,125.072,7.216
		c39.241,32.862,48.901,92.838,20.072,139.628l-92.207,116.923c-5.401-3.748-13.215-9.27-22.46-16.169
		c-30.175-22.521-55.641-41.525-80.438-69.698c-9.93-11.281-20.434-25.777-41.442-54.767
		C2773.395,2095.225,2766.163,2084.895,2761.17,2077.68z"/>
	
		<linearGradient id="SVGID_00000054239307734597370770000009619126250273193624_" gradientUnits="userSpaceOnUse" x1="6050.5718" y1="1925.4866" x2="6016.0083" y2="2139.3103" gradientTransform="matrix(-0.9983 -0.0576 -0.0576 0.9983 9037.082 423.6)">
		<stop  offset="0.1143" style="stop-color:#F99180"/>
		<stop  offset="0.7621" style="stop-color:#EA4B3F"/>
	</linearGradient>
	<path style="fill:url(#SVGID_00000054239307734597370770000009619126250273193624_);" d="M2899.62,2228.233
		c18.564-16.757,38.806-37.445,58.783-62.598c12.264-15.442,22.78-30.492,31.786-44.683c22.536-29.884,19.196-72.152-7.34-97.785
		c-25.861-24.981-66.849-27.494-95.96-5.536c-16.424,11.538-34.636,25.854-53.351,43.439c-19.026,17.878-34.654,35.457-47.317,51.36
		c12.167,19.198,29.178,42.319,52.459,65.771C2860.299,2199.977,2881.603,2216.277,2899.62,2228.233z"/>
	<path style="fill:#D14B3D;" d="M2833.154,2052.308c20.114-18.901,39.688-34.288,57.341-46.688
		c31.288-23.6,75.343-20.899,103.138,5.95c28.521,27.55,32.111,72.98,7.889,105.1c-9.68,15.252-20.982,31.428-34.164,48.025
		c-21.471,27.035-43.227,49.27-63.18,67.28c-18.239-12.103-39.611-28.351-61.448-49.755c20.219,19.778,39.999,34.804,56.89,46.013
		c18.564-16.757,38.806-37.445,58.783-62.598c12.264-15.442,22.78-30.493,31.786-44.683c22.536-29.884,19.196-72.152-7.34-97.785
		c-25.861-24.981-66.849-27.494-95.96-5.536c-16.424,11.537-34.636,25.854-53.351,43.439c-19.026,17.878-34.655,35.456-47.317,51.36
		c11.407,17.998,27.071,39.444,48.167,61.378c-22.834-23.689-39.773-46.864-52.091-66.297
		C2795.907,2090.417,2812.705,2071.524,2833.154,2052.308z"/>
	
		<linearGradient id="SVGID_00000078011930456015916030000018003798489049828493_" gradientUnits="userSpaceOnUse" x1="2887.5647" y1="1949.3965" x2="2935.8398" y2="1994.1847" gradientTransform="matrix(0.9983 0.0576 -0.0576 0.9983 -27.4604 -99.2675)">
		<stop  offset="0" style="stop-color:#F76C59"/>
		<stop  offset="0.2717" style="stop-color:#EF5A4B"/>
		<stop  offset="0.7973" style="stop-color:#E23A33"/>
	</linearGradient>
	<path style="fill:url(#SVGID_00000078011930456015916030000018003798489049828493_);" d="M2761.17,2077.68
		c16.68-13.83,33.359-27.66,50.039-41.489c-30.711-16.295-58.878-26.541-90.414-36.419c-1.419,3.639-1.743,7.354-1.926,9.801
		C2716.44,2042.11,2753.502,2071.743,2761.17,2077.68z"/>
	
		<ellipse transform="matrix(0.9924 -0.1229 0.1229 0.9924 -286.5305 321.8229)" style="fill:#3B2921;" cx="2465.23" cy="2483.349" rx="27" ry="27"/>
	<path style="fill:#FFFFFF;" d="M2481.327,2473.099c-0.355,6.153-5.631,10.854-11.784,10.499
		c-6.153-0.355-10.854-5.631-10.499-11.784c0.355-6.153,5.631-10.854,11.784-10.499
		C2476.981,2461.67,2481.682,2466.946,2481.327,2473.099z"/>
	
		<ellipse transform="matrix(0.7467 -0.6652 0.6652 0.7467 -879.5069 2442.644)" style="fill:#3B2921;" cx="2767.114" cy="2375.998" rx="27" ry="27"/>
	<path style="fill:#FFFFFF;" d="M2783.211,2365.748c-0.355,6.153-5.631,10.854-11.784,10.499s-10.854-5.631-10.499-11.784
		c0.355-6.153,5.631-10.854,11.784-10.499C2778.865,2354.319,2783.566,2359.595,2783.211,2365.748z"/>
	<path style="fill:#F9ABA7;" d="M2375.877,3200.813c-14.561,11.765-3.323,31.047-2.302,96.147
		c0.489,31.156-1.763,47.299,9.766,55.735c7.572,5.54,19.974,6.94,28.034,1.617c12.153-8.027,7.186-26.558,5.681-79.725
		c-1.463-51.716,2.245-69.252-10.135-76.81C2398.13,3192.411,2384.338,3193.977,2375.877,3200.813z"/>
	<path style="fill:#F9ABA7;" d="M3049.32,2952.058c5.128,18.003,27.27,15.207,87.578,39.744
		c28.863,11.743,42.837,20.132,55.112,12.824c8.061-4.8,14.203-15.665,12.459-25.165c-2.631-14.325-21.628-17.006-71.143-36.428
		c-48.164-18.892-62.851-29.167-74.65-20.732C3050.296,2928.292,3046.34,2941.597,3049.32,2952.058z"/>
	<path style="fill:#F9BDB2;" d="M2306.291,3188.145c9.378,3.861,20.554,10.286,29.05,21.509
		c19.079,25.204,11.046,56.651,15.454,57.145c4.569,0.512,22.662-32.226,7.631-57.256
		C2348.781,3193.483,2328.129,3184.971,2306.291,3188.145z"/>
	<path style="fill:#F9BDB2;" d="M2358.08,3353.041c-1.393,1.153,7.363,18.402,23.417,31.641
		c21.639,17.844,47.912,21.292,48.644,19.393c0.642-1.668-18.665-6.823-43.239-25.573
		C2368.34,3364.341,2359.333,3352.005,2358.08,3353.041z"/>
	<path style="fill:#F9BDB2;" d="M3234.427,2876.403c1.892-1.451,24.388,15.083,32.687,41.792c10.12,32.57-5.658,64.864-8.045,64.444
		c-2.128-0.373,7.444-26.564-1.816-60.205C3249.336,2893.671,3232.683,2877.74,3234.427,2876.403z"/>
	<path style="fill:#F9BDB2;" d="M1989.936,3229.633c-0.259,2.909,18.972,10.559,38.991,7.538
		c30.189-4.556,50.523-31.621,48.611-34.217c-1.59-2.159-17.786,13.654-49.782,21.168
		C2005.371,3229.379,1990.164,3227.073,1989.936,3229.633z"/>
	<path style="fill:#F9BDB2;" d="M2915.409,3218.237c1.84-0.135,7.499,15.69,3.884,32.677c-3.731,17.534-16.029,30.137-17.555,29.278
		c-1.177-0.663,4.461-9.096,8.681-25.462C2916.036,3232.942,2913.656,3218.365,2915.409,3218.237z"/>
	<path style="fill:#F9ABA7;" d="M1936.072,2554.85c-23.949,1.255-47.305,82.055-37.71,153.603
		c10.577,78.871,62.019,152.646,85.317,146.277c26.63-7.28,15.631-119.032,14.653-128.971
		C1991.143,2652.719,1963.021,2553.437,1936.072,2554.85z"/>
</g>
<g id="coins">
	<g>
		
			<linearGradient id="SVGID_00000049937422906078808880000002222583426890383020_" gradientUnits="userSpaceOnUse" x1="934.2911" y1="2399.9075" x2="1304.6375" y2="2897.5315">
			<stop  offset="0" style="stop-color:#E5D263"/>
			<stop  offset="1" style="stop-color:#F9F395"/>
		</linearGradient>
		<path style="fill:url(#SVGID_00000049937422906078808880000002222583426890383020_);" d="M826.357,2777.77
			c-63.567-128.283,22.865-262.589,31.053-274.88c35.274-52.949,79.818-81.726,102.361-94.31
			c122.39-68.321,329.218-68.496,420.629,62.107c66.608,95.165,37,209.851,33.67,221.975
			c-29.445,107.201-115.332,158.19-147.216,177.119c-68.897,40.903-133.028,46.239-146.066,47.155
			C1108.774,2917.779,901.371,2929.155,826.357,2777.77z"/>
		<path style="fill:#E7D066;" d="M871.212,2769.719c-34.539-68.677-9.867-161.733,24.792-219.418
			c7.401-12.319,33.147-52.798,83.32-85.365c77.188-50.102,157.54-46.005,190.665-41.916c31.094,3.839,141.03,17.41,188.876,102.873
			c51.895,92.694,2.875,220.175-71.308,285.231C1164.154,2919.345,931.49,2889.576,871.212,2769.719z"/>
		<path style="fill:#987518;" d="M896.004,2550.301c7.401-12.319,33.147-52.798,83.32-85.365
			c77.187-50.102,157.54-46.005,190.665-41.916c31.094,3.839,141.03,17.41,188.876,102.872c0.395,0.706,0.766,1.42,1.149,2.129
			c-2.621-6.599-5.669-13.073-9.2-19.382c-47.846-85.463-157.783-99.034-188.876-102.872
			c-33.125-4.089-113.478-8.186-190.665,41.916c-50.173,32.567-75.919,73.046-83.32,85.365
			c-34.659,57.685-59.33,150.742-24.792,219.418c0.805,1.601,1.647,3.182,2.513,4.75
			C839.65,2690.097,863.406,2604.555,896.004,2550.301z"/>
		
			<radialGradient id="SVGID_00000039101575686145341190000006142079510046469533_" cx="908.1613" cy="2944.136" r="623.0129" gradientUnits="userSpaceOnUse">
			<stop  offset="0.0781" style="stop-color:#A87126"/>
			<stop  offset="0.1466" style="stop-color:#AF7B2E"/>
			<stop  offset="0.2646" style="stop-color:#C09745"/>
			<stop  offset="0.4168" style="stop-color:#DCC468"/>
			<stop  offset="0.5529" style="stop-color:#F9F28D"/>
			<stop  offset="0.9653" style="stop-color:#A67128"/>
		</radialGradient>
		<path style="fill:url(#SVGID_00000039101575686145341190000006142079510046469533_);" d="M1443.974,2617.519
			c-10.105-56.009-32.66-97.513-48.305-121.656l-0.013,0.006c46.388,89.148,21.455,185.722,18.415,196.791
			c-29.445,107.201-115.332,158.19-147.216,177.119c-68.897,40.903-133.028,46.239-146.066,47.155
			c-12.015,0.844-219.419,12.22-294.432-139.165c8.544,26.136,29.511,78.126,79.359,123.447
			c58.054,52.781,121.208,65.538,151.817,71.308c88.136,16.612,158.667-6.529,184.02-16.102
			c21.69-8.189,148.654-56.126,193.221-184.02C1458.758,2703.575,1448.354,2641.794,1443.974,2617.519z"/>
		<g>
			<g>
				<path style="fill:#987518;" d="M1024.433,2536.471c3.646-3.049,8.949-3.582,11.596-1.169l8.251,7.511
					c20.915-15.783,39.705-23.318,62.105-28.351c3.779-0.766,6.332-0.825,8.493,0.952c3.036,2.501,2.396,7.207-1.162,10.416
					c-1.531,1.38-3.031,2.359-6.144,2.875c-21.217,4.202-38.338,11.78-54.186,23.398l63.181,57.6
					c48.308-33.706,78.346-38.509,103.167-18.296c28.104,22.887,26.81,66.114-5.01,106.625l22.804,20.767
					c3.894,3.545,4.202,10.378,0.635,14.922c-3.603,4.59-9.988,5.388-13.899,1.732l-23.175-21.679
					c-27.266,28.286-58.125,44.771-95.835,52.495c-3.95,0.831-6.919,0.549-9.382-2.113c-3.541-3.822-2.833-11.701,1.406-16.398
					c2.914-3.231,5.928-4.235,7.7-4.461c31.887-5.212,59.031-17.929,83.89-42.151l-74.77-69.865
					c-52.819,37.02-85.616,42.724-108.508,18.417c-22.043-23.403-10.646-64.158,24.746-95.658l-7.827-7.323
					C1019.865,2544.244,1020.758,2539.545,1024.433,2536.471z M1101.761,2619.755l-61.421-57.392
					c-28.012,25.257-35.254,55.125-19.423,71.397C1036.366,2649.644,1056.114,2650.05,1101.761,2619.755z M1128.958,2621.001
					l72.459,66.059c26.136-31.706,26.814-64.236,6.698-81.042C1190.439,2591.25,1170.988,2591.697,1128.958,2621.001z"/>
			</g>
			<path style="fill:#7C5C14;" d="M1022.098,2539.223c0.492-0.332,4.836-3.157,9.749-1.371c2.932,1.066,4.533,3.217,5.112,4.09
				c2.13,2.3,4.26,4.6,6.39,6.901c9.771-7.396,18.617-12.758,25.467-16.514c3.81-2.089,16.949-9.136,28.716-11.984
				c7.787-1.885,14.912-1.917,15.335-1.917c1.626,0.002,2.964,0.068,3.848,0.125l0,0l-0.49-1.476
				c-0.317-0.617-0.762-1.181-1.346-1.661c-2.161-1.778-4.714-1.718-8.493-0.952c-22.4,5.033-41.19,12.568-62.104,28.351
				l-8.251-7.512c-2.647-2.413-7.95-1.88-11.596,1.169C1023.447,2537.296,1022.668,2538.239,1022.098,2539.223L1022.098,2539.223z"
				/>
			<path style="fill:#7C5C14;" d="M999.131,2620.533c-0.326-12.988,4.614-22.818,9.073-31.692
				c7.109-14.146,16.193-23.693,22.364-29.264c-0.077-1.845-0.155-3.69-0.232-5.535h0c-35.392,31.5-46.789,72.255-24.746,95.657
				c3.262,3.464,6.734,6.297,10.428,8.538C1011.244,2653.265,999.613,2639.698,999.131,2620.533z"/>
			<path style="fill:#7C5C14;" d="M1053.386,2557.021l62.547,58.656c5.553-4.369,13.858-10.384,24.664-16.357
				c13.049-7.213,21.301-11.775,33.481-13.674c5.361-0.835,20.992-3.061,38.465,4.6c6.279,2.753,11.375,6.163,15.392,9.456
				c-2.383-2.987-5.102-5.771-8.201-8.295c-24.821-20.212-54.859-15.41-103.167,18.296l-63.181-57.6h0V2557.021z"/>
			<path style="fill:#7C5C14;" d="M1220.786,2667.369c2.759-7.744,6.981-19.592,3.642-34.12c-2.158-9.39-6.618-16.172-9.614-20.027
				l-0.006,0c12.825,17.929,9.395,46.195-13.392,73.838l-72.459-66.06c0,0,0,0,0,0h0v7.072l73.618,68.241
				C1208.301,2690.461,1215.959,2680.915,1220.786,2667.369z"/>
			<path style="fill:#7C5C14;" d="M1188.869,2701.148c-24.858,24.222-52.003,36.939-83.89,42.151
				c-1.772,0.226-4.786,1.229-7.7,4.461c-1.855,2.056-3.034,4.721-3.477,7.39c1.622-1.213,4.184-2.965,7.563-4.588
				c7.007-3.365,12.971-3.984,16.102-4.409c11.437-1.554,20.392-5.331,30.478-9.584c5.1-2.151,12.957-5.516,22.044-11.884
				c8.558-5.998,14.783-12.258,18.977-17.06L1188.869,2701.148L1188.869,2701.148z"/>
			<g>
				<polygon style="fill:#7C5C14;" points="1214.725,2698.033 1214.725,2698.033 1214.725,2698.033 				"/>
				<path style="fill:#7C5C14;" d="M1237.528,2718.799l-22.804-20.767v7.195l19,17.731c0.586,0.404,2.979,2.151,3.738,5.463
					c0.912,3.976-1.26,7.031-1.593,7.483c0.839-0.59,1.616-1.319,2.293-2.182C1241.73,2729.178,1241.422,2722.345,1237.528,2718.799
					z"/>
			</g>
			<path style="fill:#7C5C14;" d="M1057.218,2647.625c7.189-1.188,12.578-3.939,23.061-9.392c9.23-4.802,16.507-9.45,21.481-12.843
				v-5.635c-45.647,30.295-65.394,29.89-80.844,14.005c-3.367-3.461-5.681-7.542-6.982-12.059c-0.003,0-0.006,0-0.009,0
				c0.805,3.264,4.172,15.208,15.556,22.187C1040.173,2650.442,1051.368,2648.592,1057.218,2647.625z"/>
		</g>
		<path style="opacity:0.7;fill:#50A39F;" d="M1265.862,2946.342c22.794-9.951,55.195-27.097,87.839-56.228
			c31.901-28.468,49.875-55.746,53.208-60.884c43.39-66.875,44.168-139.806,42.088-174.462
			c62.79,69.62,84.253,166.629,55.172,253.096c-33.531,99.696-128.847,169.295-238.307,172.792
			C1265.862,3035.885,1265.862,2991.113,1265.862,2946.342z"/>
	</g>
	<g>
		
			<linearGradient id="SVGID_00000070838570811298891060000018056630130456528773_" gradientUnits="userSpaceOnUse" x1="3135.7153" y1="3185.866" x2="3356.1689" y2="3185.866">
			<stop  offset="0.0458" style="stop-color:#F9F395"/>
			<stop  offset="0.1783" style="stop-color:#F4EB88"/>
			<stop  offset="0.4551" style="stop-color:#ECDD74"/>
			<stop  offset="0.7283" style="stop-color:#E7D567"/>
			<stop  offset="0.9913" style="stop-color:#E5D263"/>
		</linearGradient>
		<path style="fill:url(#SVGID_00000070838570811298891060000018056630130456528773_);" d="M3240.853,3068.472
			c-64.905,2.905-114.37,71.055-103.68,136.08c9.63,58.576,67.065,108.482,129.6,97.2c62.193-11.221,97.409-77.187,87.84-134.64
			C3345.627,3113.157,3297.019,3065.958,3240.853,3068.472z"/>
		<path style="fill:#E7D066;" d="M3239.773,3086.832c-50.851,1.833-87.505,56.908-83.16,106.92
			c4.211,48.463,47.267,96.117,97.2,90.72c47.03-5.083,77.177-54.742,76.68-98.28
			C3329.934,3137.302,3290.606,3085,3239.773,3086.832z"/>
		<path style="fill:#987518;" d="M3342.853,3176.232c-5.784-51.144-50.135-75.358-54.72-77.76
			c-12.244-6.414-24.088-9.363-33.794-10.669c43.591,7.409,75.649,54.285,76.154,98.389c0.448,39.218-23.972,83.396-63.195,95.493
			c8.032-1.286,19.075-4.118,30.435-10.893C3327.949,3252.769,3347.205,3214.715,3342.853,3176.232z"/>
		
			<radialGradient id="SVGID_00000080904765994057412910000003820577526382555294_" cx="3181.4939" cy="3186.9395" r="95.8176" gradientUnits="userSpaceOnUse">
			<stop  offset="0.0781" style="stop-color:#A87126"/>
			<stop  offset="0.1466" style="stop-color:#AF7B2E"/>
			<stop  offset="0.2646" style="stop-color:#C09745"/>
			<stop  offset="0.4168" style="stop-color:#DCC468"/>
			<stop  offset="0.5529" style="stop-color:#F9F28D"/>
			<stop  offset="0.9653" style="stop-color:#A67128"/>
		</radialGradient>
		<path style="fill:url(#SVGID_00000080904765994057412910000003820577526382555294_);" d="M3137.173,3204.552
			c-10.35-62.956,35.687-128.839,97.531-135.605v-0.001c-11.834-1.119-32.368-1.322-53.972,8.526
			c-42.402,19.329-65.417,66.657-64.92,109.8c0.533,46.274,28.214,96.401,76.146,112.756c20.981,7.159,40.701,6.093,55.225,3.305
			C3192.642,3302.389,3145.786,3256.942,3137.173,3204.552z"/>
	</g>
	<g>
		
			<linearGradient id="SVGID_00000176041651568373949560000011581918898024241063_" gradientUnits="userSpaceOnUse" x1="1961.7548" y1="1216.0878" x2="2182.2085" y2="1216.0878">
			<stop  offset="0.0458" style="stop-color:#F9F395"/>
			<stop  offset="0.1783" style="stop-color:#F4EB88"/>
			<stop  offset="0.4551" style="stop-color:#ECDD74"/>
			<stop  offset="0.7283" style="stop-color:#E7D567"/>
			<stop  offset="0.9913" style="stop-color:#E5D263"/>
		</linearGradient>
		<path style="fill:url(#SVGID_00000176041651568373949560000011581918898024241063_);" d="M2066.892,1098.694
			c-64.905,2.905-114.37,71.055-103.68,136.08c9.63,58.576,67.065,108.482,129.6,97.2c62.193-11.221,97.409-77.187,87.84-134.64
			C2171.667,1143.379,2123.058,1096.18,2066.892,1098.694z"/>
		<path style="fill:#E7D066;" d="M2065.813,1117.054c-50.851,1.833-87.505,56.908-83.16,106.92
			c4.211,48.463,47.267,96.117,97.2,90.72c47.031-5.082,77.178-54.742,76.68-98.28
			C2155.973,1167.525,2116.646,1115.222,2065.813,1117.054z"/>
		<path style="fill:#987518;" d="M2168.892,1206.454c-5.784-51.144-50.135-75.358-54.72-77.76
			c-12.243-6.414-24.088-9.363-33.794-10.669c43.591,7.409,75.649,54.285,76.154,98.389c0.448,39.218-23.972,83.396-63.195,95.493
			c8.032-1.286,19.075-4.118,30.435-10.893C2153.988,1282.991,2173.244,1244.937,2168.892,1206.454z"/>
		
			<radialGradient id="SVGID_00000083079720847978654100000013157152059142688937_" cx="2032.0135" cy="1204.9213" r="112.1944" fx="1929.406" fy="1159.5419" gradientUnits="userSpaceOnUse">
			<stop  offset="0.0378" style="stop-color:#A87126"/>
			<stop  offset="0.1259" style="stop-color:#AB762A"/>
			<stop  offset="0.2312" style="stop-color:#B48536"/>
			<stop  offset="0.3452" style="stop-color:#C39D49"/>
			<stop  offset="0.4654" style="stop-color:#D9BE64"/>
			<stop  offset="0.5893" style="stop-color:#F3E986"/>
			<stop  offset="0.6126" style="stop-color:#F9F28D"/>
			<stop  offset="0.9981" style="stop-color:#A67128"/>
		</radialGradient>
		<path style="fill:url(#SVGID_00000083079720847978654100000013157152059142688937_);" d="M1963.213,1234.774
			c-10.35-62.956,35.687-128.839,97.531-135.605v-0.001c-11.834-1.119-32.368-1.322-53.972,8.526
			c-42.402,19.329-65.417,66.657-64.92,109.8c0.533,46.274,28.214,96.401,76.146,112.756c20.981,7.159,40.701,6.093,55.224,3.305
			C2018.681,1332.611,1971.825,1287.164,1963.213,1234.774z"/>
		<path style="opacity:0.7;fill:#50A39F;" d="M1943.347,1235.169c-1.964,1.746-48.61,44.529-35.969,98.408
			c1.3,5.54,8.554,36.462,37.44,52.787c34.667,19.592,71.906,2.005,79.2-1.44c31.698-14.97,45.318-42.605,49.205-51.369
			c-6.808,1.417-17.2,2.885-29.742,1.841c-31.579-2.63-52.901-19.202-60.096-25.357c-15.715-13.445-23.38-27.965-27.327-35.621
			C1948.092,1258.965,1944.818,1244.806,1943.347,1235.169z"/>
	</g>
	<g>
		
			<linearGradient id="SVGID_00000096760063985833713460000010248394097906026171_" gradientUnits="userSpaceOnUse" x1="2182.4731" y1="1662.1293" x2="2535.5413" y2="1662.1293">
			<stop  offset="0.0171" style="stop-color:#E5D263"/>
			<stop  offset="0.947" style="stop-color:#F9F395"/>
		</linearGradient>
		<path style="fill:url(#SVGID_00000096760063985833713460000010248394097906026171_);" d="M2339.799,1466.658
			c-12.782,0.574-51.9,3.877-88.645,31.085c-79.254,58.684-68.679,170.237-67.68,179.28c7.414,67.104,48.499,138.697,116.88,167.52
			c43.322,18.261,81.7,12.653,88.8,11.52c72.546-11.575,111.067-71.527,121.2-89.04c30.534-52.772,25.538-104.281,23.76-120.24
			c-1.6-14.357-10.456-79.866-67.2-130.08C2452.806,1504.219,2406.949,1463.64,2339.799,1466.658z"/>
		<path style="fill:#E7D066;" d="M2344.754,1497.024c-56.406,4.383-91.298,47.882-96.24,54.24
			c-43.644,56.149-26.645,124.986-21.12,147.36c4.088,16.554,12.395,48.531,39.84,78.24c6.084,6.586,51.348,54.293,107.04,51.36
			c75.542-3.979,147.268-99.921,132.84-191.16C2494.787,1559.106,2420.597,1491.13,2344.754,1497.024z"/>
		<path style="fill:#987518;" d="M2267.234,1776.863c-27.445-29.709-35.752-61.686-39.84-78.24
			c-5.525-22.374-22.524-91.211,21.12-147.36c4.942-6.357,39.834-49.856,96.24-54.24c-16.689-0.171-49.388,2.028-79.92,23.04
			c-64.3,44.251-59.364,130.907-58.68,142.92c3.565,62.587,40.27,122.149,93.24,149.4c34.113,17.55,70.421,15.983,68.309,15.947
			C2315.057,1827.43,2273.077,1783.189,2267.234,1776.863z"/>
		
			<radialGradient id="SVGID_00000147202023722821032910000009186324405896091285_" cx="2431.6072" cy="1646.9473" r="175.3441" gradientUnits="userSpaceOnUse">
			<stop  offset="0.0781" style="stop-color:#A87126"/>
			<stop  offset="0.1466" style="stop-color:#AF7B2E"/>
			<stop  offset="0.2646" style="stop-color:#C09745"/>
			<stop  offset="0.4168" style="stop-color:#DCC468"/>
			<stop  offset="0.5529" style="stop-color:#F9F28D"/>
			<stop  offset="0.9653" style="stop-color:#A67128"/>
		</radialGradient>
		<path style="fill:url(#SVGID_00000147202023722821032910000009186324405896091285_);" d="M2576.234,1616.544
			c-18.933-87.729-99.422-165.711-191.16-167.4c-47.484-0.874-84.425,18.942-102.979,30.839l0,0
			c25.732-11.09,48.518-12.912,57.703-13.325c67.15-3.018,113.008,37.562,127.115,50.046c56.744,50.214,65.6,115.723,67.2,130.08
			c1.778,15.959,6.774,67.468-23.76,120.24c-8.199,14.17-34.989,56.125-83.349,77.755c14.772-2.651,76.712-15.472,118.989-72.715
			C2595.369,1705.209,2579.185,1630.217,2576.234,1616.544z"/>
		<path style="opacity:0.7;fill:#50A39F;" d="M2191.287,1715.374c-6.283,6.052-64.949,64.388-51.034,140.527
			c1.948,10.657,9.585,52.448,46.8,79.2c52.911,38.036,117.253,10.91,122.4,8.64c8.805-3.884,33.587-15.206,51.84-42.48
			c11.468-17.136,15.806-33.767,17.634-43.995c-18.012,1.131-53.436,0.712-90.89-18.522c-32.056-16.462-50.294-38.845-59.558-50.462
			C2206.101,1760.223,2196.018,1732.343,2191.287,1715.374z"/>
	</g>
</g>
<g id="arrows">
	<g>
		<path style="fill:#4BA4DA;" d="M2714.835,3358.593l15.12-18c72.72,5.04,145.44,10.08,218.16,15.12c4.32,7.2,8.64,14.4,12.96,21.6
			C2878.996,3371.073,2796.916,3364.833,2714.835,3358.593z"/>
		<g>
			<path style="fill:#3F87CA;" d="M2714.835,3358.593l43.2,224.64c16.08-12.84,32.16-25.68,48.24-38.52
				c59.364,75.522,122.891,114.716,161.28,134.28c44.946,22.906,116.748,59.499,174.96,31.68c13.669-6.532,24.588-15.66,36-25.2
				c36.879-30.829,58.454-64.851,70.56-87.84c-9.959,3.226-24.564,7.086-42.48,8.64c-25.411,2.205-63.511,0.292-124.56-29.52
				c-83.75-40.897-146.908-103.153-178.56-137.52c19.2-20.64,38.4-41.28,57.6-61.92L2714.835,3358.593z"/>
			<path style="fill:#4BA4DA;" d="M3257.758,3441.056c-19.137-28.367-38.274-56.735-57.412-85.102
				c-11.517,0.88-23.034,1.759-34.551,2.639c22.148,32.756,44.296,65.512,66.445,98.269l0.037,0.056
				c6.399,9.6,25.874,38.813,23.788,71.361c-0.636,9.928-1.508,23.523-9.997,33.981c-8.771,10.808-33.91,26.468-103.702,9.976
				c-18.357-4.339-42.354-11.996-95.041-48.169c-44.008-30.212-86.031-65.323-124.904-104.358l-10.619,10.574
				c-2.776,2.984-5.551,5.967-8.327,8.951c31.652,34.367,94.811,96.623,178.56,137.52c61.049,29.812,99.149,31.725,124.56,29.52
				c17.916-1.554,32.521-5.415,42.48-8.64c-0.081,0.153-0.166,0.311-0.247,0.465c8.064-4.383,14.922-10.02,20.533-16.932
				c14.522-17.892,15.85-38.598,16.644-50.974C3288.681,3488.436,3266.027,3453.481,3257.758,3441.056z"/>
			<path style="fill:#16588E;" d="M3120.195,3514.833c8.283,22.6,6.153,42.546,4.432,52.25c6.738,2.385,12.474,3.908,17.739,5.152
				c69.792,16.492,94.932,0.832,103.702-9.976c8.489-10.458,9.361-24.054,9.997-33.981c2.086-32.549-17.389-61.762-23.788-71.361
				l-0.037-0.056c-22.148-32.756-44.296-65.512-66.445-98.269l-93.84,101.52C3079.616,3464.208,3107.544,3480.316,3120.195,3514.833
				z"/>
		</g>
	</g>
	<g>
		<path style="fill:#4BA4DA;" d="M3040.171,2455.073l-22.579-21.302c12.175-95.483,24.35-190.965,36.525-286.448
			c9.821-5.148,19.64-10.295,29.461-15.443C3069.109,2239.612,3054.64,2347.343,3040.171,2455.073z"/>
		<path style="fill:#4BA4DA;" d="M3190.173,1745.616c-38.852,23.071-77.704,46.142-116.556,69.213
			c0.284,15.25,0.568,30.499,0.852,45.749c44.867-26.707,89.733-53.413,134.6-80.12l0.076-0.045
			c13.142-7.706,53.134-31.158,95.884-25.932c13.039,1.593,30.896,3.777,44.037,15.763c13.581,12.384,32.313,46.716,5.264,137.468
			c-7.116,23.87-19.035,54.923-70.729,121.628c-43.175,55.717-92.658,108.446-147.074,156.723l13.132,14.803
			c3.723,3.886,7.445,7.772,11.167,11.658c47.713-39.113,134.588-117.639,194.872-224.935
			c43.943-78.213,49.363-128.294,48.389-161.961c-0.686-23.736-4.665-43.284-8.159-56.658c0.195,0.118,0.397,0.243,0.594,0.361
			c-5.165-10.964-12.074-20.434-20.759-28.356c-22.482-20.505-49.677-23.83-65.932-25.818
			C3254.985,1708.454,3207.183,1735.66,3190.173,1745.616z"/>
		<path style="fill:#3F87CA;" d="M3536.842,1918.044c-6.204-15.171-14.048-26.67-30.482-49.375
			c-60.783-83.976-137.579-138.283-156.848-144.262c8.865,3.689,17.884,8.938,26.25,16.568c8.685,7.922,15.594,17.392,20.759,28.355
			c-0.197-0.118-0.399-0.243-0.594-0.361c3.495,13.374,7.473,32.922,8.16,56.658c0.974,33.667-4.446,83.748-48.39,161.961
			c-13.187,23.471-27.646,45.565-42.69,66.171c-5.373,7.359-10.82,14.529-16.311,21.504
			c-49.414,62.772-102.323,109.759-135.871,137.26l0,0l0,0c-3.723-3.886-7.445-7.772-11.167-11.658l-0.002-0.002
			c-22.026-22.994-44.052-45.988-66.079-68.983l-43.406,323.192l299.427-39.865c-15.704-22.175-31.408-44.349-47.112-66.524
			c104.075-72.515,160.575-153.282,189.286-202.401C3515.387,2088.773,3569.088,1996.901,3536.842,1918.044z"/>
		<path style="fill:#16588E;" d="M3276.97,1932.574c30.423-9.201,56.556-4.876,69.218-1.868c3.657-8.702,6.1-16.147,8.141-22.994
			c27.05-90.752,8.317-125.084-5.264-137.468c-13.141-11.987-30.998-14.17-44.037-15.763c-42.75-5.225-82.742,18.226-95.884,25.932
			l-0.076,0.045c-44.867,26.707-89.733,53.413-134.6,80.12l126.696,131.429C3207.145,1982.219,3230.506,1946.627,3276.97,1932.574z"
			/>
	</g>
</g>
<g id="bags">
	<g>
		<polygon style="fill:#3D8BC7;" points="453.243,1697.244 1098.463,1988.078 1300.576,1288.441 843.541,1082.433 		"/>
		<polygon style="fill:#296C96;" points="843.568,1082.43 619.006,1771.985 453.224,1697.258 		"/>
		<path style="fill:#1A2E35;" d="M1137.782,1274.964c-5.17,11.47-0.064,24.961,11.407,30.131
			c11.472,5.171,24.962,0.063,30.131-11.408c5.172-11.47,0.064-24.961-11.407-30.131
			C1156.442,1258.386,1142.952,1263.493,1137.782,1274.964z"/>
		<path style="fill:#1A2E35;" d="M950.456,1190.528c-5.17,11.471-0.063,24.961,11.407,30.13c11.472,5.17,24.961,0.064,30.133-11.406
			c5.169-11.471,0.063-24.961-11.409-30.13C969.117,1173.948,955.627,1179.057,950.456,1190.528z"/>
		<path style="fill:#1A455B;" d="M473.291,1698.449c24.314-7.569,48.629-15.138,72.943-22.707
			c147.343-294.757,221.892-441.719,223.634-440.861c1.741,0.858-69.258,149.401-213.009,445.65
			c15.895,25.942,31.791,51.885,47.686,77.827c-19.638-22.285-39.276-44.57-58.915-66.855
			C521.517,1693.818,497.404,1696.133,473.291,1698.449z"/>
		<g>
			<path style="fill:#E8EEEF;" d="M998.05,1470.038c-20.849-9.398-37.712-38.236-46.868-80.737
				c-10.637-49.372-9.901-112.313,2.07-177.228c0.619-3.353,3.838-5.569,7.19-4.951c3.354,0.618,5.57,3.838,4.951,7.19
				c-11.683,63.351-12.444,124.573-2.143,172.389c8.935,41.47,25.506,68.997,44.324,73.63c16.972,4.18,41.458-9.328,67.178-37.06
				c27.833-30.009,54.753-73.949,75.801-123.724c1.328-3.14,4.95-4.609,8.089-3.281c3.144,1.334,4.609,4.95,3.281,8.089
				c-45.131,106.725-112.756,178.933-157.302,167.963C1002.393,1471.77,1000.2,1471.007,998.05,1470.038z"/>
		</g>
	</g>
	<g>
		<polygon style="fill:#2D4D56;" points="1418.955,2248.895 2078.5,1821.103 1546.543,1211.708 1079.363,1514.731 		"/>
		<polygon style="fill:#234149;" points="1079.376,1514.703 1588.419,2139.005 1418.956,2248.921 		"/>
		<path style="fill:#102528;" d="M1436.084,1355.657c7.606,11.725,23.275,15.066,35.001,7.46
			c11.726-7.606,15.066-23.276,7.46-35.001c-7.604-11.726-23.276-15.067-35-7.461
			C1431.819,1328.261,1428.479,1343.931,1436.084,1355.657z"/>
		<path style="fill:#102528;" d="M1244.601,1479.857c7.606,11.725,23.276,15.065,34.999,7.46
			c11.726-7.607,15.066-23.276,7.463-35.002c-7.606-11.725-23.276-15.065-35.001-7.458
			C1240.334,1452.461,1236.996,1468.131,1244.601,1479.857z"/>
		<path style="fill:#162E33;" d="M1432.132,2230.894c7.548-27.26,15.096-54.52,22.645-81.781
			c-186.723-314.827-279.169-472.809-277.32-473.92c1.848-1.111,97.903,154.507,288.181,466.876
			c33.787,0.75,67.573,1.5,101.36,2.251c-32.621,4.944-65.242,9.889-97.863,14.833
			C1456.801,2183.067,1444.467,2206.98,1432.132,2230.894z"/>
		<g>
			<path style="fill:#E8EEEF;" d="M1534.28,1603.445c-21.312,13.823-58.384,12.236-103.586-4.764
				c-52.508-19.747-110.854-58.274-164.288-108.483c-2.76-2.593-2.895-6.932-0.302-9.692c2.593-2.761,6.933-2.895,9.692-0.302
				c52.146,48.999,108.871,86.516,159.724,105.642c44.105,16.587,79.778,17.657,95.419,2.867
				c14.108-13.339,16.212-44.33,5.773-85.025c-11.296-44.038-36.151-95.597-69.988-145.182c-2.134-3.128-1.329-7.394,1.798-9.528
				c3.136-2.134,7.394-1.33,9.528,1.798c72.55,106.315,99.337,212.889,62.309,247.9
				C1538.507,1600.431,1536.476,1602.02,1534.28,1603.445z"/>
		</g>
		<path style="opacity:0.7;fill:#50A39F;" d="M1265.862,1917.911l153.094,331.01l659.544-427.818
			c-13.642,43.779-38.719,107.063-86.61,171.994c-22.411,30.385-60.606,75.565-252.72,198.72
			c-219.403,140.649-273.408,148.227-312.48,128.16c-5.369-2.758-16.536-9.159-44.669-44.409
			c-36.241-45.407-82.401-115.834-116.158-217.671C1265.862,2011.235,1265.862,1964.573,1265.862,1917.911z"/>
	</g>
</g>
</svg>
