<?xml version="1.0" encoding="utf-8"?>
<!-- Generator: Adobe Illustrator 27.5.0, SVG Export Plug-In . SVG Version: 6.00 Build 0)  -->
<svg version="1.1" id="Layer_1" xmlns="http://www.w3.org/2000/svg" xmlns:xlink="http://www.w3.org/1999/xlink" x="0px" y="0px"
	 viewBox="0 0 1024 1024" style="enable-background:new 0 0 1024 1024;" xml:space="preserve">
<path style="fill:#FEFEFE;" d="M0,0h1024v1024H0V0z"/>
<path style="fill:#A85E47;" d="M897.291,245.932l0.692-0.344l1.466,1.087c2.404,1.199,4.628,2.373,6.467,4.391
	c-2.846,0.749-5.23,5.521-8.236,7.307c-0.146,0.087-0.286,0.183-0.429,0.275c-2.306-0.599-3.377-1.167-5.079-2.923
	c-0.152-0.158-0.3-0.319-0.451-0.478c-1.785-0.361-2.619,0.54-4.181,1.402c1.352-3.085,2.706-5.816,5.228-8.112
	C894.537,248.129,895.852,246.981,897.291,245.932z"/>
<path style="fill:#E19173;" d="M892.768,248.537c1.769-0.408,3.084-1.556,4.523-2.605c-0.504,3.957-1.037,5.907-3.742,9.009
	l-0.569,0.071l-0.298-0.747C893.076,252.199,893.535,250.569,892.768,248.537z"/>
<path style="fill:#EA5740;" d="M899.449,246.675c2.404,1.199,4.628,2.373,6.467,4.391c-2.846,0.749-5.23,5.521-8.236,7.307
	c-0.146,0.087-0.286,0.183-0.429,0.275c-2.306-0.599-3.377-1.167-5.079-2.923c-0.152-0.158-0.3-0.319-0.451-0.478
	c-1.785-0.361-2.619,0.54-4.181,1.402c1.352-3.085,2.706-5.816,5.228-8.112c0.767,2.032,0.308,3.662-0.086,5.728l0.298,0.747
	l0.569-0.071c0.482,0.56,1.215,1.046,1.79,1.523c1.7,0.192,2.318-0.223,3.619-1.294c1.641-1.351,2.858-2.806,3.093-4.979
	c-0.799-0.879-1.552-1.727-2.16-2.754L899.449,246.675z"/>
<path style="fill:#274B7F;" d="M239.437,143.002c1.428-0.13,2.761-0.219,4.178,0.075c0.273,0.059,0.543,0.131,0.809,0.218
	c0.265,0.087,0.526,0.188,0.781,0.302c0.255,0.115,0.504,0.242,0.745,0.383c0.242,0.141,0.476,0.294,0.701,0.459
	c0.225,0.165,0.441,0.342,0.648,0.531c0.207,0.188,0.404,0.386,0.589,0.595c0.186,0.209,0.361,0.427,0.524,0.654
	c0.163,0.227,0.313,0.463,0.451,0.706c0.116,0.208,0.221,0.421,0.315,0.639c0.094,0.219,0.177,0.441,0.248,0.668
	c0.071,0.227,0.131,0.458,0.179,0.691c0.048,0.233,0.084,0.467,0.107,0.704c0.023,0.237,0.035,0.474,0.034,0.712
	c-0.001,0.238-0.013,0.475-0.038,0.712c-0.025,0.237-0.062,0.471-0.111,0.704c-0.049,0.233-0.11,0.462-0.183,0.689
	c-0.902,2.828-2.79,4.094-5.297,5.423c-1.247,0.114-2.635,0.187-3.875-0.035c-1.915-0.342-3.829-1.695-4.913-3.292
	c-1.119-1.648-1.442-3.679-0.997-5.61C235.002,146.021,237.027,144.503,239.437,143.002z"/>
<path style="fill:#FEFEFE;" d="M240.995,146.397c1.343,0.257,2.807,0.488,3.747,1.601c0.801,0.949,1.093,1.995,0.852,3.221
	c-0.314,1.596-1.557,2.4-2.796,3.237c-1.372-0.177-2.893-0.329-3.88-1.434c-0.845-0.945-1.129-1.974-0.841-3.211
	C238.448,148.216,239.759,147.309,240.995,146.397z"/>
<path style="fill:#FCD09F;" d="M786.956,216.083c1.331-0.062,2.749-0.187,4.077-0.076c2.317,0.193,4.9,1.937,6.257,3.776
	c1.376,1.866,1.848,4.041,1.404,6.309c-0.647,3.304-2.871,4.97-5.523,6.742c-1.447,0.434-2.9,0.706-4.421,0.574
	c-2.209-0.191-4.405-1.41-5.717-3.198c-1.569-2.139-1.99-4.895-1.424-7.457C782.321,219.531,784.247,217.757,786.956,216.083z"/>
<path style="fill:#FEFEFE;" d="M788.797,219.534c2.244,0.318,4.274,0.505,5.794,2.406c0.793,0.991,1.059,2.145,0.726,3.375
	c-0.567,2.095-2.156,2.987-3.884,4.032c-0.647,0.056-1.536,0.192-2.198,0.096c-1.6-0.231-3.132-1.304-3.875-2.751
	c-0.073-0.145-0.139-0.294-0.197-0.446c-0.058-0.153-0.108-0.308-0.15-0.465c-0.042-0.157-0.076-0.316-0.101-0.477
	c-0.026-0.161-0.043-0.323-0.052-0.486c-0.009-0.162-0.009-0.325-0.001-0.488c0.008-0.163,0.024-0.324,0.049-0.485
	c0.025-0.161,0.058-0.321,0.099-0.478c0.041-0.157,0.091-0.312,0.148-0.465C785.834,221.138,787.165,220.283,788.797,219.534z"/>
<path style="fill:#D87D53;" d="M897.692,584.062c1.258-0.007,2.596,0.183,3.782,0.621c2.3,0.851,4.339,2.568,5.378,4.806
	c1.099,2.367,1.052,5.051,0.046,7.437c-1.337,3.169-3.705,4.542-6.79,5.699c-0.101-0.004-0.201-0.009-0.301-0.012
	c-1.756-0.051-3.484-0.023-5.109-0.781c-0.288-0.135-0.568-0.284-0.84-0.448c-0.273-0.165-0.535-0.343-0.788-0.535
	c-0.253-0.193-0.495-0.398-0.726-0.616c-0.231-0.219-0.45-0.449-0.656-0.69c-0.207-0.242-0.4-0.494-0.579-0.757
	c-0.179-0.262-0.344-0.533-0.495-0.813c-0.151-0.28-0.286-0.567-0.405-0.862c-0.12-0.295-0.224-0.595-0.311-0.9
	c-0.087-0.307-0.157-0.617-0.212-0.931c-0.055-0.314-0.095-0.63-0.118-0.947c-0.023-0.318-0.03-0.636-0.021-0.955
	c0.009-0.319,0.034-0.636,0.075-0.952c0.041-0.316,0.098-0.629,0.171-0.939c0.073-0.31,0.161-0.616,0.264-0.917
	c0.104-0.301,0.223-0.597,0.356-0.886c0.133-0.289,0.281-0.571,0.443-0.846C892.49,586.084,894.702,584.913,897.692,584.062z"/>
<path style="fill:#FEFEFE;" d="M897.508,588.43c2.02,0.06,3.737,0.079,5.139,1.773c0.798,0.965,1.097,2.206,0.897,3.435
	c-0.357,2.194-1.721,3.411-3.42,4.662c-1.998-0.106-3.509-0.332-4.923-1.934c-0.871-0.987-1.273-2.253-1.107-3.562
	C894.38,590.553,895.784,589.615,897.508,588.43z"/>
<path style="fill:#0D1D41;" d="M66.616,744.968c-0.141,0.182-0.25,0.393-0.422,0.545c-0.807,0.706-1.228,0.826-2.244,0.672
	c-0.309-0.971-0.407-1.821-0.352-2.832c0.281-5.227,1.966-10.944,3.66-15.892c2.776-8.113,20.564-50.927,25.192-55.258l2.109,0.099
	c-1.233,8.036-8.859,21.568-12.324,29.236C75.859,715.648,70.046,729.825,66.616,744.968z"/>
<path style="fill:#EA5740;" d="M876.447,277.311l1.483-0.997c2.391-5.712-2.218-13.434-1.013-19.521
	c0.258-1.303,0.565-1.666,1.68-2.316c3.1,0.235,5.111,2.854,7.048,4.999c-1.185,1.382-1.881,2.398-1.81,4.283
	c0.131,3.483,2.839,6.851,5.35,9.024c2.589,2.241,5.326,3.726,8.812,3.331c4.32-0.49,9.514-1.77,12.75-4.769
	c0.245-0.932,0.197-1.302-0.135-2.204c1.711-0.472,2.969-0.552,4.736-0.429l0.758,0.449c-0.063,1.652-2.11,3.459-3.173,4.644
	l0.544,0.751c-5.732,6.424-13.571,13.423-22.019,15.862C887.36,285.728,881.197,281.444,876.447,277.311z"/>
<path style="fill:#FCD09F;" d="M97.896,362.591c2.188,0.137,4.49,0.755,6.417,1.804c3.373,1.835,5.903,4.913,6.846,8.655
	c0.105,0.408,0.188,0.82,0.251,1.237c0.063,0.417,0.106,0.836,0.127,1.257c0.021,0.421,0.022,0.841,0.001,1.262
	c-0.021,0.421-0.063,0.84-0.126,1.257c-0.063,0.417-0.146,0.829-0.25,1.237c-0.105,0.409-0.229,0.811-0.373,1.207
	c-0.145,0.396-0.309,0.784-0.492,1.163c-0.183,0.379-0.385,0.749-0.605,1.108c-2.45,3.952-5.937,5.461-10.314,6.379
	c-2.651-0.364-5.301-0.896-7.643-2.245c-2.951-1.7-5.318-4.408-6.166-7.75c-0.855-3.371-0.074-7.064,1.793-9.962
	C89.878,365.294,93.508,363.576,97.896,362.591z"/>
<path style="fill:#FEFEFE;" d="M98.446,366.58c1.463,0.188,3.073,0.674,4.359,1.403c0.288,0.161,0.567,0.337,0.837,0.528
	c0.27,0.19,0.529,0.394,0.778,0.612c0.249,0.217,0.485,0.447,0.71,0.69c0.225,0.242,0.436,0.495,0.634,0.76
	c0.198,0.264,0.382,0.538,0.551,0.822c0.17,0.283,0.324,0.575,0.463,0.875c0.139,0.299,0.262,0.605,0.369,0.918
	c0.107,0.313,0.197,0.63,0.271,0.952c0.499,2.219,0.092,4.661-1.17,6.56c-1.6,2.408-3.869,3.417-6.595,4.045
	c-1.834-0.103-3.646-0.132-5.278-1.069c-2.306-1.325-4.048-3.528-4.644-6.137c-0.537-2.353-0.153-4.751,1.137-6.795
	C92.671,367.888,95.328,367.235,98.446,366.58z"/>
<path style="fill:#C03D2D;" d="M905.916,251.066c1.903,1.336,3.44,2.805,5.065,4.453c3.432,3.781,6.307,7.155,8.524,11.781
	c-1.692,2.664-3.437,5.371-6.028,7.256l-0.544-0.751c1.063-1.185,3.11-2.992,3.173-4.644l-0.758-0.449
	c-1.767-0.123-3.025-0.043-4.736,0.429c0.332,0.902,0.38,1.272,0.135,2.204c-3.236,2.999-8.43,4.279-12.75,4.769
	c-3.486,0.395-6.223-1.09-8.812-3.331c-2.511-2.173-5.219-5.541-5.35-9.024c-0.071-1.885,0.625-2.901,1.81-4.283
	c0.81-0.784,1.319-1.861,1.895-2.827c1.562-0.862,2.396-1.763,4.181-1.402c0.151,0.159,0.299,0.32,0.451,0.478
	c1.702,1.756,2.773,2.324,5.079,2.923c0.143-0.092,0.283-0.188,0.429-0.275C900.686,256.587,903.07,251.815,905.916,251.066z"/>
<path style="fill:#A85E47;" d="M905.916,251.066c1.903,1.336,3.44,2.805,5.065,4.453c-2.179,0.456-3.56,0.824-4.901,2.755
	c-1.369,0.394-2.637,0.739-4.067,0.865l-1.127,0.195l-0.079,0.992c1.257,0.931,3.111,0.241,4.697,0.342
	c-0.197,0.343-0.452,0.817-0.71,1.105c-0.86,0.962-1.276,0.979-2.477,1.102c-2.006-0.809-3.475-2.783-5.066-4.227
	c0.143-0.092,0.283-0.188,0.429-0.275C900.686,256.587,903.07,251.815,905.916,251.066z"/>
<path style="fill:#EA5740;" d="M905.916,251.066c1.903,1.336,3.44,2.805,5.065,4.453c-2.179,0.456-3.56,0.824-4.901,2.755
	c-1.369,0.394-2.637,0.739-4.067,0.865C902.04,255.948,905.74,254.235,905.916,251.066z"/>
<path style="fill:#A85E47;" d="M910.981,255.519c3.432,3.781,6.307,7.155,8.524,11.781c-1.692,2.664-3.437,5.371-6.028,7.256
	l-0.544-0.751c1.063-1.185,3.11-2.992,3.173-4.644l-0.758-0.449c-1.767-0.123-3.025-0.043-4.736,0.429l-1.166-0.354l-0.324-0.749
	c1.399-1.613,3.353-2.548,4.625-4.249c0.703-0.941,0.569-0.471,0.41-1.594c-3.449,1.235-7.09,4.281-10.31,6.184
	c1.005-2.186,2.434-3.869,3.589-5.925c0.682-1.215,0.92-1.975,0.528-3.295l-1.884-0.885
	C907.421,256.343,908.802,255.975,910.981,255.519z"/>
<path style="fill:#FCD09F;" d="M816.569,101.606c3.173-0.378,6.004-0.439,8.959,0.957c0.435,0.205,0.859,0.431,1.271,0.679
	c0.411,0.249,0.809,0.518,1.193,0.807c0.384,0.289,0.752,0.598,1.104,0.925c0.352,0.328,0.686,0.673,1.002,1.035
	c0.317,0.362,0.614,0.739,0.891,1.132c0.277,0.393,0.533,0.8,0.768,1.219c0.235,0.419,0.448,0.85,0.639,1.291
	c0.191,0.441,0.358,0.891,0.502,1.35c1.04,3.333,0.836,6.944-0.804,10.048c-1.872,3.544-5.009,5.667-8.721,6.918
	c-2.39,0.37-5.041,0.399-7.384-0.249c-3.379-0.935-6.268-2.985-7.969-6.085c-1.63-2.97-2.04-6.659-1.036-9.901
	C808.544,106.697,812.18,104.012,816.569,101.606z"/>
<path style="fill:#FEFEFE;" d="M818.056,105.518c2.003-0.114,3.981-0.07,5.832,0.785c0.309,0.141,0.61,0.297,0.904,0.468
	c0.293,0.171,0.578,0.356,0.853,0.555c0.276,0.199,0.541,0.411,0.796,0.636c0.254,0.225,0.497,0.462,0.728,0.711
	c0.231,0.249,0.45,0.508,0.656,0.778c0.206,0.271,0.398,0.551,0.576,0.84c0.178,0.289,0.342,0.586,0.491,0.891
	c0.149,0.305,0.282,0.617,0.401,0.936c0.11,0.296,0.204,0.597,0.283,0.902c0.078,0.306,0.139,0.615,0.184,0.928
	c0.045,0.312,0.074,0.626,0.085,0.941c0.011,0.315,0.006,0.631-0.017,0.946c-0.022,0.315-0.061,0.627-0.117,0.938
	c-0.056,0.311-0.128,0.617-0.217,0.92c-0.089,0.303-0.193,0.6-0.314,0.892c-0.121,0.291-0.257,0.576-0.408,0.853
	c-1.498,2.751-4.047,4.096-6.926,5.018c-1.548,0.019-3.033,0.02-4.531-0.426c-2.574-0.767-4.89-2.296-6.162-4.722
	c-0.141-0.276-0.267-0.558-0.378-0.847c-0.111-0.289-0.207-0.584-0.287-0.883c-0.08-0.299-0.144-0.602-0.192-0.908
	c-0.048-0.306-0.08-0.614-0.095-0.923c-0.015-0.309-0.014-0.619,0.003-0.928c0.017-0.309,0.051-0.616,0.101-0.922
	c0.05-0.305,0.116-0.607,0.198-0.906c0.082-0.299,0.18-0.592,0.293-0.881C812.138,108.593,814.759,106.963,818.056,105.518z"/>
<path style="fill:#EA5740;" d="M94.557,672.302c7.173,3.969,25.569,7.381,33.629,7.411l3.851-0.22
	c-0.809,8.604-1.278,17.295-1.706,25.928c-3.707-0.478-7.535-0.576-11.268-0.832c-2.893-0.292-5.781-0.572-8.656-1.013
	c-8.544,13.077-30.219,33.488-43.791,41.392c3.43-15.143,9.243-29.32,15.617-43.43C85.697,693.87,93.324,680.338,94.557,672.302z"/>
<path style="fill:#0D1D41;" d="M848.115,869.62c2.963-1.145,6.162-1.961,9.199-2.917c0.544,4.317,0.953,8.724,2.002,12.952
	l1.296,2.287c1.873-2.207,3.09-3.902,6.091-4.42c1.816,0.338,2.928,1.267,3.917,2.799c1.058,1.64,1.83,3.561,2.64,5.335
	c18.187-3.514,39.144-2.448,57.725-2.05c-14.746,6.495-29.547,12.86-44.404,19.097c-12.414,5.27-24.739,10.717-37.548,14.977
	c-2.118,0.569-4.149,1.496-6.241,0.651l-0.422-1.775c-1.773-8.82-4.829-18.617-3.086-27.62c-0.432-1.337-0.625-2.442-0.744-3.843
	c-0.594-4.223-1.58-8.568-3.76-12.27C839.085,871.457,843.709,870.648,848.115,869.62z"/>
<path style="fill:#F39F71;" d="M859.316,879.655l1.296,2.287c-0.088,0.16-0.177,0.319-0.262,0.48
	c-1.728,3.278-4.081,13.76-6.828,15.415c-5.945-0.857-6.968-9.075-14.238-8.901c-0.432-1.337-0.625-2.442-0.744-3.843
	c6.158-0.16,12.177-5.018,19.015-4.733c0.322,0.014,0.642,0.042,0.964,0.063L859.316,879.655z"/>
<path style="fill:#E88422;" d="M848.115,869.62c2.963-1.145,6.162-1.961,9.199-2.917c0.544,4.317,0.953,8.724,2.002,12.952
	l-0.797,0.768c-0.322-0.021-0.642-0.049-0.964-0.063c-6.838-0.285-12.857,4.573-19.015,4.733c-0.594-4.223-1.58-8.568-3.76-12.27
	C839.085,871.457,843.709,870.648,848.115,869.62z"/>
<path style="fill:#ECA932;" d="M876.447,277.311c4.75,4.133,10.913,8.417,15.011,13.107c-5.92,12.237-11.954,24.259-18.469,36.193
	c-6.169,11.301-12.898,22.507-18.109,34.284c-9.738-7.118-20.668-14.821-31.933-19.232c-0.119-5.75,2.64-20.183,0.934-24.568
	c2.523-3.187,6.601-6.247,9.724-8.897C847.298,296.581,861.398,286.973,876.447,277.311z"/>
<path style="fill:#70341C;" d="M725.801,113.92c2.364,1.531,4.41,3.431,5.991,5.777c3.244,4.811,2.749,9.658,1.832,15.048
	c1.715-1.886,4.421-6.956,6.602-7.831c1.787,0.512,2.525,1.512,3.387,3.125c1.831,3.423,2.436,6.972,1.126,10.692
	c-2.682,7.617-10.868,12.341-17.822,15.471c-16.148,2.736-32.275-1.452-46.362-9.597c-4.907-2.838-9.493-6.541-14.658-8.857
	c5.222,4.517,11.126,9.87,11.575,17.26c0.563,9.282-6.115,23.627-10.44,31.946c-2.918-2.045-5.669-4.277-9.47-3.708
	c-1.065,0.167-2.111,0.414-3.139,0.739c-3.735-10.33-6.645-22.92-5.266-33.964c1.952-15.628,10.14-11.278,12.812-14.901
	c1.898-2.574,0.598-6.76,5.55-10.388c12.03-8.813,31.426-1.173,44.436,0.962c3.276,0.538,6.969,0.725,9.747-1.406
	C725.119,121.667,725.354,117.862,725.801,113.92z"/>
<path style="fill:#ECA932;" d="M900.021,370.51c5.339-1.307,9.618-4.835,14.717-6.71c11.33,19.929,24.737,38.915,37.494,57.953
	c12.662,18.827,24.997,37.866,37.005,57.116c-9.312,8.761-19.383,16.636-28.675,25.429c-4.092-7.347-7.279-15.416-10.779-23.077
	c-4.895-10.713-10.013-21.328-14.82-32.081c-2.98-6.667-5.562-14.64-9.55-20.719c-2.91-5.737-5.229-11.971-7.859-17.861
	C911.528,397.289,905.684,383.939,900.021,370.51z"/>
<path style="fill:#F9E6C6;" d="M191.649,358.943c4.073,0.398,7.838,0.294,11.907-0.077c0.092,8.152,1.817,15.577,7.977,21.422
	c4.012,3.806,8.808,5.91,13.842,8.022c-4.628,6.578-14.355,18.662-16.384,26.32c0.373,1.552,0.943,1.872,2.066,2.967
	c-7.222,8.691-11.168,13.005-15.595,23.742l2.461,0.514c-0.696,1.361-1.336,2.734-2.204,3.994c-1.622-0.829-3.526-1.919-5.401-1.228
	c-2.22,0.819-3.655,3.909-4.828,5.819c-0.32-0.029-0.651,0.003-0.959-0.085c-1.159-0.333-1.543-0.894-2.017-1.877l-2.487-1.929
	c-0.032,0.547-0.329,1-0.56,1.491l-1.2-0.405c-1.081-1.283-0.961-1.668-1.1-3.293c-1.162-0.196-3.256-1.889-4.367-2.53
	c-3.584-2.067-25.129-15.622-27.483-15.569l-0.572,0.82c-8.393,8.684-16.145,17.925-24.075,27.023l-26.062,29.515
	c-4.795,5.464-14.085,17.715-19.567,21.394c1.062-4.068,15.414-19.492,18.941-23.823l70.792-88.389
	C173.736,381.398,184.226,371.546,191.649,358.943z"/>
<path style="fill:#010104;" d="M177.167,444.34c0.833-1.79,1.818-3.379,3.591-4.36c4.38-2.423,10.342,0.059,14.704,1.359
	l2.461,0.514c-0.696,1.361-1.336,2.734-2.204,3.994c-1.622-0.829-3.526-1.919-5.401-1.228c-2.22,0.819-3.655,3.909-4.828,5.819
	c-0.32-0.029-0.651,0.003-0.959-0.085c-1.159-0.333-1.543-0.894-2.017-1.877l-2.487-1.929c-0.032,0.547-0.329,1-0.56,1.491
	l-1.2-0.405C177.186,446.35,177.306,445.965,177.167,444.34z"/>
<path style="fill:#FEDCCF;" d="M180.027,446.547c0.876-2.057,1.401-3.378,3.603-4.253c0.955-0.38,0.595-0.288,1.669,0.102
	c0.308,1.595-0.133,2.218-1.023,3.557c-0.567,0.853-1.169,1.687-1.762,2.523L180.027,446.547z"/>
<path style="fill:#2E6452;" d="M75.041,504.993c5.482-3.679,14.772-15.93,19.567-21.394l26.062-29.515
	c7.93-9.098,15.682-18.339,24.075-27.023c-0.667,5.037-4.647,11.584-6.47,16.676c-8.293,23.157-17.45,50.144-11.701,74.845
	c0.726,3.123,1.663,7.108,3.308,9.845c0.188,2.081,0.358,3.566,1.369,5.414l3.836,2.958c3.159,2.689,5.332,4.599,6.762,8.636
	l0.1,0.276c-1.584-0.671-1.597-0.844-3.204-0.308c-1.273,1.745-1.281,3.622-0.979,5.709c0.248,1.71,1.186,3.171,1.445,4.875
	c2.358,5.046,6.444,9.802,10.056,14.008c2.058,2.395,11.373,10.696,11.956,13.013l-0.842,0.864
	c-7.666-3.484-15.047-8.434-22.273-12.765c-17.181-10.298-33.978-21.169-50.881-31.911c-8.763-5.569-19.027-10.447-26.873-17.195
	C65.305,516.64,71.012,511.085,75.041,504.993z"/>
<linearGradient id="SVGID_1_" gradientUnits="userSpaceOnUse" x1="129.2069" y1="485.3776" x2="137.1994" y2="479.6837" gradientTransform="matrix(1 0 0 -1 0 1026)">
	<stop  offset="0" style="stop-color:#3B6A50"/>
	<stop  offset="1" style="stop-color:#527F5A"/>
</linearGradient>
<path style="fill:url(#SVGID_1_);" d="M131.251,533.841l3.836,2.958c3.159,2.689,5.332,4.599,6.762,8.636l0.1,0.276
	c-1.584-0.671-1.597-0.844-3.204-0.308c-1.273,1.745-1.281,3.622-0.979,5.709c0.248,1.71,1.186,3.171,1.445,4.875
	C134.404,550.174,132.643,541.005,131.251,533.841z"/>
<path style="fill:#E19173;" d="M665.897,137.748c5.165,2.316,9.751,6.019,14.658,8.857c14.087,8.145,30.214,12.333,46.362,9.597
	c0.146,4.763,0.327,9.481,0.813,14.226c0.094,1.094,0.236,1.794-0.057,2.853c-0.018,0.147-0.039,0.294-0.055,0.441
	c-0.373,3.437,0.115,6.938,0.206,10.385c0.231,8.777-0.436,19.647-4.374,27.622c-2.897,5.866-5.287,10.494-11.95,12.666
	c-1.693,0.552-3.474,0.881-5.218,1.231c-0.199,0.408-0.459,0.842-0.584,1.277c0.407,3.91,0.816,7.809,1.022,11.736
	c0.987,4.752,0.139,11.912,3.133,15.798c-2.423,4.664-7.29,7.958-10.729,11.846l-1.144-0.108
	c-5.31-5.462-32.124-20.643-40.457-24.307c0.807-11.388,2.484-22.836,4.227-34.114c0.229-2.296,0.625-4.559,1.005-6.833
	c-0.857-0.074-1.713-0.162-2.567-0.264c-3.024-0.368-5.87-1.639-7.701-4.183c-2.017-2.802-1.84-5.766-1.292-9.002
	c0.928-1.305,2.089-2.371,3.228-3.487c1.028-0.325,2.074-0.572,3.139-0.739c3.801-0.569,6.552,1.663,9.47,3.708
	c4.325-8.319,11.003-22.664,10.44-31.946C677.023,147.618,671.119,142.265,665.897,137.748z"/>
<path style="fill:#C03D2D;" d="M711.55,183.143c0.628,0.246,0.936,0.495,1.449,0.917c1.093,3.08,2.114,6.362,1.738,9.657
	c-1.526-0.142-2.036,0.021-3.189-1.042C710.699,189.712,711.386,186.218,711.55,183.143z"/>
<path style="fill:#311F14;" d="M727.673,173.281c-0.129-0.039-0.258-0.082-0.388-0.118c-0.217-0.061-0.436-0.115-0.653-0.174
	c-2.261-0.616-5.9,0.179-7.644-0.695c-1.398-0.702-1.348-1.117-1.756-2.533c0.15-0.091,0.29-0.2,0.449-0.273
	c2.987-1.362,7.201-0.238,10.049,0.94C727.824,171.522,727.966,172.222,727.673,173.281z"/>
<path style="fill:#70341C;" d="M690.18,168.586c1.818-0.071,3.744-0.217,5.511,0.301c1.452,0.426,3.888,1.186,4.649,2.557
	c-0.167,0.17-0.306,0.372-0.501,0.508c-1.238,0.865-4.238,0.59-5.738,0.598c-2.158,0.301-4.887,0.992-7.035,0.772
	c-1.02-0.105-1.032-0.136-1.634-0.996c0.16-0.526,0.288-1.04,0.567-1.525C686.703,169.583,688.924,169.043,690.18,168.586z"/>
<path style="fill:#0D1D41;" d="M692.594,177.252l2.157,0.232c1.192,0.826,1.872,1.274,2.312,2.71
	c0.806,2.631-0.624,6.099-1.749,8.427c-0.59-0.147-1.52-0.311-2.069-0.632c-1.118-0.654-2.088-1.921-2.394-3.201
	C690.196,182.054,691.324,179.609,692.594,177.252z"/>
<path style="fill:#0D1D41;" d="M721.971,176.232c1.074,0.142,2.094,0.289,2.89,1.111c1.075,1.11,1.53,3.007,1.449,4.519
	c-0.143,2.668-0.818,3.864-2.728,5.622c-0.718-0.294-1.668-0.595-2.272-1.078c-1.171-0.94-1.858-2.7-1.9-4.185
	C719.341,179.719,720.307,178.001,721.971,176.232z"/>
<path style="fill:#FEFEFE;" d="M715.005,201.349l0.727,0.781l-0.3,0.264c0.206,0.173,0.419,0.34,0.62,0.52
	c1.052,0.94,1.039,0.981,1.154,2.354c-0.438,0.823-0.752,1.184-1.55,1.714c-3.105,2.059-6.593,1.394-9.909,0.493
	c-2.2-1.191-4.295-2.653-6.407-3.996C705.033,203.635,710.124,204.992,715.005,201.349z"/>
<path style="fill:#EA5740;" d="M682.342,186.473c0.247,0.028,0.497,0.039,0.741,0.082c1.798,0.316,2.702,1.482,3.617,2.951
	c1.416,2.274,2.052,5.161,1.377,7.787c-0.398,1.55-1.336,2.865-2.82,3.556c-2.724,1.271-5.336-0.247-7.78-1.402
	c-1.049-0.306-1.844-0.423-2.936-0.401l0.028,0.1c-2.656-1.582-2.904-3.551-3.739-6.408
	C674.645,189.497,677.512,187.821,682.342,186.473z"/>
<path style="fill:#E19173;" d="M662.755,200.921c0.62,0.115,1.717,0.162,2.256,0.42c1.841,0.879,10.362,13.143,17.177,16.92
	c4.966,2.753,10.956,4.796,16.451,6.206c1.756,0.451,4.744,0.56,6.273,1.284c0.034,0.016,0.707,0.872,0.714,0.884
	c0.047,0.08,0.048,0.179,0.072,0.268c0.407,3.91,0.816,7.809,1.022,11.736c0.987,4.752,0.139,11.912,3.133,15.798
	c-2.423,4.664-7.29,7.958-10.729,11.846l-1.144-0.108c-5.31-5.462-32.124-20.643-40.457-24.307
	c0.807-11.388,2.484-22.836,4.227-34.114C661.979,205.458,662.375,203.195,662.755,200.921z"/>
<path style="fill:#A85E47;" d="M662.755,200.921c0.62,0.115,1.717,0.162,2.256,0.42c1.841,0.879,10.362,13.143,17.177,16.92
	c4.966,2.753,10.956,4.796,16.451,6.206c1.756,0.451,4.744,0.56,6.273,1.284c0.034,0.016,0.707,0.872,0.714,0.884
	c0.047,0.08,0.048,0.179,0.072,0.268c0.407,3.91,0.816,7.809,1.022,11.736l-0.231,0.939c-0.483,0.376-0.461,0.397-1.112,0.684
	c-4.642,2.045-15.533-1.82-19.952-3.784c-13.876-6.17-18.56-15.24-23.675-28.724C661.979,205.458,662.375,203.195,662.755,200.921z"
	/>
<path style="fill:#E88422;" d="M735.899,270.76c25.926,19.133,45.853,44.366,65.483,69.569c7.589-7.648,14.345-16.156,22.499-23.234
	c1.706,4.385-1.053,18.818-0.934,24.568c-1.52-0.318-2.548-0.75-4.05-0.296c-2.39,2.689-0.513,6.605-1.97,8.405
	c-0.898,1.11-1.651,2.009-1.869,3.471c-0.55,3.677-0.079,8.158-0.059,11.903c0.065,12.333,0.057,24.959,1.409,37.224
	c0.171,2.571,0.28,5.167,0.521,7.731c-1.555,0.915-3.098,1.865-4.717,2.665c-5.444,2.542-10.864,4.998-16.471,7.164l-4.874,1.948
	c-5.149-4.848-34.088-25.668-40.296-28.219l-0.206-0.83c-0.778-2.557-0.182-13.466-0.229-16.838
	c-1.309-6.892-0.958-18.285-1.656-25.882C746.053,323.687,743.211,296.35,735.899,270.76z"/>
<path style="fill:#F9E6C6;" d="M750.136,375.991c15.29,10.116,42.117,29.255,60.652,27.246c1.861-0.405,3.731-0.63,5.62-0.867
	c0.171,2.571,0.28,5.167,0.521,7.731c-1.555,0.915-3.098,1.865-4.717,2.665c-5.444,2.542-10.864,4.998-16.471,7.164l-4.874,1.948
	c-5.149-4.848-34.088-25.668-40.296-28.219l-0.206-0.83C749.587,390.272,750.183,379.363,750.136,375.991z"/>
<path style="fill:#FEFEFE;" d="M810.788,403.237c1.861-0.405,3.731-0.63,5.62-0.867c0.171,2.571,0.28,5.167,0.521,7.731
	c-1.555,0.915-3.098,1.865-4.717,2.665C811.434,409.723,811.197,406.361,810.788,403.237z"/>
<path style="fill:#FEFEFE;" d="M750.365,392.829l0.263-2.232c4.987,0.763,38.941,24.68,45.113,29.333l-4.874,1.948
	c-5.149-4.848-34.088-25.668-40.296-28.219L750.365,392.829z"/>
<path style="fill:#D1D7D9;" d="M925.413,428.421c3.988,6.079,6.57,14.052,9.55,20.719c4.807,10.753,9.925,21.368,14.82,32.081
	c3.5,7.661,6.687,15.73,10.779,23.077c-7.667,4.912-22.171,10.53-30.84,14.667l-61.157,29.66c-7.425,3.522-16.88,6.187-23.378,11.09
	c-5.438,1.735-12.112,5.371-16.747,8.73c-4.064-10.983-7.313-22.265-11.059-33.353l-1.242-4.006
	c-1.608-6.268-4.114-12.311-6.388-18.36c-0.661-1.809-1.465-3.446-2.366-5.147c-1.663-6.91-5.509-13.079-6.855-20.126
	c6.994-2.463,13.781-6.109,20.512-9.241c12.785-5.918,25.539-11.9,38.263-17.947c15.489-7.221,30.902-14.604,46.237-22.148
	C912.104,434.909,919.131,432.107,925.413,428.421z"/>
<path style="fill:#F9E6C6;" d="M750.911,468.029c9.017,2.152,46.228,32.623,56.474,39.55c0.901,1.701,1.705,3.338,2.366,5.147
	c2.274,6.049,4.78,12.092,6.388,18.36l1.242,4.006c3.746,11.088,6.995,22.37,11.059,33.353c4.635-3.359,11.309-6.995,16.747-8.73
	c24.089,34.898,40.711,79.962,32.918,122.825c-2.57,14.136-10.314,31.843-18.853,43.436c-2.82,3.829-14.203,14.996-15.135,18.444
	c-0.95-6.079-2.992-12.296-4.467-18.29l-7.33-30.941l-7.498-31.118c-1.44-6.001-2.614-12.261-4.67-18.08
	c-5.331-15.093-12.778-29.726-19.158-44.412c-12.524-28.832-25.047-57.987-39.155-86.081c-4.139-8.648-8.617-17.123-12.684-25.81
	c0.755-0.921,1.303-2.056,1.9-3.087l0.305-2.447c0.637-4.506,0.085-9.367-0.186-13.903L750.911,468.029z"/>
<path style="fill:#FEFEFE;" d="M751.36,484.154c6.873,3.75,13.256,9.047,19.545,13.698l30.164,22.384
	c4.843,3.611,9.804,7.903,15.07,10.85l1.242,4.006c-2.373-0.414-58.778-42.864-66.326-48.491L751.36,484.154z"/>
<path style="fill:#F9E6C6;" d="M750.911,468.029c9.017,2.152,46.228,32.623,56.474,39.55c0.901,1.701,1.705,3.338,2.366,5.147
	c2.274,6.049,4.78,12.092,6.388,18.36c-5.266-2.947-10.227-7.239-15.07-10.85l-30.164-22.384
	c-6.289-4.651-12.672-9.948-19.545-13.698c0.637-4.506,0.085-9.367-0.186-13.903L750.911,468.029z"/>
<path style="fill:#FEFEFE;" d="M750.911,468.029c9.017,2.152,46.228,32.623,56.474,39.55c0.901,1.701,1.705,3.338,2.366,5.147
	c-2.499-1.419-4.78-3.511-7.101-5.232l-15.009-11.076c-12.04-8.904-24.374-17.347-36.467-26.167L750.911,468.029z"/>
<path style="fill:#3D7DA1;" d="M816.408,402.37c-1.352-12.265-1.344-24.891-1.409-37.224c-0.02-3.745-0.491-8.226,0.059-11.903
	c0.218-1.462,0.971-2.361,1.869-3.471c1.457-1.8-0.42-5.716,1.97-8.405c1.502-0.454,2.53-0.022,4.05,0.296
	c11.265,4.411,22.195,12.114,31.933,19.232c7.641,5.939,15.279,12.646,21.763,19.842c7.255-1.231,15.843-7.642,23.378-10.227
	c5.663,13.429,11.507,26.779,17.533,40.05c2.63,5.89,4.949,12.124,7.859,17.861c-6.282,3.686-13.309,6.488-19.871,9.696
	c-15.335,7.544-30.748,14.927-46.237,22.148c-12.724,6.047-25.478,12.029-38.263,17.947c-6.731,3.132-13.518,6.778-20.512,9.241
	c1.346,7.047,5.192,13.216,6.855,20.126c-10.246-6.927-47.457-37.398-56.474-39.55c0.345-5.38,0.116-10.909,0.144-16.313
	c0.108-11.487,0.105-22.975-0.01-34.462c-0.138-7.871-0.63-15.72-0.474-23.595c6.208,2.551,35.147,23.371,40.296,28.219l4.874-1.948
	c5.607-2.166,11.027-4.622,16.471-7.164c1.619-0.8,3.162-1.75,4.717-2.665C816.688,407.537,816.579,404.941,816.408,402.37z"/>
<path style="fill:#FEFEFE;" d="M818.757,401.322c6.937-1.601,12.402-4.844,17.465-9.783c1.338,2.324,2.75,4.636,4.004,7.005
	c-5.866,3.573-14.426,8.634-21.082,10.1L818.757,401.322z"/>
<path style="fill:#010104;" d="M816.408,402.37c-1.352-12.265-1.344-24.891-1.409-37.224c-0.02-3.745-0.491-8.226,0.059-11.903
	c0.218-1.462,0.971-2.361,1.869-3.471c1.457-1.8-0.42-5.716,1.97-8.405c1.502-0.454,2.53-0.022,4.05,0.296
	c11.265,4.411,22.195,12.114,31.933,19.232c7.641,5.939,15.279,12.646,21.763,19.842c3.371,0.858,11.781,15.164,13.9,18.803
	c0.532,0.914,0.372,0.571,0.516,1.685c-0.84,0.859-0.826,0.779-2.039,0.842c-1.994-1.901-2.939-4.806-4.354-7.151
	c-2.693-4.466-6.253-9.5-10.101-13.053c-9.106,6.489-23.527,9.489-32.788,16.223l-1.551,0.458c-1.254-2.369-2.666-4.681-4.004-7.005
	c-5.063,4.939-10.528,8.182-17.465,9.783l0.387,7.322c0.597,4.412,3.215,20.503,2.476,23.741l-0.857,0.648l-1.028-0.36
	c-1.385-4.971-2.564-17.079-2.806-22.572C816.688,407.537,816.579,404.941,816.408,402.37z"/>
<path style="fill:#E88422;" d="M816.866,351.666c5.851,16.185,9.168,25.513,19.356,39.873c-5.063,4.939-10.528,8.182-17.465,9.783
	C817.886,384.879,818.585,368.007,816.866,351.666z"/>
<path style="fill:#FEFEFE;" d="M853.202,362.577c7.928,5.598,14.661,12.321,21.363,19.286c-9.106,6.489-23.527,9.489-32.788,16.223
	c-1.102-2.785-2.794-5.225-3.674-8.118C843.17,383.716,849.114,370.139,853.202,362.577z"/>
<path style="fill:#ECA932;" d="M838.103,389.968c-2.916-4.776-6.256-9.028-8.829-14.085c-3.076-6.044-11.619-24.556-9.079-31.199
	c0.377-0.987,0.121-0.629,1.191-1.1c8.247,1.619,24.565,13.767,31.816,18.993C849.114,370.139,843.17,383.716,838.103,389.968z"/>
<path style="fill:#F9E6C6;" d="M750.571,393.659c6.208,2.551,35.147,23.371,40.296,28.219c-3.615,1.449-6.996,3.056-10.399,4.95
	c4.792,11.454,8.289,23.666,12.185,35.46c2.705,8.187,6.216,16.72,7.877,25.165c1.346,7.047,5.192,13.216,6.855,20.126
	c-10.246-6.927-47.457-37.398-56.474-39.55c0.345-5.38,0.116-10.909,0.144-16.313c0.108-11.487,0.105-22.975-0.01-34.462
	C750.907,409.383,750.415,401.534,750.571,393.659z"/>
<path style="fill:#5A9871;" d="M211.057,417.597c5.946,3.919,11.865,7.418,18.373,10.358c-1.45,2.587-1.458,6.701-1.393,9.626
	c-0.355,1.502-0.755,2.307-0.277,3.797l0.278,0.17c3.651,2.139,5.484,4.86,6.511,8.979c1.916,7.678,0.195,16.759-1.134,24.45
	l3.122,1.026c8.825,4.978,19.325,8.332,28.767,12.083c-5.9,8.658-11.207,26.844-15.367,36.922l-23.014,56.047
	c-4.235,10.382-9.509,21.236-12.233,32.1c-6.202-2.261-11.977-5.763-17.752-8.932l-24.435-13.445
	c-3.938-2.423-8.381-4.189-12.122-6.906l0.842-0.864c-0.583-2.317-9.898-10.618-11.956-13.013
	c-3.612-4.206-7.698-8.962-10.056-14.008c-0.259-1.704-1.197-3.165-1.445-4.875c-0.302-2.087-0.294-3.964,0.979-5.709
	c1.607-0.536,1.62-0.363,3.204,0.308l-0.1-0.276c-1.43-4.037-3.603-5.947-6.762-8.636l-3.836-2.958
	c-1.011-1.848-1.181-3.333-1.369-5.414c-1.645-2.737-2.582-6.722-3.308-9.845c-5.749-24.701,3.408-51.688,11.701-74.845
	c1.823-5.092,5.803-11.639,6.47-16.676l0.572-0.82c2.354-0.053,23.899,13.502,27.483,15.569c1.111,0.641,3.205,2.334,4.367,2.53
	c0.139,1.625,0.019,2.01,1.1,3.293l1.2,0.405c0.231-0.491,0.528-0.944,0.56-1.491l2.487,1.929c0.474,0.983,0.858,1.544,2.017,1.877
	c0.308,0.088,0.639,0.056,0.959,0.085c1.173-1.91,2.608-5,4.828-5.819c1.875-0.691,3.779,0.399,5.401,1.228
	c0.868-1.26,1.508-2.633,2.204-3.994l-2.461-0.514C199.889,430.602,203.835,426.288,211.057,417.597z"/>
<path style="fill:#2E6452;" d="M151.929,511.49c1.709-2.112,3.542-4.111,5.498-5.996c2.424-2.37,5.372-5.07,8.92-5.016
	c-2.108,3.962-5.719,9.108-6.76,13.399C157.006,512.761,154.701,512,151.929,511.49z"/>
<path style="fill:#EA5740;" d="M177.934,496.897c3.777-4.441,7.768-8.73,12.334-12.373c-0.766,5.237-2.601,9.773-3.788,14.845
	l-0.634,0.464C183.305,499.612,180.116,498.179,177.934,496.897z"/>
<path style="fill:#2E6452;" d="M154.591,550.823c4.19-1.339,7.86-5.631,12.346-5.615c1.535,1.59,3.086,3.146,4.696,4.66
	c1.097,0.967,2.179,1.964,3.319,2.879c6.815,6.27,13.794,12.351,20.939,18.242c-6.731,0.299-23.86-11.294-30.636-14.675
	c-3.402-1.697-7.04-2.85-10.417-4.593L154.591,550.823z"/>
<path style="fill:#F9E6C6;" d="M228.038,441.548c3.651,2.139,5.484,4.86,6.511,8.979c1.916,7.678,0.195,16.759-1.134,24.45
	c-5.804-1.624-17.008-8.906-22.715-11.985c-8.257-4.454-16.752-8.498-25.21-12.554c1.173-1.91,2.608-5,4.828-5.819
	c1.875-0.691,3.779,0.399,5.401,1.228c1.962,1.523,4.236,1.773,6.388,2.868l2.602,0.988c2.87,1.064,6.513,1.99,8.933,3.896
	c1.589,0.363,1.889,0.108,3.366-0.462c0.342,0.599,0.7,1.361,1.296,1.772c1.239,0.854,1.784,0.846,3.191,0.724
	c4.374-2.93,4.436-8.842,6.211-13.285C227.814,442.08,227.927,441.815,228.038,441.548z"/>
<path style="fill:#E19173;" d="M211.057,417.597c5.946,3.919,11.865,7.418,18.373,10.358c-1.45,2.587-1.458,6.701-1.393,9.626
	c-0.355,1.502-0.755,2.307-0.277,3.797l0.278,0.17c-0.111,0.267-0.224,0.532-0.332,0.8c-1.775,4.443-1.837,10.355-6.211,13.285
	c-1.407,0.122-1.952,0.13-3.191-0.724c-0.596-0.411-0.954-1.173-1.296-1.772c-1.477,0.57-1.777,0.825-3.366,0.462
	c-2.42-1.906-6.063-2.832-8.933-3.896l-2.602-0.988c-2.152-1.095-4.426-1.345-6.388-2.868c0.868-1.26,1.508-2.633,2.204-3.994
	l-2.461-0.514C199.889,430.602,203.835,426.288,211.057,417.597z"/>
<path style="fill:#F39F71;" d="M202.153,442.463c1.222,0.714,2.296,0.997,2.693,2.492c0.168,0.633-0.01,1.625-0.042,2.282
	l-0.095,2.466l-2.602-0.988L202.153,442.463z"/>
<path style="fill:#D87D53;" d="M213.642,453.599c0.46-1.686,0.517-3.563,1.12-5.194c0.396-1.072,0.676-1.081,1.653-1.567
	c1.223,0.016,1.899-0.076,3,0.547c-0.234,0.669-0.48,1.248-0.863,1.846c-0.644,1.004-1.156,1.771-1.384,2.966
	c-0.06,0.312-0.107,0.627-0.16,0.94C215.531,453.707,215.231,453.962,213.642,453.599z"/>
<path style="fill:#D87D53;" d="M197.923,441.853c1.412,0.252,2.802,0.468,4.23,0.61l-0.046,6.252
	c-2.152-1.095-4.426-1.345-6.388-2.868C196.587,444.587,197.227,443.214,197.923,441.853z"/>
<path style="fill:#F5C74B;" d="M151.929,511.49c2.772,0.51,5.077,1.271,7.658,2.387l0.499,0.266c0.559,0.508,1.15,1.171,1.773,1.586
	c1.114,1.062,2.518,2.168,3.33,3.464c3.729,3.785,5.04,8.827,4.912,14.05c-0.105,4.244-1.185,8.209-3.164,11.965
	c-4.486-0.016-8.156,4.276-12.346,5.615c-2.628-0.176-5.893-0.082-8.403-0.806c-1.676-0.483-1.644-0.78-2.456-2.258l-1.783-2.048
	l-0.1-0.276c-1.43-4.037-3.603-5.947-6.762-8.636l-3.836-2.958c-1.011-1.848-1.181-3.333-1.369-5.414l0.708-2.342
	c1.832-4.198,4.58-8.06,8.268-10.815C142.973,512.279,147.048,511.842,151.929,511.49z"/>
<path style="fill:#FCD09F;" d="M190.268,484.524c0.131-0.155,0.256-0.317,0.394-0.467c1.33-1.438,2.114-1.56,3.976-1.658
	c14.235,10.479,28.589,21.181,41.395,33.4c-5.467,9.541-11.596,18.708-17.469,28.003c-4.647,7.355-8.955,15.362-14.677,21.942
	c-2.04,2.346-4.2,4.41-7.136,5.571l0.032-0.295c0.637-6.455,17.116-35.236,20.997-42.49c-5.98-5.535-17.969-17.292-24.587-20.786
	l-1.557-1.4c0.116-0.507,0.45-1.578,0.399-2.141c-0.128-1.431-1.255-2.028-2.245-2.892c-1.127-0.507-2.142-1.391-3.31-1.942
	C187.667,494.297,189.502,489.761,190.268,484.524z"/>
<path style="fill:#ECA932;" d="M190.268,484.524c0.131-0.155,0.256-0.317,0.394-0.467c1.33-1.438,2.114-1.56,3.976-1.658
	c-1.446,4.904-2.537,11.186-4.887,15.692l0.039,3.22c-1.127-0.507-2.142-1.391-3.31-1.942
	C187.667,494.297,189.502,489.761,190.268,484.524z"/>
<path style="fill:#F39F71;" d="M189.751,498.091l2.546,3.339c4.531,6.025,11.655,11.521,17.524,16.19
	c2.504,1.993,5.585,3.99,7.706,6.388c0.537,0.608,0.743,1.234,0.926,2.004c-0.139,1-0.236,1.59-0.673,2.518
	c-5.98-5.535-17.969-17.292-24.587-20.786l-1.557-1.4c0.116-0.507,0.45-1.578,0.399-2.141c-0.128-1.431-1.255-2.028-2.245-2.892
	L189.751,498.091z"/>
<path style="fill:#E88422;" d="M172.244,496.361c1.991-0.017,3.774-0.092,5.69,0.536c2.182,1.282,5.371,2.715,7.912,2.936
	l0.634-0.464c1.168,0.551,2.183,1.435,3.31,1.942c0.99,0.864,2.117,1.461,2.245,2.892c0.051,0.563-0.283,1.634-0.399,2.141
	l1.557,1.4c6.618,3.494,18.607,15.251,24.587,20.786c-3.881,7.254-20.36,36.035-20.997,42.49l-0.032,0.295l-0.86-0.326
	c-7.145-5.891-14.124-11.972-20.939-18.242c-1.14-0.915-2.222-1.912-3.319-2.879c-1.61-1.514-3.161-3.07-4.696-4.66
	c1.979-3.756,3.059-7.721,3.164-11.965c0.128-5.223-1.183-10.265-4.912-14.05c-0.812-1.296-2.216-2.402-3.33-3.464
	c-0.623-0.415-1.214-1.078-1.773-1.586l-0.499-0.266c1.041-4.291,4.652-9.437,6.76-13.399
	C168.21,498.689,169.922,497.514,172.244,496.361z"/>
<path style="fill:#D87D53;" d="M171.633,549.868c5.642-8.421,10.608-17.324,15.883-25.978c-0.174,7.007-7.493,23.591-12.564,28.857
	C173.812,551.832,172.73,550.835,171.633,549.868z"/>
<path style="fill:#EA5740;" d="M172.244,496.361c1.991-0.017,3.774-0.092,5.69,0.536c2.182,1.282,5.371,2.715,7.912,2.936
	l0.634-0.464c1.168,0.551,2.183,1.435,3.31,1.942c0.99,0.864,2.117,1.461,2.245,2.892c0.051,0.563-0.283,1.634-0.399,2.141
	l1.557,1.4c-1.974,5.372-3.403,10.882-5.677,16.146c-5.275,8.654-10.241,17.557-15.883,25.978c-1.61-1.514-3.161-3.07-4.696-4.66
	c1.979-3.756,3.059-7.721,3.164-11.965c0.128-5.223-1.183-10.265-4.912-14.05c-0.812-1.296-2.216-2.402-3.33-3.464
	c-0.623-0.415-1.214-1.078-1.773-1.586l-0.499-0.266c1.041-4.291,4.652-9.437,6.76-13.399
	C168.21,498.689,169.922,497.514,172.244,496.361z"/>
<path style="fill:#D87D53;" d="M172.244,496.361c1.991-0.017,3.774-0.092,5.69,0.536c2.182,1.282,5.371,2.715,7.912,2.936
	l0.634-0.464c1.168,0.551,2.183,1.435,3.31,1.942c0.99,0.864,2.117,1.461,2.245,2.892c0.051,0.563-0.283,1.634-0.399,2.141
	c-3.707-3.075-7.335-5.188-11.901-6.791C176.975,498.584,174.62,498.248,172.244,496.361z"/>
<path style="fill:#F9E6C6;" d="M315.408,362.355c2.251,6.144,4.451,12.306,6.219,18.611c1.418,5.055,2.395,10.437,4.126,15.378
	c3.316,9.748,4.993,20.815,0.201,30.381c-5.908,11.793-20.109,24.476-30.428,32.827c4.939,3.058,9.836,6.206,14.993,8.889
	c-16.667,19.952-30.639,36.754-28.087,64.644c0.22,2.402,0.716,4.676,1.329,7.003c1.3,6.811,4.072,13.508,7.22,19.66
	c1.732,3.383,7.294,11.246,7.715,14.318c-4.002,11.437-7.571,22.956-11.054,34.558c-5.258,16.787-11.529,33.831-15.254,51.025
	c-5.868,0.536-11.993,0.003-17.889-0.046c-8.638-0.015-17.272,0.179-25.901,0.58c-27.096,1.201-54.083,4.023-81.144,5.369
	c0.041,4.308-0.148,8.749,0.188,13.038c-5.204,0.263-10.406,0.564-15.605,0.903l-3.851,0.22
	c2.632-17.354,25.031-54.158,34.165-70.309c3.478-6.15,7.902-11.866,10.152-18.626l24.435,13.445
	c5.775,3.169,11.55,6.671,17.752,8.932c2.724-10.864,7.998-21.718,12.233-32.1l23.014-56.047
	c4.16-10.078,9.467-28.264,15.367-36.922c-9.442-3.751-19.942-7.105-28.767-12.083l-3.122-1.026
	c1.329-7.691,3.05-16.772,1.134-24.45c-1.027-4.119-2.86-6.84-6.511-8.979l-0.278-0.17c-0.478-1.49-0.078-2.295,0.277-3.797
	c-0.065-2.925-0.057-7.039,1.393-9.626c1.037-0.319,1.797-0.666,2.572-1.432c10.579-10.459,19.621-22.786,31.783-31.629
	C275.167,385.863,302.476,368.347,315.408,362.355z"/>
<path style="fill:#0D1D41;" d="M228.037,437.581c4.611,2.24,7.56,4.99,9.188,9.974c2.816,8.62,0.562,19.644-0.688,28.448
	l-3.122-1.026c1.329-7.691,3.05-16.772,1.134-24.45c-1.027-4.119-2.86-6.84-6.511-8.979l-0.278-0.17
	C227.282,439.888,227.682,439.083,228.037,437.581z"/>
<path style="fill:#0D1D41;" d="M315.408,362.355c2.251,6.144,4.451,12.306,6.219,18.611c1.418,5.055,2.395,10.437,4.126,15.378
	c-4.012,4.685-8.044,7.952-14.089,9.643c-16.308,4.563-33.96-3.234-47.879-11.093C275.167,385.863,302.476,368.347,315.408,362.355z
	"/>
<path style="fill:#94C791;" d="M265.304,488.086c0.885,10.324-0.851,21.314-1.384,31.686c-1.503,29.246-3.939,58.446-5.692,87.679
	c-14.493,2.048-29.006,3.949-43.538,5.704c2.724-10.864,7.998-21.718,12.233-32.1l23.014-56.047
	C254.097,514.93,259.404,496.744,265.304,488.086z"/>
<path style="fill:#223057;" d="M731.088,493.738c6.031-0.905,12.142-3.528,18.067-4.05c4.067,8.687,8.545,17.162,12.684,25.81
	c14.108,28.094,26.631,57.249,39.155,86.081c6.38,14.686,13.827,29.319,19.158,44.412c2.056,5.819,3.23,12.079,4.67,18.08
	l7.498,31.118l7.33,30.941c1.475,5.994,3.517,12.211,4.467,18.29c7.969,39.583,17.179,78.963,25.619,118.448
	c-4.212,1.118-8.376,2.189-12.422,3.835c-3.037,0.956-6.236,1.772-9.199,2.917c-4.406,1.028-9.03,1.837-13.335,3.203l-9.744,1.623
	c-13.994-17.75-30.004-65.963-37.031-88.06c-3.403-7.322-5.61-16.274-8.139-24.005c-4.454-13.618-8.342-27.351-12.269-41.126
	c-3.329-11.672-6.773-23.294-9.375-35.156c1.569-1.348,5.537-4.302,6.021-6.283c-2.571-0.643-6.714-1.583-8.341-3.792
	c-1.449-1.967-0.681-4.063-0.204-6.235c-18.484-24.475-37.862-48.343-55.956-73.113c2.133-5.047,3.029-11.135,4.474-16.446
	c3.352-12.324,6.885-24.583,9.955-36.982c0.323-0.981,0.823-1.507,1.513-2.26c1.605,0.136,3.12-0.202,4.662-0.589l0.698-3.106
	c2.145-7.367,4.55-14.656,6.665-22.038C729.33,508.153,731.61,501.131,731.088,493.738z"/>
<path style="fill:#0D1D41;" d="M731.088,493.738c6.031-0.905,12.142-3.528,18.067-4.05c4.067,8.687,8.545,17.162,12.684,25.81
	c-8.604,2.16-25.097,0.818-34.13-0.243C729.33,508.153,731.61,501.131,731.088,493.738z"/>
<path style="fill:#0D1D41;" d="M720.346,540.399c0.323,7.116-0.13,14.313,0.665,21.396c2.933,26.159,15.334,50.883,29.238,72.85
	c3.824,6.04,7.49,12.149,11.242,18.227c2.168,3.511,4.854,7.105,6.373,10.942c-1.995,2.134-7.377,0.795-9.35,4.214l0.418,1.065
	c3.645-0.92,6.972-2.874,10.508-4.155c1.501,3.888,3.751,7.255,5.467,11.01c-0.232,0.043-0.464,0.089-0.696,0.129
	c-4.053,0.708-6.486,1.478-9.968,3.739c-2.571-0.643-6.714-1.583-8.341-3.792c-1.449-1.967-0.681-4.063-0.204-6.235
	c-18.484-24.475-37.862-48.343-55.956-73.113c2.133-5.047,3.029-11.135,4.474-16.446c3.352-12.324,6.885-24.583,9.955-36.982
	c0.323-0.981,0.823-1.507,1.513-2.26C717.289,541.124,718.804,540.786,720.346,540.399z"/>
<path style="fill:#0D1D41;" d="M774.907,675.948c0.461,0.694,0.642,1.482,1.534,1.591c1.577,0.192,3.319-0.836,4.689-1.54
	l1.039,0.12l0.171,0.356c-2.227,4.314-15.579,16.033-15.653,18.633c4.696-3.243,7.794-7.812,11.867-11.667
	c4.086,15.514,9.814,30.198,15.471,45.184l14.121,38.364l19.758,54.794c5.721,15.834,10.877,33.747,20.211,47.837
	c-4.406,1.028-9.03,1.837-13.335,3.203l-9.744,1.623c-13.994-17.75-30.004-65.963-37.031-88.06
	c-3.403-7.322-5.61-16.274-8.139-24.005c-4.454-13.618-8.342-27.351-12.269-41.126c-3.329-11.672-6.773-23.294-9.375-35.156
	c1.569-1.348,5.537-4.302,6.021-6.283c3.482-2.261,5.915-3.031,9.968-3.739C774.443,676.037,774.675,675.991,774.907,675.948z"/>
<path style="fill:#0D1D41;" d="M267.216,199.301c3.293,0.04,6.185,0.326,9.367,1.226c10.04,2.84,25.422,12.377,34.661,3.212
	c8.663-8.594,3.031-18.698,19.022-26.603c3.966-1.961,8.136-3.177,12.579-3.245c8.308-0.127,15.223,4.706,23.329,5.292
	c5.85,0.423,11.545-2.053,17.132-3.432c8.652-2.136,18.764-1.248,25.408,5.211c1.641,1.595,3.049,3.548,4.216,5.508
	c8.036,2.805,16.653,5.326,20.702,13.629c3.297,6.761,1.96,13.1,1.789,20.222c3.536,10.443,7.889,20.298,2.688,31.162
	c-0.825,1.724-1.86,3.424-3.011,4.946l-1.954,2.569c-4.371,5.021-8.628,8.899-14.55,11.994l-1.877,0.955
	c-4.082,1.616-7.935,2.34-12.292,2.748c-0.309-0.82-0.259-1.554-0.286-2.422c-13.249-2.648-21.333-4.257-31.886-13.332l-2.313,15.76
	c-1.096,5.679-2.317,11.33-3.664,16.955c-4.081,2.583-8.58,3.488-13.222,4.571l-3.552,1.364
	c-22.614,10.651-44.626,23.389-66.114,36.14c-8.889,5.275-18.859,10.348-26.668,17.163c-10.394,9.072-23.579,25.754-31.345,37.416
	c-5.034-2.112-9.83-4.216-13.842-8.022c-6.16-5.845-7.885-13.27-7.977-21.422c-4.069,0.371-7.834,0.475-11.907,0.077
	c-3.481-0.567-6.954-1.255-10.293-2.406c-10.734-3.701-21.382-11.336-26.377-21.763c-3.254-6.792-4.325-14.472-1.604-21.655
	c4.176-11.024,14.322-16.57,24.457-21.092c-4.895-4.492-8.317-9.907-11.03-15.944c-3.643-8.104-4.889-17.09-1.536-25.552
	c6.011-15.171,22.036-23.318,37.914-21.29c7.706,0.985,20.894,8.612,27.938,5.316c0.263-0.123,0.52-0.259,0.78-0.389l0.326-1.189
	c4.762-4.138,9.846-13.525,15.164-15.906c1.752-2.894,3.408-5.895,5.336-8.674C256.563,202.865,260.662,200.452,267.216,199.301z"/>
<path style="fill:#F39F71;" d="M360.815,247.911c-2.571,0.107-4.382-0.026-6.483-1.635c-2.075-1.589-3.179-4.022-3.454-6.586
	c-0.279-2.594,0.31-5.377,2.102-7.345c1.019-1.117,2.35-1.798,3.89-1.788c2.608,0.016,4.406,1.887,5.987,3.708
	C361.745,235.809,360.825,245.715,360.815,247.911z"/>
<path style="fill:#274B7F;" d="M267.216,199.301c3.293,0.04,6.185,0.326,9.367,1.226c10.04,2.84,25.422,12.377,34.661,3.212
	c8.663-8.594,3.031-18.698,19.022-26.603c3.966-1.961,8.136-3.177,12.579-3.245c8.308-0.127,15.223,4.706,23.329,5.292
	c5.85,0.423,11.545-2.053,17.132-3.432c8.652-2.136,18.764-1.248,25.408,5.211c1.641,1.595,3.049,3.548,4.216,5.508
	c8.036,2.805,16.653,5.326,20.702,13.629c3.297,6.761,1.96,13.1,1.789,20.222c3.536,10.443,7.889,20.298,2.688,31.162
	c-0.825,1.724-1.86,3.424-3.011,4.946l-1.954,2.569c-4.371,5.021-8.628,8.899-14.55,11.994l-1.877,0.955
	c-4.082,1.616-7.935,2.34-12.292,2.748c-0.309-0.82-0.259-1.554-0.286-2.422c-13.249-2.648-21.333-4.257-31.886-13.332
	c-2.458-2.837-5.779-9.472-8.235-11.182c-0.723-0.504-2.337,0.022-3.203,0.152c0.01-2.196,0.93-12.102,2.042-13.646l1.016,0.452
	c1.069-1.913,0.734-5.493,0.834-7.759c-0.55-2.137-2.233-3.117-4.042-4.184c-5.896-3.476-14.788-4.639-21.389-2.746
	c-3.957,1.135-7.193,3.176-9.242,6.834c-4.652,8.306-1.146,19.143-12.771,22.659c-12.447,3.766-35.335-10.301-44.108,4.813
	c-5.72,9.855-4.125,23.164-17.617,27.149c-18.714,5.529-35.176-10.879-53.595-9.217c-14.59,1.316-15.302,16.994-20.571,19.426
	c-0.995,0.459-2.46,0.339-3.54,0.335c-4.895-4.492-8.317-9.907-11.03-15.944c-3.643-8.104-4.889-17.09-1.536-25.552
	c6.011-15.171,22.036-23.318,37.914-21.29c7.706,0.985,20.894,8.612,27.938,5.316c0.263-0.123,0.52-0.259,0.78-0.389l0.326-1.189
	c4.762-4.138,9.846-13.525,15.164-15.906c1.752-2.894,3.408-5.895,5.336-8.674C256.563,202.865,260.662,200.452,267.216,199.301z"/>
<path style="fill:#FCD09F;" d="M231.898,234.168l0.326-1.189c4.762-4.138,9.846-13.525,15.164-15.906
	c-3.227,7.871-7.202,13.458-15.225,16.987C232.075,234.099,231.986,234.132,231.898,234.168z"/>
<path style="fill:#E19173;" d="M391.742,217.429c9.823-8.392,12.482-12.025,20.137-22.01c4.778,4.47,14.901,20.178,17.895,26.361
	c0.985-0.274,0.599-0.209,1.468-0.316c1.612-0.196,2.707-0.453,4.179-1.143c3.536,10.443,7.889,20.298,2.688,31.162
	c-0.825,1.724-1.86,3.424-3.011,4.946l-1.954,2.569c-4.371,5.021-8.628,8.899-14.55,11.994l-1.877,0.955
	c-4.082,1.616-7.935,2.34-12.292,2.748c-0.309-0.82-0.259-1.554-0.286-2.422c-13.249-2.648-21.333-4.257-31.886-13.332
	c-2.458-2.837-5.779-9.472-8.235-11.182c-0.723-0.504-2.337,0.022-3.203,0.152c0.01-2.196,0.93-12.102,2.042-13.646l1.016,0.452
	c1.069-1.913,0.734-5.493,0.834-7.759c8.448,0.458,16.135-1.197,23.226-5.855C388.524,219.076,390.031,218.41,391.742,217.429z"/>
<path style="fill:#010104;" d="M391.742,217.429c1.745,0.871,4.32,2.29,5.107,4.183c0.051,0.123,0.07,0.257,0.105,0.385
	l-0.453,0.524c-3.295-0.893-5.026-1.785-8.568-1.418C388.524,219.076,390.031,218.41,391.742,217.429z"/>
<path style="fill:#010104;" d="M386.332,226.098c3.3-0.131,8.527-0.579,11.273,1.482l-0.014,0.787
	c-1.028-0.374-1.851-0.985-2.879-0.533l-0.016,3.819c-1.15,1.041-2.487,1.103-3.981,1.462c-0.687-0.359-1.327-0.808-1.979-1.228
	c-0.829-1.852,0.108-2.842-0.258-4.705c-0.175-0.027-0.348-0.073-0.525-0.082c-1.942-0.097-3.469,1.288-4.875,2.433l-0.504,0.417
	l-0.069-0.791C383.691,227.775,384.721,226.952,386.332,226.098z"/>
<path style="fill:#010104;" d="M421.286,227.192c3.062,0.298,4.967-0.547,7.623,1.584l0.115,1.065
	c-1.054,1.872-3.126,2.784-4.919,3.864c-1.773,0.106-3.051-0.097-4.72-0.642c-0.882-1.845,0.887-2.614,0.249-4.37
	c-0.81,0.137-1.286,0.227-2.107,0.086C418.696,227.955,419.94,227.614,421.286,227.192z"/>
<path style="fill:#FEFEFE;" d="M393.459,248.726c2.386,0.059,4.992,1.018,7.303,1.626c4.789,1.26,9.814,0.269,14.726,0.342
	l0.252,0.736c-0.474,1.842-1.62,3.282-2.684,4.826c-1.649,1.477-3.207,2.796-5.412,3.32c-2.719,0.646-5.791-0.359-8.026-1.906
	C396.686,255.641,394.165,252.233,393.459,248.726z"/>
<path style="fill:#0D1D41;" d="M435.421,220.321c3.536,10.443,7.889,20.298,2.688,31.162c-0.825,1.724-1.86,3.424-3.011,4.946
	l-1.954,2.569c-4.371,5.021-8.628,8.899-14.55,11.994l-1.877,0.955c-4.082,1.616-7.935,2.34-12.292,2.748
	c-0.309-0.82-0.259-1.554-0.286-2.422c1.243-0.284,2.493-0.611,3.689-1.056c9.087-3.377,16.287-10.546,20.272-19.303
	c4.311-9.472,5.382-20.317,1.674-30.134c0.985-0.274,0.599-0.209,1.468-0.316C432.854,221.268,433.949,221.011,435.421,220.321z"/>
<path style="fill:#D1D7D9;" d="M445.345,862.225c4.351-0.848,8.639-1.143,13.062-1.362c1.604,2.655,2.787,5.577,4.434,8.176
	c1.704-0.77,3.49-1.474,5.061-2.493c0.962,2.554,2.161,5.206,2.893,7.825c8.634-2.094,18.221-5.026,26.384-8.516
	c1.103,7.032,7.699,28.163,13.303,31.882c0.139,0.092,0.296,0.154,0.444,0.231c10.744-4.096,28.619-5.719,39.849-4.997
	c5.534,0.355,11.856,1.84,17.336,0.999c0.4,0.527,0.923,0.826,0.722,1.533c-0.735,2.586-4.973,5.027-6.927,6.845
	c0.746,0.375,1.273,0.595,2.123,0.635c7.341,0.35,14.819-0.064,22.18-0.02c16.253,0.146,32.505,0.427,48.754,0.844
	c3.322,0.102,8.765,1.022,11.903,0.02c0.174-0.056,0.33-0.157,0.495-0.235c1.975,8.287,3.664,16.71,5.909,24.92
	c9.157,0.028,18.407-0.228,27.55,0.134c11.424,0.48,23.007,0.185,34.449,0.269c1.799-6.776,2.787-13.742,4.617-20.506l76.979,4.984
	l29.396,2.216c5.299,0.392,10.805,1.102,16.109,0.947l0.422,1.775c2.092,0.845,4.123-0.082,6.241-0.651
	c0.863,0.599,1.657,0.953,2.694,1.162c4.115,0.829,8.54,1.018,12.722,1.531c11.443,1.403,24.521,2.996,35.417,6.822
	c2.129,0.748,3.651,1.35,4.649,3.44l-0.613,1.098c-11.2,7.372-83.92,11.385-101.53,12.366
	c-79.961,4.103-159.974,6.366-240.039,6.787c-80.065,0.422-160.098-0.997-240.098-4.258c-31.259-1.351-62.495-3.117-93.708-5.297
	c-25.235-1.756-52.695-3.633-77.528-8.418c-4.052-0.781-11.334-1.972-13.783-5.593c0.01-0.747-0.154-1.109,0.38-1.714
	c4.618-5.227,33.366-8.096,41.135-8.672c-1.33-4.896-2.015-10.102-2.98-15.088c-1.592-8.215-3.36-16.429-4.56-24.71
	c9.803,0.835,19.872,0.458,29.709,0.312l0.372,0.069c14.538,0.159,29.126,0.581,43.662,0.456l0.215-0.309
	c12.492,0.419,25.073-0.383,37.55-0.994c17.663-0.839,35.318-1.799,52.967-2.882c19.709-1.113,39.395-2.556,59.056-4.33
	c13.111-1.099,26.353-1.703,39.214-4.6c3.692,5.825,11.755,21.79,16.078,25.259l0.578-0.497
	C451.092,883.997,446.635,868.459,445.345,862.225z"/>
<path style="fill:#EA5740;" d="M470.795,874.371c8.634-2.094,18.221-5.026,26.384-8.516c1.103,7.032,7.699,28.163,13.303,31.882
	c0.139,0.092,0.296,0.154,0.444,0.231c10.744-4.096,28.619-5.719,39.849-4.997c5.534,0.355,11.856,1.84,17.336,0.999
	c0.4,0.527,0.923,0.826,0.722,1.533c-0.735,2.586-4.973,5.027-6.927,6.845c-15.445,12.839-36.76,21.097-56.138,25.467
	c-4.379,0.987-9.068,2.243-13.571,1.841c-1.04-0.093-1.708-0.282-2.562-0.92l-1.084-2.666c-0.793-1.977-1.333-4.091-1.956-6.13
	c-0.852-6.321-2.991-12.598-5.124-18.588C477.958,892.341,474.399,883.347,470.795,874.371z"/>
<linearGradient id="SVGID_00000037658525964249750690000011135662847914403769_" gradientUnits="userSpaceOnUse" x1="527.6704" y1="117.3787" x2="532.3719" y2="107.742" gradientTransform="matrix(1 0 0 -1 0 1026)">
	<stop  offset="0" style="stop-color:#021122"/>
	<stop  offset="1" style="stop-color:#01244A"/>
</linearGradient>
<path style="fill:url(#SVGID_00000037658525964249750690000011135662847914403769_);" d="M568.111,893.97
	c0.4,0.527,0.923,0.826,0.722,1.533c-0.735,2.586-4.973,5.027-6.927,6.845c-15.445,12.839-36.76,21.097-56.138,25.467
	c-4.379,0.987-9.068,2.243-13.571,1.841c-1.04-0.093-1.708-0.282-2.562-0.92l-1.084-2.666l0.673-0.057
	c23.17-2.098,45.104-10.785,65.126-22.286C558.941,901.09,564.689,898.065,568.111,893.97z"/>
<path style="fill:#F39F71;" d="M470.795,874.371c8.634-2.094,18.221-5.026,26.384-8.516c1.103,7.032,7.699,28.163,13.303,31.882
	c0.139,0.092,0.296,0.154,0.444,0.231c-1.32,4.66-3.227,9.31-5.105,13.775c-3.483,1.79-17.664,6.381-19.226,8.197
	c-0.852-6.321-2.991-12.598-5.124-18.588C477.958,892.341,474.399,883.347,470.795,874.371z"/>
<path style="fill:#5C7BB7;" d="M171.191,877.136c9.803,0.835,19.872,0.458,29.709,0.312l0.372,0.069
	c14.538,0.159,29.126,0.581,43.662,0.456c-2.262,11.295-3.675,22.755-5.219,34.166c-0.849,4.926-1.452,9.882-1.807,14.867
	l-33.612-0.464l-24.172-0.001c-0.355-3.204-0.927-6.415-1.393-9.607c-1.33-4.896-2.015-10.102-2.98-15.088
	C174.159,893.631,172.391,885.417,171.191,877.136z"/>
<path style="fill:#274B7F;" d="M171.191,877.136c9.803,0.835,19.872,0.458,29.709,0.312l0.372,0.069
	c-0.286,4.831,0.507,10.001,0.876,14.834c0.867,11.337,2.093,22.82,2.148,34.191l-24.172-0.001
	c-0.355-3.204-0.927-6.415-1.393-9.607c-1.33-4.896-2.015-10.102-2.98-15.088C174.159,893.631,172.391,885.417,171.191,877.136z"/>
<path style="fill:#FEFEFE;" d="M445.345,862.225c4.351-0.848,8.639-1.143,13.062-1.362c1.604,2.655,2.787,5.577,4.434,8.176
	c1.704-0.77,3.49-1.474,5.061-2.493c0.962,2.554,2.161,5.206,2.893,7.825c3.604,8.976,7.163,17.97,10.676,26.981
	c-62.353,0.98-124.68,4.734-186.958,7.728c-6.244,0.3-52.762,3.828-54.798,3.059c1.544-11.411,2.957-22.871,5.219-34.166
	l0.215-0.309c12.492,0.419,25.073-0.383,37.55-0.994c17.663-0.839,35.318-1.799,52.967-2.882c19.709-1.113,39.395-2.556,59.056-4.33
	c13.111-1.099,26.353-1.703,39.214-4.6c3.692,5.825,11.755,21.79,16.078,25.259l0.578-0.497
	C451.092,883.997,446.635,868.459,445.345,862.225z"/>
<path style="fill:#EA5740;" d="M372.253,258.941c10.553,9.075,18.637,10.684,31.886,13.332c0.027,0.868-0.023,1.602,0.286,2.422
	c4.357-0.408,8.21-1.132,12.292-2.748l1.877-0.955c5.922-3.095,10.179-6.973,14.55-11.994c5.058,1.565,10.067,5.703,14.666,8.383
	c4.16,2.424,8.532,4.517,12.88,6.58c31.494,14.948,64.385,29.878,98.092,39.042c-4.588,5.674-9.467,11.31-13.567,17.344
	l-1.414,2.026c-9.446,13.705-13.684,22.845-14.362,39.677c0.035,10.073,1.067,20.048,2.448,30.02
	c-16.399,9.652-44.125,26.942-61.962,31.615c-4.662,1.221-9.636,1.771-14.365,0.591c-12.578-3.139-18.317-21.336-29.994-27.965
	l-0.996,0.417c-11.169,25.691-10.632,62.137-9.001,89.752c-3.745-0.045-7.525,0.013-11.262-0.203
	c-7.609-1.243-15.616-1.273-23.326-2.426c-21.909-3.278-41.362-11.249-61.201-20.758l-0.414-0.231l-1.73-1.115
	c-2.343-1.165-4.715-2.267-7.117-3.306c-5.157-2.683-10.054-5.831-14.993-8.889c10.319-8.351,24.52-21.034,30.428-32.827
	c4.792-9.566,3.115-20.633-0.201-30.381c-1.731-4.941-2.708-10.323-4.126-15.378c-1.768-6.305-3.968-12.467-6.219-18.611
	c-12.932,5.992-40.241,23.508-51.623,32.539c-12.162,8.843-21.204,21.17-31.783,31.629c-0.775,0.766-1.535,1.113-2.572,1.432
	c-6.508-2.94-12.427-6.439-18.373-10.358c-1.123-1.095-1.693-1.415-2.066-2.967c2.029-7.658,11.756-19.742,16.384-26.32
	c7.766-11.662,20.951-28.344,31.345-37.416c7.809-6.815,17.779-11.888,26.668-17.163c21.488-12.751,43.5-25.489,66.114-36.14
	l3.552-1.364c4.642-1.083,9.141-1.988,13.222-4.571c1.347-5.625,2.568-11.276,3.664-16.955L372.253,258.941z"/>
<path style="fill:#C03D2D;" d="M424.57,406.728c-3.513,0.141-6.692-0.728-9.956-1.929c-3.013-1.109-8.796-3.216-10.183-6.188
	l0.506-0.828c4.699-1.614,11.932-0.981,17.048-1.411c4.907-0.411,9.77-1.128,14.587-2.152c-3.103,4.758-6.954,8.173-11.006,12.091
	L424.57,406.728z"/>
<path style="fill:#C03D2D;" d="M344.191,376.304c1.208,0.815,2.156,2.22,3.248,3.23c2.605,2.407,5.444,4.852,8.329,6.908
	c4.254,3.032,22.571,11.86,24.022,14.535c-0.613,0.147-1.231,0.266-1.854,0.359c-8.149,1.157-16.841-0.991-23.355-6.045
	C348.451,390.536,345.122,383.902,344.191,376.304z"/>
<path style="fill:#FEFEFE;" d="M349.502,297.591l3.552-1.364c8.614,20.063,27.284,62.062,48.17,70.22
	c3.416,1.335,7.091,1.558,10.48,0.027c4.098-1.852,6.69-5.438,8.136-9.604c4.527-13.048-0.708-29.342-2.981-42.501l0.392-1.271
	l0.664-0.363l1.387,1.446c4.744,11.954,8.76,31.476,4.459,44.077c-1.81,5.302-5.233,10.358-10.478,12.721
	c-4.141,1.865-8.65,1.694-12.85,0.12C376.912,362.285,359.513,319.275,349.502,297.591z"/>
<path style="fill:#C03D2D;" d="M315.408,362.355c6.521-4.258,14.245-8.485,21.374-11.628c1.132,13.952,4.93,26.89,7.024,40.606
	c3.268,21.397-2.781,45.315-13.868,63.67c-3.59,5.943-7.963,11.342-12.302,16.744c-2.343-1.165-4.715-2.267-7.117-3.306
	c-5.157-2.683-10.054-5.831-14.993-8.889c10.319-8.351,24.52-21.034,30.428-32.827c4.792-9.566,3.115-20.633-0.201-30.381
	c-1.731-4.941-2.708-10.323-4.126-15.378C319.859,374.661,317.659,368.499,315.408,362.355z"/>
<path style="fill:#EA5740;" d="M372.253,258.941c10.553,9.075,18.637,10.684,31.886,13.332c0.027,0.868-0.023,1.602,0.286,2.422
	l0.284,6.876c0.723,9.211,1.361,18.427,1.915,27.649c2.591,0.38,7.816,0.583,9.694,2.52c0.351,0.362,0.663,0.927,0.933,1.358
	l-0.392,1.271c2.273,13.159,7.508,29.453,2.981,42.501c-1.446,4.166-4.038,7.752-8.136,9.604c-3.389,1.531-7.064,1.308-10.48-0.027
	c-20.886-8.158-39.556-50.157-48.17-70.22c4.642-1.083,9.141-1.988,13.222-4.571c1.347-5.625,2.568-11.276,3.664-16.955
	L372.253,258.941z"/>
<path style="fill:#E19173;" d="M372.253,258.941c10.553,9.075,18.637,10.684,31.886,13.332c0.027,0.868-0.023,1.602,0.286,2.422
	l0.284,6.876c0.723,9.211,1.361,18.427,1.915,27.649c2.591,0.38,7.816,0.583,9.694,2.52c0.351,0.362,0.663,0.927,0.933,1.358
	l-0.392,1.271c-0.995,0.086-0.749-0.047-1.481,0.341c-0.209,0.111-0.409,0.238-0.615,0.354c-8.68,4.863-18.15,4.325-27.525,1.631
	c-9.349-2.686-17.729-7.538-22.535-16.205c0.355-2.945,1.031-5.914,1.573-8.834c1.347-5.625,2.568-11.276,3.664-16.955
	L372.253,258.941z"/>
<path style="fill:#C03D2D;" d="M372.253,258.941c10.553,9.075,18.637,10.684,31.886,13.332c0.027,0.868-0.023,1.602,0.286,2.422
	l0.284,6.876c-2.625,1.933-5.961,3.007-9.188,3.301c-9.263,0.842-18.779-4.286-25.581-10.171L372.253,258.941z"/>
<path style="fill:#F9E6C6;" d="M433.144,258.998c5.058,1.565,10.067,5.703,14.666,8.383c4.16,2.424,8.532,4.517,12.88,6.58
	c31.494,14.948,64.385,29.878,98.092,39.042c-4.588,5.674-9.467,11.31-13.567,17.344l-1.414,2.026
	c-9.446,13.705-13.684,22.845-14.362,39.677c0.035,10.073,1.067,20.048,2.448,30.02c-16.399,9.652-44.125,26.942-61.962,31.615
	c-4.662,1.221-9.636,1.771-14.365,0.591c-12.578-3.139-18.317-21.336-29.994-27.965c4.052-3.918,7.903-7.333,11.006-12.091
	c14.942-17.191-8.043-50.402-8.958-70.204c-1.598-2.655-5.317-8.974-8.312-9.835l-1.387-1.446l-0.664,0.363
	c-0.27-0.431-0.582-0.996-0.933-1.358c-1.878-1.937-7.103-2.14-9.694-2.52c-0.554-9.222-1.192-18.438-1.915-27.649l-0.284-6.876
	c4.357-0.408,8.21-1.132,12.292-2.748l1.877-0.955C424.516,267.897,428.773,264.019,433.144,258.998z"/>
<path style="fill:#FEFEFE;" d="M416.717,271.947l1.877-0.955c28.811,20.44,66.247,36.811,99.183,49.413
	c9.046,3.461,18.152,7.193,27.438,9.942l-1.414,2.026c-36.12-11.269-78.289-28.602-110.547-48.245
	C427.503,280.625,421.052,277.199,416.717,271.947z"/>
<path style="fill:#F9E6C6;" d="M433.144,258.998c5.058,1.565,10.067,5.703,14.666,8.383c4.16,2.424,8.532,4.517,12.88,6.58
	c31.494,14.948,64.385,29.878,98.092,39.042c-4.588,5.674-9.467,11.31-13.567,17.344c-9.286-2.749-18.392-6.481-27.438-9.942
	c-32.936-12.602-70.372-28.973-99.183-49.413C424.516,267.897,428.773,264.019,433.144,258.998z"/>
<linearGradient id="SVGID_00000041997414666517785720000003394207724827367344_" gradientUnits="userSpaceOnUse" x1="422.2267" y1="640.231" x2="524.2653" y2="666.8278" gradientTransform="matrix(1 0 0 -1 0 1026)">
	<stop  offset="0" style="stop-color:#851D0F"/>
	<stop  offset="1" style="stop-color:#CF302B"/>
</linearGradient>
<path style="fill:url(#SVGID_00000041997414666517785720000003394207724827367344_);" d="M427.614,324.016
	c16.338,21.787,33.082,42.925,47.952,65.806c17.865-6.337,35.829-12.008,53.873-17.772c0.035,10.073,1.067,20.048,2.448,30.02
	c-16.399,9.652-44.125,26.942-61.962,31.615c-4.662,1.221-9.636,1.771-14.365,0.591c-12.578-3.139-18.317-21.336-29.994-27.965
	c4.052-3.918,7.903-7.333,11.006-12.091C451.514,377.029,428.529,343.818,427.614,324.016z"/>
<path style="fill:#F9E6C6;" d="M267.216,199.301c1.348-0.175,2.406-0.278,3.567-1.059c4.255-2.861,8.056-7.359,11.758-10.904
	c6.845-6.48,13.751-12.894,20.718-19.242c34.072-30.55,82.882-71.048,125.958-86.697c10.298-3.741,20.661-6.006,31.598-6.704
	c55.736-3.555,108.041,44.061,148.057,77.857c13.983,11.809,28.543,22.851,42.323,34.92c-0.548,3.236-0.725,6.2,1.292,9.002
	c1.831,2.544,4.677,3.815,7.701,4.183c0.854,0.102,1.71,0.19,2.567,0.264c-0.38,2.274-0.776,4.537-1.005,6.833
	c-1.743,11.278-3.42,22.726-4.227,34.114c-4.316,1.782-9.622,3.89-13.434,6.578c-4.988,0.801-11.227,4.733-15.702,7.224
	c-26.087,14.52-48.193,33.117-67.917,55.499l-1.688,1.834c-33.707-9.164-66.598-24.094-98.092-39.042
	c-4.348-2.063-8.72-4.156-12.88-6.58c-4.599-2.68-9.608-6.818-14.666-8.383l1.954-2.569c1.151-1.522,2.186-3.222,3.011-4.946
	c5.201-10.864,0.848-20.719-2.688-31.162c0.171-7.122,1.508-13.461-1.789-20.222c-4.049-8.303-12.666-10.824-20.702-13.629
	c-1.167-1.96-2.575-3.913-4.216-5.508c-6.644-6.459-16.756-7.347-25.408-5.211c-5.587,1.379-11.282,3.855-17.132,3.432
	c-8.106-0.586-15.021-5.419-23.329-5.292c-4.443,0.068-8.613,1.284-12.579,3.245c-15.991,7.905-10.359,18.009-19.022,26.603
	c-9.239,9.165-24.621-0.372-34.661-3.212C273.401,199.627,270.509,199.341,267.216,199.301z"/>
<path style="fill:#ECA932;" d="M534.466,234.189c-2.86-2.581-6.551-5.339-8.549-8.676c-0.647-1.081-0.581-0.582-0.325-1.654
	c3.477,0.29,8.349,5.688,10.977,8.046C535.865,232.646,535.078,233.372,534.466,234.189z"/>
<path style="fill:#ECA932;" d="M536.569,231.905c0.646,0.709,1.402,1.417,1.961,2.19c-0.568,0.71-1.171,1.409-1.708,2.142
	c-2.477,2.852-4.935,5.897-7.749,8.421c-1.081,0.971-2.1,1.869-3.593,1.788c-0.572-3.173,7.025-8.429,8.587-11.43
	c0.141-0.271,0.266-0.551,0.399-0.827C535.078,233.372,535.865,232.646,536.569,231.905z"/>
<path style="fill:#ECA932;" d="M536.569,231.905l0.564-0.513c2.912-2.703,5.215-7.852,9.186-8.99
	c0.959,0.302,0.963,0.114,1.526,1.031c-2.289,4.108-6.565,6.736-9.084,10.633c2.405,2.199,8.217,6.578,8.688,9.803
	c-3.094-0.17-8.312-5.596-10.627-7.632c0.537-0.733,1.14-1.432,1.708-2.142C537.971,233.322,537.215,232.614,536.569,231.905z"/>
<path style="fill:#FEFEFE;" d="M435.098,256.429c6.233,3.288,12.164,7.135,18.412,10.391c19.414,9.989,39.227,19.111,59.438,27.368
	c10.087,4.033,20.289,7.748,30.608,11.143c4.812,1.566,10.681,2.589,15.201,4.708c0.677,0.318,1.169,0.643,1.713,1.13l-1.688,1.834
	c-33.707-9.164-66.598-24.094-98.092-39.042c-4.348-2.063-8.72-4.156-12.88-6.58c-4.599-2.68-9.608-6.818-14.666-8.383
	L435.098,256.429z"/>
<path style="fill:#E19173;" d="M495.275,140.16c2.157-0.194,4.364-0.029,6.398,0.755c0.316,0.119,0.626,0.253,0.929,0.402
	c0.303,0.149,0.597,0.314,0.883,0.493c0.287,0.179,0.563,0.371,0.83,0.578c0.267,0.207,0.523,0.426,0.768,0.659
	c0.245,0.233,0.478,0.477,0.699,0.732c0.22,0.256,0.427,0.522,0.621,0.798c0.194,0.277,0.374,0.562,0.539,0.857
	c0.165,0.295,0.315,0.597,0.45,0.906c1.364,3.094,1.26,6.745-0.107,9.816c-1.751,3.936-4.615,5.954-8.505,7.507
	c-2.835,0.049-5.065-0.085-7.597-1.457c-0.371-0.197-0.731-0.412-1.079-0.646c-0.349-0.235-0.684-0.487-1.006-0.756
	c-0.322-0.269-0.629-0.555-0.922-0.857c-0.292-0.301-0.568-0.617-0.827-0.948c-0.259-0.33-0.5-0.673-0.723-1.029
	c-0.223-0.356-0.427-0.722-0.612-1.099c-0.185-0.377-0.349-0.763-0.494-1.158c-0.144-0.394-0.267-0.795-0.37-1.202
	c-0.096-0.386-0.172-0.776-0.228-1.17c-0.055-0.394-0.09-0.79-0.105-1.187c-0.015-0.398-0.01-0.795,0.017-1.192
	c0.026-0.397,0.073-0.792,0.14-1.184c0.067-0.392,0.154-0.78,0.261-1.163c0.107-0.383,0.234-0.76,0.38-1.13s0.311-0.732,0.494-1.085
	c0.183-0.353,0.384-0.696,0.603-1.028C488.79,142.277,491.749,140.932,495.275,140.16z"/>
<path style="fill:#F9E6C6;" d="M494.584,145.527c1.115-0.055,2.209-0.107,3.316,0.084c1.918,0.33,3.802,1.465,4.889,3.099
	c0.879,1.321,1.215,2.862,0.856,4.426c-0.581,2.528-2.396,3.965-4.432,5.364c-0.995,0.194-2.042,0.418-3.059,0.321
	c-0.231-0.023-0.46-0.057-0.687-0.104c-0.227-0.047-0.451-0.105-0.672-0.174c-0.221-0.07-0.438-0.151-0.651-0.243
	c-0.213-0.092-0.42-0.195-0.623-0.308c-0.202-0.113-0.398-0.237-0.587-0.371c-0.189-0.133-0.371-0.276-0.546-0.429
	c-0.175-0.153-0.341-0.314-0.499-0.483c-0.158-0.169-0.307-0.347-0.447-0.532c-1.123-1.493-1.436-3.44-1.107-5.254
	C490.834,148.164,492.355,147.021,494.584,145.527z"/>
<path style="fill:#F5C74B;" d="M657.523,241.868c8.333,3.664,35.147,18.845,40.457,24.307l1.144,0.108
	c6.284,4.857,10.953,12.69,15.891,18.884c1.194-8.677,1.36-17.688,2.148-26.43c5.138,2.688,14.693,8.132,18.736,12.023
	c7.312,25.59,10.154,52.927,12.581,79.349c0.698,7.597,0.347,18.99,1.656,25.882c0.047,3.372-0.549,14.281,0.229,16.838l0.206,0.83
	c-0.156,7.875,0.336,15.724,0.474,23.595c0.115,11.487,0.118,22.975,0.01,34.462c-0.028,5.404,0.201,10.933-0.144,16.313
	l0.263,2.222c0.271,4.536,0.823,9.397,0.186,13.903l-0.305,2.447c-0.597,1.031-1.145,2.166-1.9,3.087
	c-5.925,0.522-12.036,3.145-18.067,4.05l-3.516,0.51l-3.675,0.429l-0.25-0.067c-18.812,3.688-42.624,2.544-61.75,0.857l-1.293-0.357
	c-0.943,0.583-0.923,0.368-1.322,1.501c-1.376,3.906-3.014,8.483-5.377,11.877c-3.812,5.675-7.604,11.32-13.186,15.428
	c-4.403,3.239-16.726,6.706-18.246,8.895c-2.136-0.673-4.385-1.045-6.577-1.497c-1.159,0.669-0.498,0.515-1.847,0.357
	c-2.588-0.303-8.047-0.698-10.364,0.439l-0.182-0.905c-0.6,0.114-1.142,0.209-1.754,0.24c-2.234,0.113-7.239,0.254-8.836-1.237
	l1.591-0.638c1.127-0.144,2.182-0.479,3.274-0.785c1.295-0.308,2.561-0.707,3.837-1.089c-0.906-0.472-1.644-0.998-2.479-1.586
	c-3.948-0.287-6.71-3.482-10.625-3.606c-0.052-1.856-0.196-3.683-0.382-5.53l-0.351,0.169c-1.3-0.861-2.129-1.368-3.736-1.523
	c-0.441-9.01-1.764-17.199-7.854-24.234c0.651-1.684,1.006-3.464,1.353-5.231c-1.404-3.601-3.029-7.074-5.273-10.235
	c-2.52-5.408-3.812-10.003-4.686-15.905c-6.616-0.184-13.806-0.697-20.381-0.11c-1.019-0.126-1.754-0.301-2.687-0.732
	c-1.569-4.686-2.576-9.714-3.778-14.514c-3.545-14.073-6.494-28.269-8.849-42.589c-1.381-9.972-2.413-19.947-2.448-30.02
	c0.678-16.832,4.916-25.972,14.362-39.677l1.414-2.026c4.1-6.034,8.979-11.67,13.567-17.344l1.688-1.834
	c19.724-22.382,41.83-40.979,67.917-55.499c4.475-2.491,10.714-6.423,15.702-7.224C647.901,245.758,653.207,243.65,657.523,241.868z
	"/>
<path style="fill:#E88422;" d="M568.319,357.909c6.979,0.813,13.515,2.688,20.629,3c-0.456,3.036-0.787,6.03-0.994,9.092
	c-0.547,0.796-0.182,0.433-1.176,1.001C580.004,369.703,572.793,362.841,568.319,357.909z"/>
<path style="fill:#FEFEFE;" d="M657.523,241.868c8.333,3.664,35.147,18.845,40.457,24.307c-4.475,6.761-6.3,16.769-8.555,24.591
	c-15.638-9.133-36.173-26.727-45.336-42.32C647.901,245.758,653.207,243.65,657.523,241.868z"/>
<path style="fill:#ECA932;" d="M651.149,307.911c-11.17,19.281-31.516,58.716-25.528,81.132
	c7.407,27.728,22.246,56.232,43.547,75.894c7.671,7.081,16.762,13.202,25.826,18.379c4.212,2.406,8.639,4.795,13.213,6.443
	c3.579,1.289,13.102,2.736,15.44,4.851c-18.812,3.688-42.624,2.544-61.75,0.857l-1.293-0.357c-0.943,0.583-0.923,0.368-1.322,1.501
	c-1.376,3.906-3.014,8.483-5.377,11.877c-3.812,5.675-7.604,11.32-13.186,15.428c-4.403,3.239-16.726,6.706-18.246,8.895
	c-2.136-0.673-4.385-1.045-6.577-1.497c-1.159,0.669-0.498,0.515-1.847,0.357c-2.588-0.303-8.047-0.698-10.364,0.439l-0.182-0.905
	c-0.6,0.114-1.142,0.209-1.754,0.24c-2.234,0.113-7.239,0.254-8.836-1.237l1.591-0.638c1.127-0.144,2.182-0.479,3.274-0.785
	c1.295-0.308,2.561-0.707,3.837-1.089c-0.906-0.472-1.644-0.998-2.479-1.586c-3.948-0.287-6.71-3.482-10.625-3.606
	c-0.052-1.856-0.196-3.683-0.382-5.53l-0.351,0.169c-1.3-0.861-2.129-1.368-3.736-1.523c-0.441-9.01-1.764-17.199-7.854-24.234
	c0.651-1.684,1.006-3.464,1.353-5.231c-1.404-3.601-3.029-7.074-5.273-10.235c-2.52-5.408-3.812-10.003-4.686-15.905
	c1.287-0.156,2.154-0.302,3.339-0.881c3.673-17.764,6.859-35.74,10.252-53.572c2.256-11.859,4.867-23.639,6.781-35.561
	c0.207-3.062,0.538-6.056,0.994-9.092l0.299-0.389c1.553-1.654,3.624-2.477,5.63-3.469c1.532-1.725,10.976-6.29,13.54-7.138
	c8.622-7.298,17.544-14.467,25.455-22.545C639.942,321.17,645.258,314.277,651.149,307.911z"/>
<path style="fill:#0D1D41;" d="M610.599,486.372c9.265,3.781,39.447,8.45,50.005,8.738c-0.943,0.583-0.923,0.368-1.322,1.501
	c-1.376,3.906-3.014,8.483-5.377,11.877c-3.838-2.024-9.849-2.619-14.122-3.641c-9.547-2.282-24.368-5.756-33.15-9.463
	C608.069,492.45,609.29,489.367,610.599,486.372z"/>
<path style="fill:#223057;" d="M606.633,495.384c8.782,3.707,23.603,7.181,33.15,9.463c4.273,1.022,10.284,1.617,14.122,3.641
	c-3.812,5.675-7.604,11.32-13.186,15.428c-4.403,3.239-16.726,6.706-18.246,8.895c-2.136-0.673-4.385-1.045-6.577-1.497
	c-1.159,0.669-0.498,0.515-1.847,0.357c-2.588-0.303-8.047-0.698-10.364,0.439l-0.182-0.905c-0.6,0.114-1.142,0.209-1.754,0.24
	c-2.234,0.113-7.239,0.254-8.836-1.237l1.591-0.638c1.127-0.144,2.182-0.479,3.274-0.785c1.295-0.308,2.561-0.707,3.837-1.089
	c-0.906-0.472-1.644-0.998-2.479-1.586C601.045,515.687,602.984,505.371,606.633,495.384z"/>
<path style="fill:#ECA932;" d="M601.615,527.696c4.032,0.377,10.619,1.845,14.281,3.618c-1.159,0.669-0.498,0.515-1.847,0.357
	c-2.588-0.303-8.047-0.698-10.364,0.439l-0.182-0.905c-0.6,0.114-1.142,0.209-1.754,0.24c-2.234,0.113-7.239,0.254-8.836-1.237
	l1.591-0.638c1.127-0.144,2.182-0.479,3.274-0.785C599.073,528.477,600.339,528.078,601.615,527.696z"/>
<path style="fill:#F9E6C6;" d="M594.877,357.051c1.532-1.725,10.976-6.29,13.54-7.138c-1.704,15.533,4.395,28.012,3.706,42.887
	c-0.594,12.831-3.959,25.352-5.828,38.019c-2.67,18.089-3.276,35.924-3.164,54.185c2.483,0.313,5.13,0.44,7.468,1.368
	c-1.309,2.995-2.53,6.078-3.966,9.012c-3.649,9.987-5.588,20.303-7.497,30.726c-3.948-0.287-6.71-3.482-10.625-3.606
	c-0.052-1.856-0.196-3.683-0.382-5.53l-0.351,0.169c-1.3-0.861-2.129-1.368-3.736-1.523c-0.441-9.01-1.764-17.199-7.854-24.234
	c0.651-1.684,1.006-3.464,1.353-5.231c-1.404-3.601-3.029-7.074-5.273-10.235c-2.52-5.408-3.812-10.003-4.686-15.905
	c1.287-0.156,2.154-0.302,3.339-0.881c3.673-17.764,6.859-35.74,10.252-53.572c2.256-11.859,4.867-23.639,6.781-35.561
	c0.207-3.062,0.538-6.056,0.994-9.092l0.299-0.389C590.8,358.866,592.871,358.043,594.877,357.051z"/>
<path style="fill:#FEFEFE;" d="M594.877,357.051c0.57,1.363,0.652,1.336,0.189,2.723c-1.063,0.851-2.189,1.253-3.563,1.192
	c-0.754-0.034-1.532-0.266-2.256-0.446C590.8,358.866,592.871,358.043,594.877,357.051z"/>
<path style="fill:#010104;" d="M577.541,486.155c7.786,8.787,10.483,19.226,10.588,30.819l-0.351,0.169
	c-1.3-0.861-2.129-1.368-3.736-1.523c-0.441-9.01-1.764-17.199-7.854-24.234C576.839,489.702,577.194,487.922,577.541,486.155z"/>
<path style="fill:#F9E6C6;" d="M310.519,468.441c2.402,1.039,4.774,2.141,7.117,3.306l1.73,1.115l0.414,0.231
	c19.839,9.509,39.292,17.48,61.201,20.758c7.71,1.153,15.717,1.183,23.326,2.426c-0.25,3.243-0.423,6.518-0.827,9.744
	c-2.437,12.729-5.975,30.441-12.833,41.312l-0.299,0.827c5.691,11.121,15.987,24.468,23.146,35.14
	c2.442,3.64,6.067,8.041,7.517,12.157c1.809,5.605,7.206,11.726,11.15,16.057c5.485,10.906,12.037,21.434,18.194,31.978
	c3.297,5.647,7.087,11.384,9.41,17.509c2.857,7.53,3.313,16.438,4.844,24.355c2.705,13.991,5.792,27.925,8.693,41.878
	c1.824,8.77,3.264,17.85,5.641,26.478c3.772,14.577,6.453,29.313,9.576,44.032c1.074,5.067,1.712,12.042,3.891,16.672
	c0.22,5.209,1.705,10.616,2.64,15.764l4.497,25.567c-1.566,0.543-3.319,1.001-4.746,1.829c0.807,2.751,1.678,5.499,2.378,8.279
	c-8.163,3.49-17.75,6.422-26.384,8.516c-0.732-2.619-1.931-5.271-2.893-7.825c-1.571,1.019-3.357,1.723-5.061,2.493
	c-1.647-2.599-2.83-5.521-4.434-8.176c-4.423,0.219-8.711,0.514-13.062,1.362c1.29,6.234,5.747,21.772,5.247,27.395l-0.578,0.497
	c-4.323-3.469-12.386-19.434-16.078-25.259c-12.861,2.897-26.103,3.501-39.214,4.6c-19.661,1.774-39.347,3.217-59.056,4.33
	c-17.649,1.083-35.304,2.043-52.967,2.882c-12.477,0.611-25.058,1.413-37.55,0.994l-0.215,0.309
	c-14.536,0.125-29.124-0.297-43.662-0.456l-0.372-0.069c-9.837,0.146-19.906,0.523-29.709-0.312
	c-0.42-3.078-1.025-6.148-1.552-9.211c-0.138-0.476-0.453-0.754-0.767-1.129c-0.945-0.078-1.88-0.15-2.828-0.186
	c-0.671-0.025-0.676,0.155-1.012-0.317c-1.139-1.593-2.769-14.253-2.29-16.453l1.152-0.405c1.535-0.28,2.73-0.227,3.899-1.291
	c-1.237-2.345-10.073-9.591-12.787-12.57c-21.875-24.012-35.804-54.346-37.35-87.029c-0.703-14.838,0.717-29.183,1.407-43.956
	c3.733,0.256,7.561,0.354,11.268,0.832c0.428-8.633,0.897-17.324,1.706-25.928c5.199-0.339,10.401-0.64,15.605-0.903
	c-0.336-4.289-0.147-8.73-0.188-13.038c27.061-1.346,54.048-4.168,81.144-5.369c8.629-0.401,17.263-0.595,25.901-0.58
	c5.896,0.049,12.021,0.582,17.889,0.046c3.725-17.194,9.996-34.238,15.254-51.025c3.483-11.602,7.052-23.121,11.054-34.558
	c-0.421-3.072-5.983-10.935-7.715-14.318c-3.148-6.152-5.92-12.849-7.22-19.66c-0.613-2.327-1.109-4.601-1.329-7.003
	C279.88,505.195,293.852,488.393,310.519,468.441z"/>
<path style="fill:#FEFEFE;" d="M414.318,804.454c0.062-0.233,0.094-0.477,0.185-0.7c0.968-2.375,10.808-6.054,13.341-7.263
	l2.79,6.559c-3.242,0.633-6.324,1.145-9.627,1.33c-1.013,0.065-2.026,0.125-3.039,0.179L414.318,804.454z"/>
<path style="fill:#E88422;" d="M208.268,799.519c5.431-10.38,11.588-19.364,23.269-23.245c5.073-1.686,10.446-1.98,15.596-0.475
	c-3.099,5.021-6.218,9.172-11.017,12.692c-9.251,6.785-14.792,5.885-24.295,9.272c-1.26,0.449-1.703,0.932-2.31,2.083
	L208.268,799.519z"/>
<path style="fill:#E88422;" d="M197.958,784.218c-4.382-1.173-8.775-2.336-12.878-4.31c-9.59-4.613-19.591-15.196-22.9-25.412
	c-0.53-1.637-1.05-3.418-0.227-4.968c0.227-0.063,0.451-0.134,0.679-0.189c3.813-0.911,9.667,1.478,12.812,3.383
	c10.266,6.217,15.666,16.129,21.009,26.419c1.954,3.761,4.033,7.42,5.065,11.563l-1.05,0.811
	C199.859,789.015,198.865,786.623,197.958,784.218z"/>
<path style="fill:#F39F71;" d="M328.334,775.616c3.281-0.08,5.742,0.089,8.673,1.672c3.452,1.865,6.165,5.151,7.105,8.987
	c0.102,0.427,0.182,0.857,0.241,1.292c0.059,0.435,0.096,0.871,0.112,1.309c0.015,0.438,0.009,0.876-0.019,1.314
	c-0.027,0.437-0.077,0.873-0.148,1.306c-0.071,0.433-0.164,0.861-0.277,1.284c-0.114,0.423-0.248,0.84-0.403,1.251
	c-0.155,0.41-0.33,0.811-0.525,1.204c-0.195,0.393-0.409,0.776-0.642,1.147c-2.286,3.705-5.84,5.475-9.969,6.352
	c-3.368,0.23-6.068,0.097-9.081-1.556c-0.426-0.234-0.839-0.489-1.24-0.766c-0.4-0.276-0.785-0.571-1.156-0.886
	c-0.37-0.315-0.723-0.648-1.06-0.999c-0.337-0.351-0.655-0.718-0.955-1.101c-0.299-0.383-0.579-0.781-0.838-1.192
	c-0.259-0.411-0.497-0.835-0.714-1.27c-0.217-0.435-0.411-0.88-0.582-1.335c-0.171-0.455-0.319-0.918-0.444-1.388
	c-0.889-3.322-0.527-6.882,1.245-9.855C320.076,778.329,323.968,776.734,328.334,775.616z"/>
<path style="fill:#F9E6C6;" d="M326.567,780.571c2.272-0.222,4.58-0.092,6.86-0.051c1.594,1.03,3.172,2.04,4.394,3.518
	c1.418,1.715,2.251,4.042,1.931,6.275c-0.474,3.317-3.018,5.514-5.614,7.302c-1.847,0.46-3.829,0.955-5.736,0.568
	c-2.194-0.444-4.256-1.986-5.465-3.845c-1.46-2.244-1.881-4.99-1.322-7.593C322.299,783.562,323.915,782.251,326.567,780.571z"/>
<path style="fill:#E88422;" d="M223.892,729.628l5.95-0.109c-2.178,12.966-7.076,24.811-16.297,34.364
	c-3.498,3.624-7.551,7.007-10.305,11.253c-0.16,0.248-0.313,0.502-0.471,0.751c-1.644,2.584-2.041,5.746-2.649,8.708
	c0.099-14.075,0.357-30.537,7.904-42.857C211.788,735.592,216.829,731.356,223.892,729.628z"/>
<path style="fill:#5C7BB7;" d="M206.439,849.573l1.27-0.14c14.848,0.349,29.746,0.158,44.598,0.037
	c0.61,6.046,1.763,12.044,2.299,18.087c-2.457-0.038-5.197,0.163-7.587-0.413c-3.039-1.587-28.591-0.546-33.728-0.505
	c-4.397-0.107-8.816-0.018-13.215-0.021c-0.703-5.7-1.096-11.421-1.179-17.164L206.439,849.573z"/>
<path style="fill:#ECA932;" d="M167.767,781.485c2.277-0.031,4.544-0.073,6.797,0.314c16.094,2.761,20.324,14.219,28.673,26.039
	c-0.223-5.786-0.883-10.82-2.769-16.323l1.05-0.811c1.6,5.175,2.514,9.908,2.887,15.306c1.199-2.051,2.401-4.651,3.863-6.491
	l1.243,0.327c-1.776,3.093-4.526,6.898-4.733,10.501c0.54,2.617,0.895,5.204,1.205,7.855c9.106-8.552,20.308-15.189,33.214-14.691
	c4.67,0.18,8.987,1.335,13.464,2.602c-9.067,8.168-18.527,14.614-31.246,13.952c-4.016-0.209-11.44-1.636-15.097,0.021
	c-0.866,8.168,1.95,19.538,1.391,29.347l-1.27,0.14c0.196-13.114-1.358-26.351-2.428-39.412l-0.089-1.038
	c-2.116-2.107-11.826-2.576-15.379-4.184C178.493,800.391,171.636,791.506,167.767,781.485z"/>
<path style="fill:#274B7F;" d="M163.894,849.435l35.003,0.019c0.083,5.743,0.476,11.464,1.179,17.164
	c4.399,0.003,8.818-0.086,13.215,0.021c5.137-0.041,30.689-1.082,33.728,0.505l-1.87,10.52l-0.215,0.309
	c-14.536,0.125-29.124-0.297-43.662-0.456l-0.372-0.069c-9.837,0.146-19.906,0.523-29.709-0.312
	c-0.42-3.078-1.025-6.148-1.552-9.211c-0.138-0.476-0.453-0.754-0.767-1.129c-0.945-0.078-1.88-0.15-2.828-0.186
	c-0.671-0.025-0.676,0.155-1.012-0.317c-1.139-1.593-2.769-14.253-2.29-16.453L163.894,849.435z"/>
<path style="fill:#0D1D41;" d="M169.639,867.925l0.524-0.582c5.348-1.245,23.245-0.521,29.755-0.312
	c0.335,3.47,0.711,6.942,0.982,10.417c-9.837,0.146-19.906,0.523-29.709-0.312C170.771,874.058,170.166,870.988,169.639,867.925z"/>
<path style="fill:#0D1D41;" d="M417.968,804.559c1.013-0.054,2.026-0.114,3.039-0.179c3.303-0.185,6.385-0.697,9.627-1.33
	c1.823,3.688,5.393,9.159,4.295,13.378l0.512,1.154l0.286-1.195l0.601,0.235c2.397,10.325,4.112,20.65,6.065,31.055
	c0.899,4.783,2.409,9.737,2.952,14.548c1.29,6.234,5.747,21.772,5.247,27.395l-0.578,0.497
	c-4.323-3.469-12.386-19.434-16.078-25.259c-4.013-7.602-8.953-14.959-13.295-22.396c-6.629-11.57-13.155-23.198-19.578-34.883
	c4.569-1.844,8.261-3.08,13.255-3.125L417.968,804.559z"/>
<path style="fill:#D1D7D9;" d="M417.968,804.559c1.013-0.054,2.026-0.114,3.039-0.179c3.303-0.185,6.385-0.697,9.627-1.33
	c1.823,3.688,5.393,9.159,4.295,13.378l0.512,1.154c-0.232,0.32-0.586,0.533-0.892,0.783c-4.223-1.62-8.849-9.867-11.173-13.52
	C421.542,804.901,419.791,804.747,417.968,804.559z"/>
<path style="fill:#3D7DA1;" d="M287.642,608.624c4.668,6.401,8.116,16.163,11.729,23.411c4.131,8.286,26.058,50.526,33.636,51.299
	c0.597,0.061,1.316-0.056,1.901-0.118c-8.69,15.884-23.909,42.227-41.966,47.671c-12.392,3.737-48.327-0.344-63.1-1.368l-5.95,0.109
	c-10.37-1.878-21.068-2.327-31.567-3.049l-44.822-2.98c0.021-5.675,0.099-11.35,0.235-17.024
	c-5.797-0.467-11.599-0.852-17.407-1.154c0.428-8.633,0.897-17.324,1.706-25.928c5.199-0.339,10.401-0.64,15.605-0.903
	c-0.336-4.289-0.147-8.73-0.188-13.038c27.061-1.346,54.048-4.168,81.144-5.369c8.629-0.401,17.263-0.595,25.901-0.58
	c5.896,0.049,12.021,0.582,17.889,0.046C276.113,642.455,282.384,625.411,287.642,608.624z"/>
<path style="fill:#0D1D41;" d="M282.202,686.277l1.054,0.92c0.997,2.46,1.731,6.622,0.672,9.154
	c-0.398,0.952-0.467,1.045-1.431,1.467l-0.289-1.883c-1.715-0.97-112.296-1.307-124.333-1.281l-2.091-0.175l-0.415-0.62
	c4.791-2.012,114.046,0.019,127.546,0.123C282.777,691.398,282.498,688.846,282.202,686.277z"/>
<path style="fill:#C03D2D;" d="M147.642,678.59c0.652,8.977,0.818,18.999,0.096,27.985c-5.797-0.467-11.599-0.852-17.407-1.154
	c0.428-8.633,0.897-17.324,1.706-25.928C137.236,679.154,142.438,678.853,147.642,678.59z"/>
<path style="fill:#80ACCD;" d="M310.519,468.441c2.402,1.039,4.774,2.141,7.117,3.306l1.73,1.115l0.414,0.231
	c19.839,9.509,39.292,17.48,61.201,20.758c7.71,1.153,15.717,1.183,23.326,2.426c-0.25,3.243-0.423,6.518-0.827,9.744
	c-2.437,12.729-5.975,30.441-12.833,41.312l-0.299,0.827c5.691,11.121,15.987,24.468,23.146,35.14
	c2.442,3.64,6.067,8.041,7.517,12.157c1.809,5.605,7.206,11.726,11.15,16.057c5.485,10.906,12.037,21.434,18.194,31.978
	c3.297,5.647,7.087,11.384,9.41,17.509c2.857,7.53,3.313,16.438,4.844,24.355c2.705,13.991,5.792,27.925,8.693,41.878
	c1.824,8.77,3.264,17.85,5.641,26.478c3.772,14.577,6.453,29.313,9.576,44.032c1.074,5.067,1.712,12.042,3.891,16.672
	c0.22,5.209,1.705,10.616,2.64,15.764l4.497,25.567c-1.566,0.543-3.319,1.001-4.746,1.829c0.807,2.751,1.678,5.499,2.378,8.279
	c-8.163,3.49-17.75,6.422-26.384,8.516c-0.732-2.619-1.931-5.271-2.893-7.825c-1.571,1.019-3.357,1.723-5.061,2.493
	c-1.647-2.599-2.83-5.521-4.434-8.176c-4.423,0.219-8.711,0.514-13.062,1.362c-0.543-4.811-2.053-9.765-2.952-14.548
	c-1.953-10.405-3.668-20.73-6.065-31.055l-0.601-0.235l-0.286,1.195l-0.512-1.154c1.098-4.219-2.472-9.69-4.295-13.378l-2.79-6.559
	c-15.688-35.02-21.104-71.917-21.677-109.978c-4.05-2.646-7.784-6.027-11.531-9.093c-13.195-10.801-25.35-22.389-37.453-34.384
	c-7.694,13.262-14.215,27.089-22.275,40.18c-0.585,0.062-1.304,0.179-1.901,0.118c-7.578-0.773-29.505-43.013-33.636-51.299
	c-3.613-7.248-7.061-17.01-11.729-23.411c3.483-11.602,7.052-23.121,11.054-34.558c-0.421-3.072-5.983-10.935-7.715-14.318
	c-3.148-6.152-5.92-12.849-7.22-19.66c-0.613-2.327-1.109-4.601-1.329-7.003C279.88,505.195,293.852,488.393,310.519,468.441z"/>
<path style="fill:#274B7F;" d="M390.348,548.16c-2.465-0.881-4.981-5.173-6.521-7.275c-5.744-7.843-12.474-13.843-17.961-21.099
	c-0.812-1.075-1.292-2.288-1.12-3.64l0.74-0.342c1.448,0.368,2.725,0.838,4.014,1.607c9.848,5.872,18.553,18.888,21.147,29.922
	L390.348,548.16z"/>
<path style="fill:#C03D2D;" d="M467.902,866.546c9.057-2.589,17.982-5.919,26.899-8.97c0.807,2.751,1.678,5.499,2.378,8.279
	c-8.163,3.49-17.75,6.422-26.384,8.516C470.063,871.752,468.864,869.1,467.902,866.546z"/>
<path style="fill:#F9E6C6;" d="M436.328,816.622c4.149,4.796,9.841,20.045,13.023,26.685c2.853,5.953,6.043,11.691,9.056,17.556
	c-4.423,0.219-8.711,0.514-13.062,1.362c-0.543-4.811-2.053-9.765-2.952-14.548C440.44,837.272,438.725,826.947,436.328,816.622z"/>
<path style="fill:#3D7DA1;" d="M310.519,468.441c2.402,1.039,4.774,2.141,7.117,3.306l1.73,1.115
	c-3.045,0.094-12.756,9.719-15.006,12.113c-11.363,12.094-16.443,29.478-19.717,45.326c2.238,0,4.486,0.048,6.723-0.05
	c7.114-4.233,12.861-11.567,15.384-19.489c0.814-2.556,2.617-4.752,3.691-7.231c2.654-6.125,4.967-12.42,7.45-18.617
	c0.478-1.192,0.878-2.401,1.605-3.464c0.615,0.878,0.447,0.839,0.245,1.872c-1.648,8.443-12.36,31.465-17.54,38.981
	c-1.849,2.684-4.036,5.181-6.77,6.992c-3.541,2.346-6.58,2.894-10.735,2.915c-0.296,2.603-0.479,5.303-0.935,7.878
	c-0.613-2.327-1.109-4.601-1.329-7.003C279.88,505.195,293.852,488.393,310.519,468.441z"/>
<path style="fill:#3D7DA1;" d="M319.78,473.093c19.839,9.509,39.292,17.48,61.201,20.758c7.71,1.153,15.717,1.183,23.326,2.426
	c-0.25,3.243-0.423,6.518-0.827,9.744c-21.574,0.521-55.008-9.769-72.843-22.18C327.52,481.671,320.424,476.758,319.78,473.093z"/>
<path style="fill:#274B7F;" d="M298.696,574.066c1.494,0.769,11.769,15.74,14.227,18.844c13.906,17.56,28.277,34.401,44.26,50.126
	c-7.694,13.262-14.215,27.089-22.275,40.18c-0.585,0.062-1.304,0.179-1.901,0.118c-7.578-0.773-29.505-43.013-33.636-51.299
	c-3.613-7.248-7.061-17.01-11.729-23.411C291.125,597.022,294.694,585.503,298.696,574.066z"/>
<path style="fill:#F9E6C6;" d="M531.887,402.07c2.355,14.32,5.304,28.516,8.849,42.589c1.202,4.8,2.209,9.828,3.778,14.514
	c0.933,0.431,1.668,0.606,2.687,0.732c6.575-0.587,13.765-0.074,20.381,0.11c0.874,5.902,2.166,10.497,4.686,15.905
	c2.244,3.161,3.869,6.634,5.273,10.235c-0.347,1.767-0.702,3.547-1.353,5.231c6.09,7.035,7.413,15.224,7.854,24.234
	c1.607,0.155,2.436,0.662,3.736,1.523l0.351-0.169c0.186,1.847,0.33,3.674,0.382,5.53c3.915,0.124,6.677,3.319,10.625,3.606
	c0.835,0.588,1.573,1.114,2.479,1.586c-1.276,0.382-2.542,0.781-3.837,1.089c-1.092,0.306-2.147,0.641-3.274,0.785l-1.591,0.638
	c1.597,1.491,6.602,1.35,8.836,1.237c0.612-0.031,1.154-0.126,1.754-0.24l0.182,0.905c2.317-1.137,7.776-0.742,10.364-0.439
	c1.349,0.158,0.688,0.312,1.847-0.357c2.192,0.452,4.441,0.824,6.577,1.497c1.52-2.189,13.843-5.656,18.246-8.895
	c5.582-4.108,9.374-9.753,13.186-15.428c2.363-3.394,4.001-7.971,5.377-11.877c0.399-1.133,0.379-0.918,1.322-1.501l1.293,0.357
	c19.126,1.687,42.938,2.831,61.75-0.857l0.25,0.067l3.675-0.429l3.516-0.51c0.522,7.393-1.758,14.415-3.379,21.517
	c-2.115,7.382-4.52,14.671-6.665,22.038l-0.698,3.106c-1.542,0.387-3.057,0.725-4.662,0.589c-0.69,0.753-1.19,1.279-1.513,2.26
	c-3.07,12.399-6.603,24.658-9.955,36.982c-1.445,5.311-2.341,11.399-4.474,16.446c18.094,24.77,37.472,48.638,55.956,73.113
	c-0.477,2.172-1.245,4.268,0.204,6.235c1.627,2.209,5.77,3.149,8.341,3.792c-0.484,1.981-4.452,4.935-6.021,6.283
	c2.602,11.862,6.046,23.484,9.375,35.156c3.927,13.775,7.815,27.508,12.269,41.126c2.529,7.731,4.736,16.683,8.139,24.005
	c7.027,22.097,23.037,70.31,37.031,88.06l9.744-1.623c2.18,3.702,3.166,8.047,3.76,12.27c0.119,1.401,0.312,2.506,0.744,3.843
	c-1.743,9.003,1.313,18.8,3.086,27.62c-5.304,0.155-10.81-0.555-16.109-0.947l-29.396-2.216l-76.979-4.984
	c-1.83,6.764-2.818,13.73-4.617,20.506c-11.442-0.084-23.025,0.211-34.449-0.269c-9.143-0.362-18.393-0.106-27.55-0.134
	c-2.245-8.21-3.934-16.633-5.909-24.92c-0.165,0.078-0.321,0.179-0.495,0.235c-3.138,1.002-8.581,0.082-11.903-0.02
	c-16.249-0.417-32.501-0.698-48.754-0.844c-7.361-0.044-14.839,0.37-22.18,0.02c-0.85-0.04-1.377-0.26-2.123-0.635
	c1.954-1.818,6.192-4.259,6.927-6.845c0.201-0.707-0.322-1.006-0.722-1.533c-5.48,0.841-11.802-0.644-17.336-0.999
	c-11.23-0.722-29.105,0.901-39.849,4.997c-0.148-0.077-0.305-0.139-0.444-0.231c-5.604-3.719-12.2-24.85-13.303-31.882
	c-0.7-2.78-1.571-5.528-2.378-8.279c1.427-0.828,3.18-1.286,4.746-1.829l-4.497-25.567c-0.935-5.148-2.42-10.555-2.64-15.764
	c-2.179-4.63-2.817-11.605-3.891-16.672c-3.123-14.719-5.804-29.455-9.576-44.032c-2.377-8.628-3.817-17.708-5.641-26.478
	c-2.901-13.953-5.988-27.887-8.693-41.878c-1.531-7.917-1.987-16.825-4.844-24.355c-2.323-6.125-6.113-11.862-9.41-17.509
	c-6.157-10.544-12.709-21.072-18.194-31.978c-3.944-4.331-9.341-10.452-11.15-16.057c-1.45-4.116-5.075-8.517-7.517-12.157
	c-7.159-10.672-17.455-24.019-23.146-35.14l0.299-0.827c6.858-10.871,10.396-28.583,12.833-41.312
	c0.404-3.226,0.577-6.501,0.827-9.744c3.737,0.216,7.517,0.158,11.262,0.203c-1.631-27.615-2.168-64.061,9.001-89.752l0.996-0.417
	c11.677,6.629,17.416,24.826,29.994,27.965c4.729,1.18,9.703,0.63,14.365-0.591C487.762,429.012,515.488,411.722,531.887,402.07z"/>
<path style="fill:#E88422;" d="M686.168,791.827l-0.243,3.068l0.455,0.339c2.662-1.259,4.997-3.213,7.47-4.819
	c9.199-5.976,23.066-15.055,34.615-10.859c1.9,0.691,4.077,1.891,5.069,3.741c0.677,1.263,0.605,2.609,0.088,3.9
	c-1.393,3.472-4.787,5.564-8.128,6.862c-12.959,5.035-27.227,3.475-40.772,3.543c-0.954,7.278-1.271,15.874-3.581,22.787
	c-1.207,3.701-1.5,7.903-1.885,11.771l-1.361,0.069c0.295-3.145,2.219-8.489,0.906-11.34l-1.634-0.353
	c-14.261-3.747-31.173-8.247-40.321-20.95c-1.46-2.028-2.805-4.751-2.111-7.316c0.367-1.359,1.304-2.436,2.5-3.13
	c2.371-1.377,5.406-1.259,7.976-0.582c13.36,3.524,27.821,19.924,34.452,31.448c0.783-9.216,2.624-18.457,4.191-27.571
	c0.355-1.38,0.308-1.524,1.408-2.396l0.766,0.424L686.168,791.827z"/>
<path style="fill:#ECA932;" d="M683.854,792.435c-2.385-2.665-6.582-4.598-9.541-6.633c-9.03-6.21-21.283-15.746-25.368-26.376
	c-1.324-3.446-1.691-6.849-0.049-10.245c0.719-1.486,1.621-2.412,3.274-2.842c9.575-2.49,20.688,16.011,24.07,23.018
	c1.952,4.044,5.662,17.824,8.539,19.63c1.549-2.562,2.071-6.362,2.827-9.301c3.555-13.811,6.732-26.604,17.072-37.166
	c2.878-2.939,7.008-6.267,11.343-6.161c1.61,0.04,3.096,0.645,4.103,1.956c1.397,1.818,1.642,4.427,1.326,6.624
	c-1.268,8.806-12.012,19.59-18.756,24.735c-3.899,2.974-8.303,5.265-12.249,8.21c-1.999,4.507-2.722,9.303-4.277,13.943l-0.14-1.364
	l-0.766-0.424C684.162,790.911,684.209,791.055,683.854,792.435z"/>
<path style="fill:#FEFEFE;" d="M677.167,820.536l1.634,0.353c1.313,2.851-0.611,8.195-0.906,11.34
	c-6.949,1.117-15.038,0.321-22.106,0.261c2.049,7.6,5.132,15.269,6.404,23.027c-5.471-0.013-21.012-0.974-25.513,0.531
	c0.519,2.171,0.97,4.387,1.593,6.53c2.766,13.73,5.795,27.401,9.088,41.014c-0.165,0.078-0.321,0.179-0.495,0.235
	c-3.138,1.002-8.581,0.082-11.903-0.02c-16.249-0.417-32.501-0.698-48.754-0.844c-7.361-0.044-14.839,0.37-22.18,0.02
	c-0.85-0.04-1.377-0.26-2.123-0.635c1.954-1.818,6.192-4.259,6.927-6.845c0.201-0.707-0.322-1.006-0.722-1.533
	c-5.48,0.841-11.802-0.644-17.336-0.999c-11.23-0.722-29.105,0.901-39.849,4.997c-0.148-0.077-0.305-0.139-0.444-0.231
	c-5.604-3.719-12.2-24.85-13.303-31.882c-0.7-2.78-1.571-5.528-2.378-8.279c1.427-0.828,3.18-1.286,4.746-1.829
	c40.789-8.706,81.639-17.118,122.55-25.236c11.663-2.203,23.342-4.53,35.035-6.546C662.743,822.997,672.314,822.801,677.167,820.536
	z"/>
<path style="fill:#274B7F;" d="M631.422,832.485c8.115-0.212,16.25-0.051,24.367,0.005c2.049,7.6,5.132,15.269,6.404,23.027
	c-5.471-0.013-21.012-0.974-25.513,0.531l-0.688-0.448c-1.338-0.032-2.415-0.082-3.697-0.54
	C630.327,851.245,631.399,837.47,631.422,832.485z"/>
<path style="fill:#FEFEFE;" d="M718.494,811.802c3.703-2.237,14.155-4.139,18.971-5.583c17.47-5.238,34.688-10.594,50.54-19.833
	c7.027,22.097,23.037,70.31,37.031,88.06l9.744-1.623c2.18,3.702,3.166,8.047,3.76,12.27c0.119,1.401,0.312,2.506,0.744,3.843
	c-1.743,9.003,1.313,18.8,3.086,27.62c-5.304,0.155-10.81-0.555-16.109-0.947l-29.396-2.216l-76.979-4.984
	c-1.83,6.764-2.818,13.73-4.617,20.506c-11.442-0.084-23.025,0.211-34.449-0.269c-9.143-0.362-18.393-0.106-27.55-0.134
	c-2.245-8.21-3.934-16.633-5.909-24.92c-3.293-13.613-6.322-27.284-9.088-41.014c-0.623-2.143-1.074-4.359-1.593-6.53
	c4.501-1.505,20.042-0.544,25.513-0.531c-1.272-7.758-4.355-15.427-6.404-23.027c7.068,0.06,15.157,0.856,22.106-0.261l1.361-0.069
	c0.385-3.868,0.678-8.07,1.885-11.771c5.588-1.01,14.231-4.594,19.317-4.352C706.079,812.492,712.052,812.119,718.494,811.802z"/>
<path style="fill:#F39F71;" d="M718.494,811.802c3.232,0.869,7.805,2.239,9.76,5.166c0.083,0.122,0.158,0.249,0.225,0.38
	c0.067,0.131,0.127,0.265,0.178,0.404c0.051,0.138,0.093,0.279,0.127,0.422c0.034,0.143,0.059,0.288,0.076,0.435
	c0.016,0.146,0.023,0.293,0.022,0.44c-0.001,0.148-0.012,0.295-0.031,0.441s-0.047,0.29-0.084,0.433
	c-0.036,0.143-0.081,0.283-0.135,0.42c-1.366,3.501-6.327,6.059-9.668,7.148c-9.845,3.209-22.279,2.356-32.068-0.612
	c4.303-3.886,8.823-7.5,13.562-10.842C706.079,812.492,712.052,812.119,718.494,811.802z"/>
<path style="fill:#5C7BB7;" d="M677.895,832.229l1.361-0.069c6.139,1.372,14.15,0.441,20.485,0.419l46.088-0.222
	c-1.886,7.801-3.498,15.658-4.836,23.571c-2.776-0.063-5.975-0.478-8.671,0.209l-0.468,0.753l-1.082,6.062l-65.524-0.054
	c-8.897-0.588-18.051-0.245-26.975-0.32c-0.623-2.143-1.074-4.359-1.593-6.53c4.501-1.505,20.042-0.544,25.513-0.531
	c-1.272-7.758-4.355-15.427-6.404-23.027C662.857,832.55,670.946,833.346,677.895,832.229z"/>
<path style="fill:#0D1D41;" d="M662.193,855.517l45.871,0.128c7.347,0.025,16.01-0.826,23.183,0.545l0.607,0.7l-1.082,6.062
	l-65.524-0.054c-8.897-0.588-18.051-0.245-26.975-0.32c-0.623-2.143-1.074-4.359-1.593-6.53
	C641.181,854.543,656.722,855.504,662.193,855.517z"/>
<path style="fill:#5C7BB7;" d="M638.273,862.578c8.924,0.075,18.078-0.268,26.975,0.32l65.524,0.054
	c-4.079,15.054-7.016,30.36-10.886,45.457c-1.83,6.764-2.818,13.73-4.617,20.506c-11.442-0.084-23.025,0.211-34.449-0.269
	c-9.143-0.362-18.393-0.106-27.55-0.134c-2.245-8.21-3.934-16.633-5.909-24.92C644.068,889.979,641.039,876.308,638.273,862.578z"/>
<path style="fill:#274B7F;" d="M638.273,862.578c8.924,0.075,18.078-0.268,26.975,0.32c0.824,7.734,3.413,15.57,5.367,23.093
	c3.635,13.993,7.589,28.451,10.205,42.655c-9.143-0.362-18.393-0.106-27.55-0.134c-2.245-8.21-3.934-16.633-5.909-24.92
	C644.068,889.979,641.039,876.308,638.273,862.578z"/>
<path style="fill:#223057;" d="M727.572,494.248l3.516-0.51c0.522,7.393-1.758,14.415-3.379,21.517
	c-2.115,7.382-4.52,14.671-6.665,22.038l-0.698,3.106c-1.542,0.387-3.057,0.725-4.662,0.589c-0.69,0.753-1.19,1.279-1.513,2.26
	c-3.07,12.399-6.603,24.658-9.955,36.982c-1.445,5.311-2.341,11.399-4.474,16.446c-1.572,0.863-6.322,16.885-7.304,19.722
	c-9.409,27.18-20.507,53.66-31.953,80.031c-2.706,6.236-7.285,19.124-11.655,23.84c-5.821,6.282-29.876,19.927-38.223,24.509
	l-64.201,37.466c-18.153,10.491-36.445,20.674-53.996,32.172c-2.179-4.63-2.817-11.605-3.891-16.672
	c-3.123-14.719-5.804-29.455-9.576-44.032c13.32-10.319,25.655-22.057,38.743-32.693c6.07-4.99,12.381-9.654,18.932-13.992
	c6.552-4.337,13.31-8.326,20.273-11.966c7.583-3.987,15.248-6.835,23.455-9.231c3.318-0.969,9.525-1.772,12.169-3.26
	c-1.156-0.222-1.803-0.501-2.774-1.165c-1.212-2.427,0.17-15.549,0.295-19.15c-2.113-0.472-4.594-0.258-6.764-0.281l0.191-0.873
	c1.673-7.381,2.14-15.107,3.22-22.605l5.955-40.219c3.1-22.214,7.296-44.075,11.047-66.167c2.317-1.137,7.776-0.742,10.364-0.439
	c1.349,0.158,0.688,0.312,1.847-0.357c2.192,0.452,4.441,0.824,6.577,1.497c1.52-2.189,13.843-5.656,18.246-8.895
	c5.582-4.108,9.374-9.753,13.186-15.428c2.363-3.394,4.001-7.971,5.377-11.877c0.399-1.133,0.379-0.918,1.322-1.501l1.293,0.357
	c19.126,1.687,42.938,2.831,61.75-0.857l0.25,0.067L727.572,494.248z"/>
<path style="fill:#020613;" d="M717.623,536.066c1.288,1.41,1.581,1.136,3.421,1.227l-0.698,3.106
	c-1.542,0.387-3.057,0.725-4.662,0.589L717.623,536.066z"/>
<path style="fill:#0D1D41;" d="M723.897,494.677l3.675-0.429c-0.057,6.727-1.951,13.799-3.332,20.385
	c-1.336-0.129-2.03-0.001-3.14-0.83c-1.274-4.451,2.283-10.553,3.198-15.05c0.318-1.564,0.469-1.726-0.389-3.057L723.897,494.677z"
	/>
<path style="fill:#010104;" d="M727.572,494.248l3.516-0.51c0.522,7.393-1.758,14.415-3.379,21.517
	c-2.115,7.382-4.52,14.671-6.665,22.038c-1.84-0.091-2.133,0.183-3.421-1.227c2.59-7.068,4.832-14.12,6.617-21.433
	C725.621,508.047,727.515,500.975,727.572,494.248z"/>
<path style="fill:#010104;" d="M660.604,495.11l1.293,0.357c-0.965,4.762-2.045,8.83-4.434,13.08
	c-5.741,10.179-12.677,20.95-24.708,24.24c-3.301,0.903-6.898,1.321-10.279,0.731l-0.003-0.707
	c1.52-2.189,13.843-5.656,18.246-8.895c5.582-4.108,9.374-9.753,13.186-15.428c2.363-3.394,4.001-7.971,5.377-11.877
	C659.681,495.478,659.661,495.693,660.604,495.11z"/>
<path style="fill:#0D1D41;" d="M723.647,494.61l0.25,0.067l0.012,1.019c-1.501,2.946-4.48,15.232-4.491,18.557
	c-0.165,0.098-0.322,0.213-0.497,0.294c-5.067,2.359-55.255-4.068-61.458-6c2.389-4.25,3.469-8.318,4.434-13.08
	C681.023,497.154,704.835,498.298,723.647,494.61z"/>
<path style="fill:#F5C74B;" d="M603.685,532.11c2.317-1.137,7.776-0.742,10.364-0.439c1.349,0.158,0.688,0.312,1.847-0.357
	c2.192,0.452,4.441,0.824,6.577,1.497l0.003,0.707c-0.645,42.56,1.186,85.185,0.913,127.744c-4.004,0.135-8.896-0.243-12.778,0.542
	c-6.742,0.182-13.868,0.873-20.575,0.451c-2.113-0.472-4.594-0.258-6.764-0.281l0.191-0.873c1.673-7.381,2.14-15.107,3.22-22.605
	l5.955-40.219C595.738,576.063,599.934,554.202,603.685,532.11z"/>
<path style="fill:#0D1D41;" d="M590.036,662.255c6.707,0.422,13.833-0.269,20.575-0.451c0.813,3.894-7.195,32.117-9.884,36.382
	c-0.552,0.875-1.162,1.695-1.796,2.512l0.087,5.998c-11,4.895-24.854,13.938-35.653,20.109
	c-10.946,6.256-23.233,11.829-33.264,19.423c4.054-0.471,62.208-34.707,69.37-38.873c3.675,12.47,7.143,25.053,11.136,37.423
	l-64.201,37.466c-18.153,10.491-36.445,20.674-53.996,32.172c-2.179-4.63-2.817-11.605-3.891-16.672
	c-3.123-14.719-5.804-29.455-9.576-44.032c13.32-10.319,25.655-22.057,38.743-32.693c6.07-4.99,12.381-9.654,18.932-13.992
	c6.552-4.337,13.31-8.326,20.273-11.966c7.583-3.987,15.248-6.835,23.455-9.231c3.318-0.969,9.525-1.772,12.169-3.26
	c-1.156-0.222-1.803-0.501-2.774-1.165C588.529,678.978,589.911,665.856,590.036,662.255z"/>
<path style="fill:#EA5740;" d="M531.887,402.07c2.355,14.32,5.304,28.516,8.849,42.589c1.202,4.8,2.209,9.828,3.778,14.514
	c0.933,0.431,1.668,0.606,2.687,0.732c6.575-0.587,13.765-0.074,20.381,0.11c0.874,5.902,2.166,10.497,4.686,15.905
	c2.244,3.161,3.869,6.634,5.273,10.235c-0.347,1.767-0.702,3.547-1.353,5.231c6.09,7.035,7.413,15.224,7.854,24.234
	c1.607,0.155,2.436,0.662,3.736,1.523l0.351-0.169c0.186,1.847,0.33,3.674,0.382,5.53c3.915,0.124,6.677,3.319,10.625,3.606
	c0.835,0.588,1.573,1.114,2.479,1.586c-1.276,0.382-2.542,0.781-3.837,1.089c-1.092,0.306-2.147,0.641-3.274,0.785l-1.591,0.638
	c1.597,1.491,6.602,1.35,8.836,1.237c0.612-0.031,1.154-0.126,1.754-0.24l0.182,0.905c-3.751,22.092-7.947,43.953-11.047,66.167
	l-5.955,40.219c-1.08,7.498-1.547,15.224-3.22,22.605l-0.191,0.873c2.17,0.023,4.651-0.191,6.764,0.281
	c-0.125,3.601-1.507,16.723-0.295,19.15c0.971,0.664,1.618,0.943,2.774,1.165c-2.644,1.488-8.851,2.291-12.169,3.26
	c-8.207,2.396-15.872,5.244-23.455,9.231c-6.963,3.64-13.721,7.629-20.273,11.967c-6.551,4.337-12.862,9.001-18.932,13.991
	c-13.088,10.636-25.423,22.374-38.743,32.693c-2.377-8.628-3.817-17.708-5.641-26.478c-2.901-13.953-5.988-27.887-8.693-41.878
	c-1.531-7.917-1.987-16.825-4.844-24.355c-2.323-6.125-6.113-11.862-9.41-17.509c-6.157-10.544-12.709-21.072-18.194-31.978
	c-3.944-4.331-9.341-10.452-11.15-16.057c-1.45-4.116-5.075-8.517-7.517-12.157c-7.159-10.672-17.455-24.019-23.146-35.14
	l0.299-0.827c6.858-10.871,10.396-28.583,12.833-41.312c0.404-3.226,0.577-6.501,0.827-9.744c3.737,0.216,7.517,0.158,11.262,0.203
	c-1.631-27.615-2.168-64.061,9.001-89.752l0.996-0.417c11.677,6.629,17.416,24.826,29.994,27.965
	c4.729,1.18,9.703,0.63,14.365-0.591C487.762,429.012,515.488,411.722,531.887,402.07z"/>
<path style="fill:#020613;" d="M584.042,515.62c1.607,0.155,2.436,0.662,3.736,1.523l0.351-0.169c0.186,1.847,0.33,3.674,0.382,5.53
	l-2.808-0.567c-1.248-1.067-1.176-1.162-1.488-2.795L584.042,515.62z"/>
<path style="fill:#010104;" d="M574.958,495.625c1.371,7.024,1.563,12.877,0.838,19.959c-0.801,8.065-1.797,16.107-2.988,24.124
	l-4.717-1.634c1.634-7.178,2.268-14.658,3.716-21.904c0.673-5.816,0.839-11.461,0.473-17.304
	C572.918,497.627,574.015,496.647,574.958,495.625z"/>
<path style="fill:#F9E6C6;" d="M576.188,491.386c6.09,7.035,7.413,15.224,7.854,24.234l0.173,3.522l-0.38,1.322
	c-2.473,0.394-5.504-0.646-7.478-2.164c-0.706-0.542-0.506-1.856-0.561-2.716c0.725-7.082,0.533-12.935-0.838-19.959
	C575.28,494.145,575.67,492.81,576.188,491.386z"/>
<path style="fill:#010104;" d="M540.315,478.725c-0.32,1.592-0.866,3.402-0.754,5.016c-7.229,2.995-13.712,7.481-18.52,13.728
	c-2.778,4.192-4.15,9.399-5.675,14.155l-5.37-1.738c1.657-4.7,3.926-8.94,6.404-13.251
	C522.715,487.645,530.331,482.951,540.315,478.725z"/>
<path style="fill:#F9E6C6;" d="M521.041,497.469c4.808-6.247,11.291-10.733,18.52-13.728c2.486,6.602,6.292,12.212,12.985,15.195
	c5.084,2.265,11.931,3.062,17.199,1.074c0.867-0.327,1.705-0.733,2.535-1.144c0.366,5.843,0.2,11.488-0.473,17.304
	c-6.862-1.072-16.571-5.646-23.274-8.234C539.39,504.407,530.144,501.088,521.041,497.469z"/>
<path style="fill:#E19173;" d="M547.201,459.905c6.575-0.587,13.765-0.074,20.381,0.11c0.874,5.902,2.166,10.497,4.686,15.905
	c2.244,3.161,3.869,6.634,5.273,10.235c-0.347,1.767-0.702,3.547-1.353,5.231c-0.518,1.424-0.908,2.759-1.23,4.239
	c-0.943,1.022-2.04,2.002-2.678,3.241c-0.83,0.411-1.668,0.817-2.535,1.144c-5.268,1.988-12.115,1.191-17.199-1.074
	c-6.693-2.983-10.499-8.593-12.985-15.195c-0.112-1.614,0.434-3.424,0.754-5.016c1.963-2.007,3.306-3.988,4.332-6.602
	C545.746,468.102,546.598,464.03,547.201,459.905z"/>
<path style="fill:#D87D53;" d="M547.201,459.905c6.575-0.587,13.765-0.074,20.381,0.11c0.874,5.902,2.166,10.497,4.686,15.905
	c-2.619,0.11-5.257-0.055-7.873-0.198c-4.229-0.231-17.241-0.807-19.748-3.599C545.746,468.102,546.598,464.03,547.201,459.905z"/>
<path style="fill:#E88422;" d="M550.484,660.765c9.345-31.947,19.054-63.784,29.127-95.51c3.642-11.391,6.21-23.952,11.14-34.817
	c1.358-0.928,2.135-0.782,3.753-0.868l-1.591,0.638c1.597,1.491,6.602,1.35,8.836,1.237c0.612-0.031,1.154-0.126,1.754-0.24
	l0.182,0.905c-3.751,22.092-7.947,43.953-11.047,66.167l-5.955,40.219c-1.08,7.498-1.547,15.224-3.22,22.605l-0.191,0.873
	C572.335,661.781,561.405,661.378,550.484,660.765z"/>
<path style="fill:#F9E6C6;" d="M432.161,611.514c18.351,8.266,37.177,15.437,55.679,23.355
	c14.295,6.277,28.696,12.297,43.205,18.062c6.428,2.617,12.874,5.598,19.439,7.834c10.921,0.613,21.851,1.016,32.788,1.209
	c2.17,0.023,4.651-0.191,6.764,0.281c-0.125,3.601-1.507,16.723-0.295,19.15c0.971,0.664,1.618,0.943,2.774,1.165
	c-2.644,1.488-8.851,2.291-12.169,3.26c-8.207,2.396-15.872,5.244-23.455,9.231c-6.963,3.64-13.721,7.629-20.273,11.967
	c-6.551,4.337-12.862,9.001-18.932,13.991c-13.088,10.636-25.423,22.374-38.743,32.693c-2.377-8.628-3.817-17.708-5.641-26.478
	c-2.901-13.953-5.988-27.887-8.693-41.878c-1.531-7.917-1.987-16.825-4.844-24.355c-2.323-6.125-6.113-11.862-9.41-17.509
	C444.198,632.948,437.646,622.42,432.161,611.514z"/>
<path style="fill:#F9E6C6;" d="M531.887,402.07c2.355,14.32,5.304,28.516,8.849,42.589c1.202,4.8,2.209,9.828,3.778,14.514
	c0.933,0.431,1.668,0.606,2.687,0.732c-0.603,4.125-1.455,8.197-2.554,12.218c-1.026,2.614-2.369,4.595-4.332,6.602
	c-9.984,4.226-17.6,8.92-23.915,17.91c-11.897-4.653-23.863-9.119-35.9-13.398l-44.057,82.754
	c-5.197,9.661-9.389,20.327-15.432,29.466c-1.45-4.116-5.075-8.517-7.517-12.157c-7.159-10.672-17.455-24.019-23.146-35.14
	l0.299-0.827c6.858-10.871,10.396-28.583,12.833-41.312c0.404-3.226,0.577-6.501,0.827-9.744c3.737,0.216,7.517,0.158,11.262,0.203
	c-1.631-27.615-2.168-64.061,9.001-89.752l0.996-0.417c11.677,6.629,17.416,24.826,29.994,27.965
	c4.729,1.18,9.703,0.63,14.365-0.591C487.762,429.012,515.488,411.722,531.887,402.07z"/>
</svg>
