<?xml version="1.0" standalone="no"?>
<!DOCTYPE svg PUBLIC "-//W3C//DTD SVG 20010904//EN"
 "http://www.w3.org/TR/2001/REC-SVG-20010904/DTD/svg10.dtd">
<svg version="1.0" xmlns="http://www.w3.org/2000/svg"
 width="162.000000pt" height="78.000000pt" viewBox="0 0 162.000000 78.000000"
 preserveAspectRatio="xMidYMid meet">

<g transform="translate(0.000000,78.000000) scale(0.100000,-0.100000)"
fill="#000000" stroke="none">
<path d="M353 551 c-69 -32 -107 -115 -84 -184 6 -18 27 -49 46 -67 30 -29 43
-34 92 -38 48 -3 64 0 93 20 19 13 43 39 52 58 66 131 -67 272 -199 211z m133
-30 c17 -10 39 -35 48 -56 54 -112 -82 -232 -184 -163 -44 30 -60 61 -60 117
0 37 5 49 39 82 33 33 45 39 82 39 25 0 57 -8 75 -19z"/>
<path d="M380 477 c-35 -18 -48 -61 -29 -95 18 -33 69 -50 105 -33 32 14 22
32 -14 25 -16 -3 -35 1 -47 10 -19 14 -16 15 38 16 52 0 57 2 57 23 0 28 -9
41 -37 56 -28 14 -42 14 -73 -2z m70 -32 c11 -13 7 -15 -30 -15 -37 0 -41 2
-30 15 7 8 20 15 30 15 10 0 23 -7 30 -15z"/>
<path d="M760 440 c0 -93 1 -100 20 -100 17 0 20 7 20 44 0 48 22 81 47 72 8
-3 17 -6 19 -6 2 0 4 -25 4 -55 0 -48 2 -55 20 -55 18 0 20 7 20 60 0 52 -3
62 -25 76 -16 11 -34 14 -55 9 -28 -6 -30 -5 -30 24 0 24 -4 31 -20 31 -19 0
-20 -7 -20 -100z"/>
<path d="M619 471 c-31 -26 -17 -52 35 -65 46 -12 41 -31 -9 -31 -50 0 -57
-22 -10 -31 60 -11 114 26 86 60 -7 8 -28 17 -47 21 -46 8 -39 31 10 28 25 -2
36 2 36 11 0 31 -67 35 -101 7z"/>
<path d="M977 470 c-60 -47 -15 -139 62 -126 46 7 65 28 65 71 0 43 -19 64
-65 71 -26 4 -41 0 -62 -16z m77 -26 c9 -8 16 -22 16 -29 0 -17 -27 -45 -44
-45 -32 0 -48 54 -24 78 16 16 33 15 52 -4z"/>
<path d="M1140 389 c0 -92 1 -99 20 -99 15 0 20 7 20 29 0 28 2 29 33 24 47
-7 81 23 81 72 0 53 -28 74 -99 73 l-55 -1 0 -98z m106 50 c19 -22 13 -43 -18
-63 -34 -21 -66 42 -36 72 17 17 32 15 54 -9z"/>
<path d="M1339 471 c-31 -26 -17 -52 35 -65 46 -12 41 -31 -9 -31 -50 0 -57
-22 -10 -31 60 -11 114 26 86 60 -7 8 -28 17 -47 21 -46 8 -39 31 10 28 25 -2
36 2 36 11 0 31 -67 35 -101 7z"/>
<path d="M182 246 c-34 -35 -62 -71 -62 -79 0 -18 32 -47 51 -47 8 0 43 29 79
65 l64 65 -29 30 c-16 16 -32 30 -35 30 -4 0 -35 -29 -68 -64z"/>
</g>
</svg>
