<?xml version="1.0" encoding="utf-8"?>
<!-- Generator: Adobe Illustrator 27.5.0, SVG Export Plug-In . SVG Version: 6.00 Build 0)  -->
<svg version="1.1" id="Ñëîé_1" xmlns="http://www.w3.org/2000/svg" xmlns:xlink="http://www.w3.org/1999/xlink" x="0px" y="0px"
	 viewBox="0 0 4000 4000" style="enable-background:new 0 0 4000 4000;" xml:space="preserve">

<g>
	<path style="fill:#4C3926;" d="M2256.961,3154.317c0,0,69.237,49.065,134.253,68.265s89.502,31.999,96.257,47.999
		s-36.307,54.398-132.564,49.065c-96.256-5.333-146.918-34.132-157.05-29.866c-10.132,4.266-50.661,7.467-75.992,0
		c-25.331-7.467-22.798-135.463-22.798-135.463H2256.961z"/>
	<path style="fill:#9B7349;" d="M2325.689,1825.29c0,0,27.745,596.249,30.592,695.447c2.847,99.197-98.476,633.581-98.476,633.581
		H2153.95l35.463-979.171c0,0,14.836-385.33,16.284-384.66c1.448,0.671,49.448-115.592,49.448-115.592L2325.689,1825.29z"/>
	<path style="fill:#BA8E5A;" d="M1954.219,1769.85c0,0-16.887,97.979-10.132,181.856c6.755,83.876,47.284,518.913,48.973,539.095
		c1.689,20.182-13.51,165.942-6.755,361.036c6.755,195.094,25.331,363.278,25.331,363.278h163.805c0,0-10.132-468.674,0-607.707
		s47.284-710.86,47.284-779.255C2222.724,1759.759,1954.219,1769.85,1954.219,1769.85z"/>
	<path style="fill:#664E33;" d="M2175.44,3215.115c0,0,69.237,49.065,134.253,68.265c65.015,19.199,89.502,31.999,96.256,47.999
		c6.755,16-36.307,54.398-132.564,49.065c-96.257-5.333-146.918-34.133-157.05-29.866s-50.661,7.467-75.992,0
		c-25.331-7.466-22.798-135.463-22.798-135.463H2175.44z"/>
	<path style="fill:#877F7C;" d="M1923.036,1142.648c0,0-222.016,179.116-293.943,292.622
		c-71.927,113.505-65.38,396.195-15.21,425.144c50.17,28.949,135.457-170.917,135.457-170.917l193.272-361.838L1923.036,1142.648z"
		/>
	<g>
		<path style="fill:#FCC79F;" d="M2944.551,1038.832c0,0,183.901-88.437,198.394-93.871c14.493-5.435,32.609,8.152,4.529,22.645
			c-28.08,14.493-72.466,42.573-72.466,42.573s31.704,67.031,18.116,91.488c-13.587,24.457-125.909,30.798-125.909,30.798
			L2944.551,1038.832z"/>
		<path style="fill:#877F7C;" d="M2247.775,1065.296c0,0,375.229,75.493,421.124,70.577
			c45.895-4.917,234.305-102.068,265.707-100.595c31.402,1.473,48.311,90.606,38.648,113.674
			c-9.662,23.068-214.128,121.435-306.771,134.13c-92.643,12.695-255.734,19.74-255.734,19.74s-7.139,84.539-2.518,253.446
			c4.622,168.906,15.619,278.493,0.412,294.87c-15.207,16.377-486.304,7.603-485.015,0c1.289-7.603-9.905-667.516,9.404-698.471
			c19.309-30.955,173.182-91.586,173.182-91.586L2247.775,1065.296z"/>
		<path style="fill:#BABABA;" d="M2410.75,1302.822c0,0-34.129-25.327-214.387-25.829c-180.258-0.502-273.71,43.57-273.71,43.57
			l-1.033,121.692c0,0,94.485-38.226,269.308-37.682c174.823,0.544,215.787,26.823,215.787,26.823L2410.75,1302.822z"/>
		<path style="fill:#EABD8C;" d="M2075.148,1073.87c0,0,18.252,82.449,114.27,83.656c96.017,1.208,87.576-86.423,87.576-86.423
			s-38.101-8.387-45.024-45.223c-6.923-36.837-6.923-36.837-6.923-36.837l-96.017-3.019c0,0,4.227,35.025-13.285,56.161
			C2098.232,1063.322,2075.148,1073.87,2075.148,1073.87z"/>
		<path style="fill:#FFD9AB;" d="M2061.779,897.133l-17.918,1.005c-14.502,0.813-26.717-6.711-27.284-16.807l-2.388-42.581
			c-0.566-10.096,10.562-21.95,25.064-22.764l17.918-1.005c14.502-0.813,26.718,6.711,27.284,16.807l2.557,45.592
			C2087.579,887.476,2076.281,896.319,2061.779,897.133L2061.779,897.133z"/>
		<path style="fill:#FFD9AB;" d="M2301.383,731.087l9.271,165.296c3.396,60.545-45.067,112.499-108.244,116.043l-22.343,1.253
			c-63.178,3.544-117.147-42.665-120.543-103.21l-7.206-128.468l-2.402-42.823c-3.396-60.545,45.067-112.499,108.244-116.043
			l22.343-1.253c63.178-3.544,117.147,42.665,120.543,103.21L2301.383,731.087z"/>
		<path style="fill:#60423A;" d="M2269.607,800.151c0.525,9.37-5.714,17.339-13.936,17.8c-8.222,0.461-15.314-6.76-15.839-16.13
			c-0.525-9.37,5.714-17.339,13.936-17.8C2261.99,783.56,2269.081,790.782,2269.607,800.151z"/>
		<path style="fill:#60423A;" d="M2140.747,807.38c0.525,9.37-5.714,17.339-13.936,17.8c-8.222,0.461-15.314-6.76-15.839-16.13
			c-0.525-9.37,5.714-17.339,13.936-17.8C2133.129,790.788,2140.221,798.01,2140.747,807.38z"/>
		<path style="opacity:0.35;fill:#F76D52;" d="M2190.079,806.476c8.014,0.466,12.619,14.447,20.735,47.682
			c8.116,33.234,7.983,37.062,2.175,38.777c-5.808,1.715-35.629,6.861-37.166,2.085c-1.537-4.776,1.047-63.965,4.907-75.643
			C2184.59,807.699,2190.079,806.476,2190.079,806.476z"/>
		<path style="fill:#BF874F;" d="M2083.022,767.964c2.525,0.482,34.828-41.615,59.663-38.492
			c24.834,3.122,25.518,21.491,12.691,28.115c-12.826,6.624-53.325,27.651-63.292,23.347
			C2082.119,776.631,2083.022,767.964,2083.022,767.964z"/>
		<path style="fill:#BF874F;" d="M2298.885,755.857c-2.456,0.761-39.264-37.459-63.594-31.579
			c-24.33,5.88-22.954,24.21-9.467,29.358c13.487,5.148,56.083,21.514,65.505,16.123
			C2300.751,764.368,2298.885,755.857,2298.885,755.857z"/>
		<path style="fill:#E0A35F;" d="M2222.227,640.844c0,0,6.723,53.804-33.711,75.985c-40.434,22.181-77.14,11.736-77.14,11.736
			s12.283-3.93,16.77-6.498c4.487-2.567,3.533-11.312,3.533-11.312s-28.007,12.563-34.859,22.502
			c-6.852,9.939-6.75,20.011-6.75,20.011s-21.458,5.481-24.59-0.826c-3.132-6.307-7.525-18.57-7.525-18.57s0.707,41.235,1.178,57.88
			c0.47,16.645-11.72,34.871-7.535,43.435c4.185,8.564,9.241,16.153,9.241,16.153s-38.725,3.098-53.352-9.974
			c-14.626-13.072-16.093-22.715-16.093-22.715l-1.714,14.22c0,0-23.362-8.646-23.272-51.718
			c0.09-43.072,16.423-70.384,16.423-70.384s-19.656-8.622-21.55-21.019c-1.894-12.397-0.984-17.542-0.984-17.542
			s7.326,11.629,15.584,10.24c8.258-1.389,19.117-30.71,38.212-53.546c19.095-22.836,31.218-37.872,51.297-43.166
			c20.079-5.294,35.546-1.994,35.546-1.994s-7.546-10.691,1.039-22.75c8.585-12.059,18.892-18.194,18.892-18.194
			s-5.302,12.801-3.119,18.698c2.183,5.898,32.116,11.165,47.35,10.311c15.234-0.855,34.144,14.293,34.144,14.293
			s19.483-15.912,62.295-3.957c42.812,11.954,65.161,80.164,65.77,115.787s-3.028,45.089,0.976,50.422s11.593,0.276,11.593,0.276
			s2.904,10.488-8.046,13.418c-10.95,2.93-10.95,2.93-10.95,2.93s-6.259,45.271-11,51.557c-4.741,6.286-10.182,0.108-8.577-20.821
			c1.604-20.929-4.648-58.088-6.188-60.781c-1.54-2.692-50.25-9.609-61.385-45.869
			C2222.596,652.801,2222.227,640.844,2222.227,640.844z"/>
		<path style="fill:#8E513C;" d="M2265.645,743.917c-49.572,6.949-67.335,38.023-67.335,38.023l-1.055,0.07l-17.555,1.164
			l-1.055,0.07c0,0-21.712-28.455-71.768-28.795c-50.056-0.34-81.192,25.52-81.192,25.52l5.975,16.076l5.156-1.969
			c0,0,17.598,58.042,31.81,66.832c17.67,10.928,88.353,7.002,96.62-6.41c7.527-12.211,14.271-55.246,14.271-55.246l1.243-0.083
			l17.555-1.164l1.243-0.083c0,0,12.37,41.767,21.444,52.877c9.966,12.202,80.549,6.757,96.621-6.409
			c12.927-10.59,22.703-70.448,22.703-70.448l5.371,1.271l3.799-16.725C2349.496,758.488,2315.217,736.968,2265.645,743.917z
			 M2166.829,798.67c-0.269,4.492-5.128,42.234-10.915,48.922c-5.787,6.688-73.244,11.57-81.018,5.375
			c-7.774-6.196-29.514-60.68-28.265-67.474c1.248-6.794,25.202-18.551,60.877-18.681c35.675-0.13,58.032,20.961,59.455,25.341
			C2166.963,792.154,2167.097,794.178,2166.829,798.67z M2310.358,837.347c-6.888,7.168-74.398,11.24-81.018,5.375
			c-6.62-5.865-16.422-42.635-17.281-47.052c-0.859-4.417-0.994-6.442-0.994-6.442c0.833-4.529,20.207-28.389,55.587-32.972
			c35.38-4.584,60.677,3.906,62.812,10.476C2331.599,773.301,2317.247,830.18,2310.358,837.347z"/>
		<g>
			<path style="fill:#B25230;" d="M2152.5,912.353l88.771-4.979c0,0,3.343,33.75-5.326,44.679
				c-8.669,10.929-26.659,15.999-45.986,12.732c-19.328-3.267-29.597-10.523-33.767-27.983
				C2152.022,919.341,2152.5,912.353,2152.5,912.353z"/>
			<path style="fill:#FEFEFE;" d="M2156.743,915.595l81.253-4.557c0,0-2.837,11.472-5.856,14.542
				c-3.019,3.07-61.59,3.455-61.59,3.455s-8.707-0.092-10.958-4.027C2157.341,921.073,2156.743,915.595,2156.743,915.595z"/>
			<path style="fill:#DD5454;" d="M2175.19,954.88c0,0,11.642-9.645,28.542-8.272c16.901,1.372,25.932,7.247,25.932,7.247
				s-10.654,9.155-29.546,8.474c-18.893-0.681-26.277-5.633-26.277-5.633L2175.19,954.88z"/>
		</g>
		<path style="fill:#BABABA;" d="M2290.618,1073.786c0,0,13.084,95.819-87.009,96.725c-100.093,0.906-115.613-34.874-128.461-57.52
			c-12.847-22.645-15.335-32.534-15.335-32.534l-20.513,9.104c0,0,32.059,66.91,63.763,83.215
			c31.704,16.305,106.434,25.693,153.536,5.6c47.103-20.093,49.82-64.478,51.632-76.707c1.812-12.229,0-24.437,0-24.437
			L2290.618,1073.786z"/>
		<path style="fill:#BABABA;" d="M2910.933,1040.614c0,0,18.691,7.611,30.467,51.996c11.775,44.385,5.363,77.785,5.363,77.785
			l-15.024,8.91c0,0,4.227-45.933-6.643-83.071c-10.87-37.139-30.098-49.913-30.098-49.913L2910.933,1040.614z"/>
		<path style="fill:#BABABA;" d="M2873.014,1055.027c0,0,25.359,10.685,32.606,54.932c7.246,44.247,3.525,81.652,3.525,81.652
			l-16.044,8.214c0,0,0.743-59.206-6.957-87.739c-7.7-28.533-31.46-49.408-31.46-49.408L2873.014,1055.027z"/>
	</g>
	<g>
		<g>
			<g>
				<path style="fill:#A09C20;" d="M1293.701,1725.308l-219.327-29.59l0.97-7.191c0.185-1.373,19.771-137.082,128.18-122.456
					c108.41,14.626,91.331,150.673,91.146,152.046L1293.701,1725.308z M1090.957,1683.311l190.036,25.638
					c1.939-26.747,2.369-117.464-79.408-128.497C1119.656,1569.4,1096.136,1657.003,1090.957,1683.311z"/>
			</g>
			
				<rect x="856.952" y="1667.921" transform="matrix(0.991 0.1337 -0.1337 0.991 261.4669 -132.3747)" style="fill:#DBE24B;" width="518.817" height="425.41"/>
			<polygon style="fill:#C1C130;" points="1401.879,1704.514 1466.599,1713.246 1437.286,2138.555 1345.001,2126.105 			"/>
			<g>
				<path style="fill:#C1C130;" d="M1244.981,1718.735l-219.327-29.59l0.97-7.191c0.185-1.373,19.771-137.082,128.18-122.456
					c108.41,14.626,91.331,150.673,91.146,152.046L1244.981,1718.735z M1042.237,1676.738l190.036,25.638
					c1.939-26.747,2.369-117.464-79.408-128.497C1070.937,1562.827,1047.417,1650.431,1042.237,1676.738z"/>
			</g>
			
				<rect x="867.239" y="1773.827" transform="matrix(0.991 0.1337 -0.1337 0.991 251.3644 -134.4348)" style="fill:#FFFF80;" width="518.817" height="61.097"/>
		</g>
		<g>
			<g>
				<path style="fill:#B73737;" d="M1254.069,1737.942l-162.028-1.305l0.066-8.235c0.013-1.572,2.192-157.157,82.28-156.512
					c80.088,0.645,79.761,156.245,79.748,157.817L1254.069,1737.942z M1102.991,1720.256l140.389,1.131
					c-0.967-30.384-8.713-132.541-69.125-133.027C1113.73,1587.872,1104.418,1689.893,1102.991,1720.256z"/>
			</g>
			<g>
				<path style="fill:#B73737;" d="M1295.024,1737.899l-162.028-1.305l0.066-8.234c0.013-1.572,2.192-157.158,82.28-156.513
					c80.088,0.645,79.761,156.245,79.748,157.818L1295.024,1737.899z M1143.945,1720.212l140.389,1.131
					c-0.967-30.384-8.712-132.541-69.125-133.027C1154.685,1587.828,1145.372,1689.849,1143.945,1720.212z"/>
			</g>
			<polygon style="fill:#E85252;" points="1322.008,1724.034 1178.667,1724.034 1035.327,1724.034 1003.474,2166.821 
				1178.667,2166.821 1353.861,2166.821 			"/>
			<polygon style="fill:#B73737;" points="1322.008,1724.034 1374.338,1724.034 1435.77,2166.821 1353.861,2166.821 			"/>
			<polygon style="fill:#FFBBBB;" points="1033.274,1752.578 1324.061,1752.578 1326.896,1791.984 1030.439,1791.984 			"/>
			<polygon style="fill:#FFBBBB;" points="1026.632,1844.903 1330.703,1844.903 1333.384,1892.654 1023.197,1892.654 			"/>
			<polygon style="fill:#FFBBBB;" points="1018.379,1959.618 1338.955,1959.618 1342.009,2002.063 1015.326,2002.063 			"/>
			<polygon style="fill:#FFBBBB;" points="1011.336,2057.52 1345.998,2057.52 1349.453,2105.543 1007.882,2105.543 			"/>
		</g>
		<g>
			<g>
				<path style="fill:#618CC9;" d="M2244.713,1840.482c0.136-1.329,14.765-132.749,119.716-122.045
					c104.951,10.704,92.749,142.371,92.614,143.7l-0.71,6.962l-212.33-21.655L2244.713,1840.482z M2363.01,1732.359
					c-79.168-8.074-99.198,77.089-103.405,102.607l183.973,18.763C2444.647,1827.893,2442.324,1740.448,2363.01,1732.359z"/>
			</g>
			
				<rect x="2125.144" y="1827.902" transform="matrix(-0.9948 -0.1015 0.1015 -0.9948 4532.0986 4296.5679)" style="fill:#7CA2E5;" width="500.338" height="410.258"/>
			<polygon style="fill:#618CC9;" points="2147.247,1803.578 2084.592,1797.188 2016.281,2202.607 2105.622,2211.719 			"/>
			<g>
				<path style="fill:#7CA2E5;" d="M2291.879,1845.292c0.136-1.329,14.765-132.749,119.716-122.045
					c104.951,10.703,92.749,142.371,92.614,143.7l-0.71,6.961l-212.33-21.655L2291.879,1845.292z M2410.175,1737.17
					c-79.168-8.074-99.198,77.089-103.404,102.607l183.973,18.763C2491.813,1832.703,2489.489,1745.259,2410.175,1737.17z"/>
			</g>
			
				<rect x="2132.672" y="1929.752" transform="matrix(-0.9948 -0.1015 0.1015 -0.9948 4554.605 4150.0771)" style="fill:#A0DBF2;" width="500.339" height="58.921"/>
		</g>
		<g>
			<g>
				<path style="fill:#A09C20;" d="M2316.7,1880.027c-0.511-1.234-49.938-123.881,47.543-164.215
					c97.481-40.334,149.162,81.379,149.673,82.614l2.676,6.466l-197.216,81.601L2316.7,1880.027z M2369.594,1728.744
					c-73.533,30.426-50.792,114.905-42.397,139.367l170.878-70.704C2486.766,1774.153,2443.262,1698.262,2369.594,1728.744z"/>
			</g>
			
				<rect x="2272.809" y="1782.512" transform="matrix(-0.924 0.3823 -0.3823 -0.924 5614.2119 2859.6555)" style="fill:#DBE24B;" width="500.339" height="410.258"/>
			<polygon style="fill:#C1C130;" points="2213.388,1893.745 2155.193,1917.824 2287.261,2307.168 2370.243,2272.833 			"/>
			<g>
				<path style="fill:#C1C130;" d="M2360.508,1861.901c-0.511-1.234-49.938-123.881,47.543-164.215
					c97.48-40.334,149.162,81.379,149.673,82.614l2.676,6.466l-197.216,81.602L2360.508,1861.901z M2413.402,1710.618
					c-73.533,30.425-50.792,114.905-42.397,139.367l170.878-70.704C2530.574,1756.026,2487.07,1680.136,2413.402,1710.618z"/>
			</g>
			
				<rect x="2244.439" y="1889.617" transform="matrix(-0.924 0.3823 -0.3823 -0.924 5533.4146 2738.583)" style="fill:#FFFF80;" width="500.339" height="58.921"/>
		</g>
		<g>
			<g>
				<path style="fill:#B73737;" d="M2357.35,1880.852c-0.399-1.463-39.022-146.466,35.494-166.789
					c74.516-20.324,114.862,124.209,115.261,125.672l2.09,7.661l-150.755,41.118L2357.35,1880.852z M2397.023,1729.385
					c-56.209,15.331-38.275,112.49-31.694,141.059l130.622-35.626C2487.143,1806.859,2453.337,1714.026,2397.023,1729.385z"/>
			</g>
			<g>
				<path style="fill:#B73737;" d="M2319.153,1890.897c-0.399-1.463-39.022-146.466,35.494-166.79
					c74.516-20.324,114.863,124.209,115.261,125.672l2.09,7.661l-150.755,41.118L2319.153,1890.897z M2358.826,1739.431
					c-56.21,15.331-38.275,112.49-31.694,141.059l130.622-35.627C2448.947,1816.904,2415.14,1724.071,2358.826,1739.431z"/>
			</g>
			<polygon style="fill:#E85252;" points="2292.668,1892.276 2426.32,1856.977 2559.972,1821.678 2698.714,2226.693 
				2535.361,2269.836 2372.009,2312.979 			"/>
			<polygon style="fill:#B73737;" points="2292.668,1892.276 2243.875,1905.163 2295.636,2333.15 2372.009,2312.979 			"/>
			<polygon style="fill:#FFBBBB;" points="2568.916,1847.787 2297.783,1919.397 2304.844,1956.838 2581.264,1883.832 			"/>
			<polygon style="fill:#FFBBBB;" points="2597.845,1932.236 2314.326,2007.117 2323.585,2052.301 2612.807,1975.914 			"/>
			<polygon style="fill:#FFBBBB;" points="2633.79,2037.166 2334.881,2116.111 2342.487,2156.439 2647.089,2075.99 			"/>
			<polygon style="fill:#FFBBBB;" points="2664.466,2126.716 2352.424,2209.13 2361.028,2254.758 2679.513,2170.642 			"/>
		</g>
		<path style="fill:#65A6BA;" d="M1977.397,1918.425c0,0,78.645,61.097,33.746,369.721c-45.72,314.274-61.103,392.023-67.55,410.574
			c-6.448,18.552,8.949,150.352-12.547,267.767c-21.495,117.415-42.943,223.408-55.083,228.504
			c-12.14,5.095-80.792-114.318-81.98-141.674c-1.188-27.356,1.467-146.965,2.031-245.409
			c0.565-98.443,15.382-146.841,25.046-313.989c9.664-167.148,8.857-358.965,8.857-358.965l-25.153-2.283l16.043-207.445
			L1977.397,1918.425z"/>
		<path style="fill:#81C7E2;" d="M1590.584,1919.24c0,0-58.591,70.507-18.918,274.156c39.673,203.65,90.161,419.729,91,439.039
			c0.839,19.31-30.301,81.68-66.384,252.903c-36.083,171.224-1.081,322.989,11.782,326.895c12.863,3.906,71.944,0.347,84.033-13.572
			c12.089-13.919,20.468-163.266,45.024-283.91c27.778-136.477,59.288-212.293,64.011-270.538
			c4.724-58.246-14.404-509.27-14.404-509.27l18.035-2.272c0,0,21.121-79.793,24.951-146.928c3.83-67.136-3.334-76.746-3.334-76.746
			L1590.584,1919.24z"/>
		<path style="fill:#FCC79F;" d="M1275.517,1527.965c0.886-1.25-33.074-30.251-56.746-29.223
			c-23.671,1.028-83.37,33.643-94.146,69.045c-10.776,35.402-12.053,48.012,14.25,55.057c26.302,7.045,55.218,11.247,66.983,9.099
			c11.765-2.149,16.368-53.658,38.722-53.537c22.353,0.121,48.095,25.749,48.095,25.749l19.508-54.886L1275.517,1527.965z"/>
		<path style="fill:#FCC79F;" d="M2284.507,1669.078c0,0,72.031-11.591,97.737-4.246c25.706,7.346,77.169,51.049,80.316,67.837
			c3.147,16.788-37.17,34.859-59.388,38.242c-22.218,3.383-53.327-3.124-45.274-12.54s36.826-17.315,17.155-23.714
			c-19.672-6.399-78.141,11.252-102.85-0.973C2247.493,1721.459,2284.507,1669.078,2284.507,1669.078z"/>
		<path style="fill:#FCC79F;" d="M1600.469,1395.357c0,0,25.058-53.19,83.524-62.017c58.467-8.828,71.412-11.344,73.812-24.98
			c2.4-13.636,73.261,10.491,73.261,10.491l58.843-1.731c0,0,71.951,11.463,92.23,37.783c20.278,26.319,24.863,48.373,24.863,48.373
			s-97.081,34.639-207.354,34.852c-110.273,0.213-198.25-21.353-198.25-21.353L1600.469,1395.357z"/>
		<path style="fill:#C66696;" d="M2017.58,1402.816c0,0,66.395,261.399,74.923,261.85c8.528,0.451,42.366-20.9,86.661-27.279
			c44.295-6.38,77.964,18.556,86.814,22.616c8.85,4.06,14.834-29.21,21.257-11.595c6.423,17.615,30.954,85.839,20.664,92.821
			c-10.29,6.981-18.152,0.408-27.132,8.485c-8.979,8.077-37.822,47.969-119.919,50.461c-102.271,3.104-121.836,12.349-134.704-9.541
			s-75.402-165.484-78.032-194.942c-2.63-29.457,4.439-140.432,4.439-140.432L2017.58,1402.816z"/>
		<path style="fill:#3F5B4E;" d="M1578.233,3073.5c0,0,138.736,7.769,143.327,9.091c4.591,1.322-7.787,20.885-10.775,25.035
			s-1.06,23.979-1.06,23.979l-1.598,11.104c0,0,5.965,69.301,7.105,72.456c1.14,3.155,46.465,75.825,64.589,110.468
			s22.689,63.839,52.121,69.745c29.432,5.906,34.913,6.585,37.762,14.473c2.849,7.887,2.929,35.021-6.072,42.194
			c-9.001,7.173-125.088-5.701-130.926-9.438c-5.837-3.737-21.981-74.299-35.935-88.083c-13.954-13.783-51.79-38.813-51.79-38.813
			l1.91,117.698l-17.734-2.197c0,0-12.031-88.061-14.881-95.948c-2.849-7.887-19.222-15.943-22.471-48.743
			c-3.249-32.8,14.966-48.626,15.781-59.826c0.815-11.201-17.518-27.787-21.507-38.829c-3.989-11.042-0.826-21.952-1.326-29.548
			c-0.501-7.596-3.206-10.945-6.375-16.612c-3.169-5.667-10.647-20.155-10.647-20.155l6.437-14.271c0,0,11.528-5.353,4.482-6.226
			c-7.047-0.873-8.08-4.768-14.237-6.284c-6.157-1.516-4.026-16.321-3.6-19.282C1561.241,3072.526,1578.233,3073.5,1578.233,3073.5z
			"/>
		<path style="fill:#3F5B4E;" d="M1788.691,3020.346c0,0,137.858,10.462,142.373,11.876c4.516,1.415-8.665,20.799-11.822,24.905
			c-3.157,4.105-2.1,24.032-2.1,24.032l-2.075,11.107c0,0,2.925,69.629,3.923,72.816c0.998,3.186,42.983,76.952,59.529,112.05
			c16.546,35.098,19.822,64.471,48.882,70.962c29.06,6.491,34.49,7.277,36.985,15.244c2.495,7.966,1.394,35.185-7.885,42.206
			c-9.278,7.021-124.353-8.125-130.005-11.986c-5.652-3.861-18.661-74.95-31.961-89.045c-13.3-14.094-49.899-39.929-49.899-39.929
			l-3.221,118.096l-17.569-2.545c0,0-8.151-88.563-10.646-96.529s-18.453-16.362-20.261-49.325
			c-1.809-32.963,17.025-48.487,18.324-59.707c1.3-11.219-16.24-28.209-19.733-39.362c-3.493-11.153,0.133-22.035-0.035-29.664
			c-0.168-7.629-2.717-11.041-5.627-16.786c-2.91-5.745-9.728-20.421-9.728-20.421l7.033-14.191c0,0,11.716-5.147,4.735-6.159
			c-6.981-1.011-7.84-4.938-13.907-6.577c-6.067-1.639-3.3-16.449-2.747-19.41
			C1771.807,3019.041,1788.691,3020.346,1788.691,3020.346z"/>
		<path style="fill:#4C3E37;" d="M1857.351,861.107c0,0-83.524-71.609-197.753,36.871c-114.229,108.48-6.333,313.945-6.333,313.945
			l329.446-20.426c0,0,42.297-135.509-4.203-256.498C1932.007,814.009,1857.351,861.107,1857.351,861.107z"/>
		<path style="fill:#FCC79F;" d="M1889.91,1317.12c0,0-27.569-17.829-32.489-31.86c-4.92-14.031-10.008-56.735-10.008-56.735
			l-83.279-8.476c0,0,0.818,83.54-11.551,103.147c-12.369,19.607-29.135,28.097-29.135,28.097s84.536,105.188,166.004,80.113
			c81.468-25.075,19.487-95.439,19.487-95.439L1889.91,1317.12z"/>
		<path style="fill:#E5AB83;" d="M1853.909,1271.116c0,0-38.787,6.732-61.399-9.252c-22.612-15.983-28.565-21.826-28.565-21.826
			l0.188-19.99l84.538,15.634L1853.909,1271.116z"/>
		<path style="fill:#FCC79F;" d="M1913.756,957.465c0,0,13.529,149.33,7.916,197.64c-5.613,48.31-57.147,92.888-100.639,95.905
			c-43.492,3.016-113.44-55.24-118.963-131.999c-5.523-76.759-4.369-103.424-4.369-103.424L1913.756,957.465z"/>
		<path style="opacity:0.37;fill:#BC633B;" d="M1853.41,1125.344c-6.029-7.392-10.566-14.804-13.012-23.666
			c-2.282-8.267-0.563-16.192-1.031-24.546c-0.013-0.222-0.399-0.226-0.502-0.037c-4.993,9.157-3.224,22.693-0.378,31.773
			c1.744,5.561,4.295,10.956,7.708,15.903c2.832,4.104,14.462,19.195-0.487,19.435c-1.629,0.026-2.367,1.763-0.81,2.338
			c4.793,1.77,10.095-0.279,12.677-4.211C1861.48,1136.384,1857.235,1130.035,1853.41,1125.344z"/>
		<path style="fill:#A82F2C;" d="M1805.357,1173.973c5.595,11.397,17.707,18.468,30.509,16.557
			c6.225-0.929,12.051-3.861,16.836-7.899c5.215-4.4,8.026-9.846,12.003-15.172c0.554-0.741,1.868-0.205,1.68,0.728
			c-2.784,13.756-18.429,24.995-31.887,26.161c-13.278,1.15-27.717-6.119-32.217-19.12
			C1801.578,1173.197,1804.417,1172.058,1805.357,1173.973z"/>
		<path style="fill:#3F4C4C;" d="M1765.65,1085.105c0.815,6.84,7.021,11.725,13.861,10.91c6.84-0.815,11.725-7.021,10.91-13.861
			c-0.815-6.84-7.021-11.725-13.861-10.91C1769.719,1072.059,1764.834,1078.265,1765.65,1085.105z"/>
		<path style="fill:#3F4C4C;" d="M1866.536,1073.085c0.815,6.84,7.021,11.725,13.861,10.91c6.84-0.815,11.725-7.021,10.91-13.861
			c-0.815-6.84-7.021-11.725-13.861-10.91C1870.605,1060.039,1865.721,1066.245,1866.536,1073.085z"/>
		<path style="fill:#FFFFFF;" d="M1769.112,1082.581c0.216,1.814,1.862,3.109,3.675,2.893c1.814-0.216,3.109-1.861,2.893-3.675
			c-0.216-1.813-1.862-3.109-3.675-2.893C1770.191,1079.122,1768.896,1080.767,1769.112,1082.581z"/>
		<path style="fill:#FFFFFF;" d="M1869.54,1070.615c0.216,1.813,1.862,3.109,3.675,2.893c1.814-0.216,3.109-1.862,2.893-3.675
			c-0.216-1.814-1.861-3.109-3.675-2.893C1870.62,1067.156,1869.324,1068.802,1869.54,1070.615z"/>
		<path style="fill:#604524;" d="M1880.709,1034.73c-36.168,6.459-48.342,29.739-48.342,29.739l-0.772,0.08l-12.844,1.337
			l-0.772,0.08c0,0-16.707-20.273-53.431-19.147c-36.723,1.126-58.85,20.949-58.85,20.949l4.825,11.627l3.727-1.586
			c0,0,14.503,42.088,25.169,48.144c13.261,7.53,64.996,2.707,70.691-7.357c5.185-9.163,8.949-40.913,8.949-40.913l0.909-0.095
			l12.844-1.337l0.91-0.095c0,0,10.221,30.295,17.182,38.194c7.645,8.676,59.265,2.742,70.691-7.357
			c9.19-8.123,14.715-52.295,14.715-52.295l3.974,0.784l2.327-12.371C1942.611,1043.112,1916.877,1028.27,1880.709,1034.73z
			 M1809.737,1077.605c-0.073,3.302-2.6,31.118-6.661,36.183c-4.061,5.065-53.403,10.5-59.276,6.169
			c-5.873-4.33-23.316-43.695-22.587-48.712c0.729-5.017,17.975-14.3,44.138-15.375c26.163-1.076,43.141,13.779,44.305,16.952
			C1809.656,1072.822,1809.81,1074.303,1809.737,1077.605z M1916.073,1102.028c-4.855,5.447-54.259,10.289-59.276,6.169
			c-5.016-4.12-13.217-30.82-13.969-34.036c-0.752-3.216-0.906-4.697-0.906-4.697c0.486-3.345,14.041-21.377,39.865-25.712
			c25.824-4.335,44.611,1.197,46.358,5.957C1929.891,1054.469,1920.928,1096.581,1916.073,1102.028z"/>
		<path style="fill:#4C3E37;" d="M1904.667,901.058c0,0,21.111,68.135-0.886,101.614c-21.998,33.48-39.003,33.882-39.003,33.882
			s13.115-19.428,12.77-29.132c-0.344-9.704-2.385-20.018-2.385-20.018s-28.839,57.845-77.491,65.266
			c-48.652,7.421-65.259-9.278-65.259-9.278s24.88,4.344,41.923-2.559c17.043-6.903,21.503-17.179,21.503-17.179
			s-40.873,11.366-64.189,13.332c-23.316,1.966-38.873-5.925-38.873-5.925s-26.586-107.274,34.492-153.531
			c61.078-46.257,118.504-14.119,118.504-14.119s22.76-6.633,38.033,5.689C1899.08,881.422,1904.667,901.058,1904.667,901.058z"/>
		<polygon style="fill:#604524;" points="1705.699,1067.769 1670.069,1066.868 1670.673,1071.942 1710.524,1079.396 		"/>
		<path style="fill:#775B4F;" d="M1842.453,1005.477c11.268-14.623,17.736-32.131,18.266-50.621
			c0.546-19.094-6.359-35.11-15.144-51.583c-0.161-0.302,0.288-0.498,0.489-0.278c25.905,28.468,20.02,75.011-3.284,102.74
			C1842.608,1005.938,1842.289,1005.689,1842.453,1005.477z"/>
		<path style="fill:#775B4F;" d="M1849.44,867.28c0.017-0.67,0.05-1.339,0.036-2.009c-0.045-2.164-0.378-3.575-0.138-4.932
			c-11.122-8.755-27.238-10.366-41.005-10.727c-17.75-0.465-35.44,3.434-51.763,10.274c-0.477,0.2-0.751-0.509-0.3-0.735
			c17.274-8.664,36.036-12.899,55.376-12.65c14.479,0.187,36.241,1.732,45.705,14.605c22.656-1.032,39.185,19.911,50.819,37.046
			c15.254,22.465,23.971,47.03,27.372,73.827c0.034,0.267-0.369,0.312-0.413,0.049c-3.984-23.615-13.298-47.36-26.323-67.423
			c-11.422-17.595-29.37-39.535-52.755-36.908c0.067,0.907,0.088,1.829,0.09,2.751c0.839,1.089,0.673,2.578-0.119,3.632
			c-0.034,0.501-0.069,1.001-0.114,1.483c22.895,0.839,39.173,17.547,49.919,36.665c12.381,22.027,20.562,46.531,26.417,71.037
			c6.338,26.523,9.453,53.678,11.175,80.857c1.658,26.175,3.851,53.462,1.867,79.653c-0.076,1.004-1.669,0.96-1.76-0.028
			c-2.255-24.299-0.83-49.054-2.282-73.446c-1.42-23.84-4.054-47.668-8.804-71.087c-4.877-24.047-12.199-47.338-22.87-69.456
			c-9.589-19.875-23.674-43.165-46.709-47.287c45.18,19.066,65.686,83.464,37.54,124.376c-0.639,0.929-2.121,0.008-1.674-1
			c10.432-23.48,14.105-49.106,4.128-73.498c-7.38-18.045-20.892-30.62-36.974-40.081c-0.046,0.015-0.091,0.023-0.136,0.036
			c11.883,6.967,21.938,19.536,27.248,30.713c8.72,18.356,9.841,42.383-0.104,60.491c-0.412,0.75-1.475,0.285-1.213-0.528
			c6.365-19.791,8.107-39.655-1.145-58.957c-4.084-8.52-9.853-16.241-16.897-22.539c-6.16-5.508-13.407-8.79-20.227-13.199
			c-0.344,1.123-0.727,2.263-1.154,3.402c24.431,21.549,30.928,62.83,22.492,92.785c-8.162,28.985-33.336,58.776-64.254,64.37
			c-0.802,0.145-0.979-0.976-0.338-1.306c13.908-7.151,26.401-14.027,37.153-25.709c10.174-11.054,18.121-24.348,22.079-38.898
			c4.08-14.999,3.901-30.813,0.02-45.829c-3.823-14.791-11.765-26.454-20.522-38.385c-1.905,3.078-4.231,5.563-7.021,6.643
			c-0.12,0.046-0.238,0.072-0.355,0.092c-0.122,0.079-0.256,0.142-0.396,0.196c9.72,36.429-2.959,76.536-29.932,102.658
			c-25.566,24.759-70.369,37.358-103.482,20.45c-1.366-0.698-0.496-2.706,0.95-2.184c17.496,6.31,34.65,8.69,53.032,4.603
			c17.75-3.946,34.674-13.788,47.067-27.096c24.494-26.303,30.41-63.787,29.094-98.493c-13.336-1.337-25.998-3.656-39.61-2.424
			c-13.423,1.215-26.443,4.834-38.579,10.692c-23.155,11.175-40.208,29.434-53.221,51.288c-0.373,0.627-1.383,0.248-1.075-0.468
			c9.972-23.133,29.491-42.318,51.674-53.947c23.282-12.205,57.196-19.531,82.725-9.769c0.676-2.116,1.917-3.847,3.07-5.883
			c-9.983-3.524-18.761-5.628-29.551-6.087c-0.825-0.035-0.665-1.194,0.022-1.349c9.986-2.254,21.926-0.667,30.92,4.547
			c1.846-4.252,3.031-8.913,3.874-13.434c0.299-1.605,0.558-3.218,0.784-4.835c-35.872-11.919-73.687-11.29-108.267,5.338
			c-32.285,15.525-53.997,44.135-66.676,76.949c-0.158,0.41-0.881,0.221-0.757-0.218
			C1693.668,883.554,1779.478,840.754,1849.44,867.28z"/>
		<path style="fill:#775B4F;" d="M1755.665,1000.81c27.955-11.756,60.093-22.942,68.452-55.764c0.2-0.784,1.427-0.636,1.271,0.193
			c-6.193,32.777-40.534,48.313-69.194,56.867C1755.346,1002.359,1754.82,1001.166,1755.665,1000.81z"/>
		<path style="fill:#775B4F;" d="M1729.544,989.049c18.367-1.031,34.396-4.709,48.987-16.634c0.798-0.652,1.723,0.603,0.958,1.266
			c-13.373,11.596-31.978,19.689-49.977,17.353C1728.414,990.892,1728.399,989.113,1729.544,989.049z"/>
		<path style="fill:#775B4F;" d="M1812.96,911.85c0.543-0.084,0.601,0.699,0.098,0.826c-33.97,8.542-63.686,27.378-84.701,55.562
			c-20.687,27.745-28.025,60.243-28.743,94.263c-0.068,3.235-5.198,2.971-5.581-0.089
			C1685.037,990.575,1743.417,922.614,1812.96,911.85z"/>
		<path style="opacity:0.28;fill:#FFFFFF;" d="M1686.984,881.826c0,0,34.492,96.608,125.87,88.832
			c145.309-14.065,98.285-84.045,98.285-84.045s9.083,13.796,14.099,27.778c5.016,13.981,7.981,23.777,7.981,23.777
			s-12.063,49.696-120.331,53.557c-108.268,3.86-155.372-62.601-155.372-62.601s5.058-16.847,14.152-28.308
			C1680.764,889.353,1686.984,881.826,1686.984,881.826z"/>
		<path style="fill:#775B4F;" d="M1645.749,935.67c5.096-12,12.672-21.999,19.405-33.004c0.506-0.828-0.81-1.719-1.409-0.954
			c-14.446,18.439-24.482,43.615-30.596,66.123c-6.892,25.371-10.337,52.353-9.691,78.638c0.695,28.279,5.999,56.255,14.368,83.234
			c8.465,27.289,19.443,56.652,35.782,80.288c1.514,2.19,5.289,0.488,4.279-2.125c-9.726-25.15-22.56-48.793-31.258-74.447
			c-9.155-27.001-15.703-54.96-18.158-83.402c-2.21-25.601-1.216-51.246,4.817-76.272
			C1636.407,960.81,1640.545,947.926,1645.749,935.67z"/>
		<path style="fill:#775B4F;" d="M1640.851,1044.812c-0.021-0.137-0.231-0.129-0.219,0.013
			c2.927,34.334,12.633,66.464,26.911,97.733c0.077,0.168,0.352,0.078,0.276-0.095
			C1654.153,1111.495,1645.805,1078.23,1640.851,1044.812z"/>
		<path style="fill:#775B4F;" d="M1718.733,1198.77c-17.415-33.049-34.318-65.248-42.178-102.143
			c-7.959-37.358-8.236-76.33-0.762-113.822c0.083-0.417-0.539-0.543-0.643-0.135c-9.752,38.368-11.131,77.947-3.636,116.924
			c6.918,35.974,20.062,73.577,44.605,101.466C1717.533,1202.665,1719.581,1200.377,1718.733,1198.77z"/>
		<path style="fill:#775B4F;" d="M1657.844,1047.201c-0.78-22.042,1.603-43.634,3.934-65.503c0.086-0.803-1.061-1.079-1.25-0.263
			c-9.263,39.951-7.875,87.662,4.153,126.88c0.136,0.442,0.893,0.312,0.816-0.162
			C1662.207,1087.825,1658.574,1067.843,1657.844,1047.201z"/>
		<path style="fill:#775B4F;" d="M1965.128,979.978c-0.158-0.62-1.069-0.289-0.932,0.32c7.434,33.197,12.389,67.724,12.138,101.793
			c-0.128,17.336-1.534,34.628-3.354,51.86c-1.761,16.671-5.805,33.206-7.018,49.885c-0.181,2.491,2.961,3.169,3.786,0.795
			c10.974-31.547,10.571-69.727,9.293-102.709C1977.7,1047.306,1973.687,1013.564,1965.128,979.978z"/>
		<path style="fill:#775B4F;" d="M1943.355,940.912c-0.289-0.845-1.585-0.401-1.312,0.45
			c10.657,33.272,18.022,67.707,20.955,102.544c2.959,35.152,0.326,69.628-2.918,104.641c-0.08,0.866,1.176,1.182,1.357,0.285
			C1975.196,1080.97,1965.56,1005.895,1943.355,940.912z"/>
		<path style="fill:#775B4F;" d="M1952.63,1057.68c-0.707,43.631-5.514,86.057-11.244,129.233c-0.416,3.134,4.311,4.196,4.858,1.021
			c7.325-42.494,8.729-87.299,7.26-130.308C1953.484,1057.056,1952.639,1057.123,1952.63,1057.68z"/>
		<path style="fill:#775B4F;" d="M1615.388,1029.13c0.998-26.754,6.713-52.546,13.684-78.291c0.181-0.67-0.901-1.065-1.161-0.407
			c-9.379,23.727-13.615,49.212-14.736,74.635c-1.149,26.084-0.118,54.624,8.577,79.476c0.177,0.507,1.039,0.375,0.958-0.19
			C1619.09,1079.085,1614.429,1054.837,1615.388,1029.13z"/>
		<path style="fill:#775B4F;" d="M1768.884,844.407c-17.856,0.291-35.217,6.089-50.749,14.691
			c-15.313,8.481-33.599,20.57-43.637,35.228c-0.087,0.127,0.043,0.32,0.191,0.218c15.626-10.829,28.212-22.584,45.699-30.909
			c15.763-7.505,32.225-12.863,48.574-18.836C1769.177,844.719,1769.11,844.404,1768.884,844.407z"/>
		<path style="fill:#DD73A3;" d="M1600.469,1395.357c0,0,131.927,32.954,249.448,24.223
			c117.521-8.732,151.412-35.591,158.914-29.872c7.502,5.719,28.38,41.079,21.665,53.46c-6.716,12.381-41.828,27.204-40.922,32
			c0.906,4.796,26.004,70.123,16.664,105.587c-9.34,35.464-53.131,59.199-57.263,119.823c-4.132,60.625,7.114,116.954,9.841,124.089
			c2.728,7.135,46.163,88.662,45.48,100.781c-0.682,12.119-64.163,53.561-175.801,43.903
			c-111.638-9.657-236.234-39.303-237.912-50.111c-1.678-10.807,97.855-102.172,101.92-208.731
			c4.065-106.56-0.915-193.384-14.555-201.254c-13.64-7.87-124.408,2.986-107.24-47.325
			C1587.877,1411.62,1600.469,1395.357,1600.469,1395.357z"/>
		<path style="fill:#C6588F;" d="M1882.05,1574.132c0,0-22.468,25.456-74.956,27.736c-52.488,2.28-65.267-36.152-65.267-36.152
			s-8.193,56.57,62.591,58.029C1875.202,1625.203,1882.05,1574.132,1882.05,1574.132z"/>
		<path style="fill:#DD73A3;" d="M1568.879,1471.681c0,0-40.028,111.749-49.629,113.375c-9.6,1.626-159.899-118.78-198.722-94.125
			c-38.823,24.655-29.852,36.355-34.679,36.565c-4.827,0.209-0.786-18.1-15.003-11.438c-14.218,6.662-34.89,59.543-28.542,66.521
			c6.348,6.978,12.957,19.989,13.114,23.608c0.157,3.62-9.864,23.398,39.869,55.087c49.733,31.689,245.561,80.001,284.65,65.005
			c39.089-14.996,106.289-222.219,106.289-222.219L1568.879,1471.681z"/>
		<path style="fill:#FCC79F;" d="M1682.773,2614.02c7.85-1.208,23.551-0.604,27.175,0c3.623,0.604,6.643-5.435,10.266-6.643
			c3.623-1.208,18.72,0,18.72,0s1.208,2.416,13.889,2.416s28.986,1.208,33.214,4.228c4.227,3.019,7.438-1.812,7.644,6.643
			c0.206,8.454,0,12.681,0,12.681s-1.231,4.831,0.092,9.662c1.322,4.831,3.738,8.454-7.132,8.454
			c-10.87,0-13.285-4.831-22.344,3.019c-9.058,7.851,5.435,10.87-16.305,9.662s-32.006-0.604-36.233-6.643
			c-4.227-6.039,3.019-4.227-4.227-6.039s-21.74-8.454-27.778-11.474c-6.039-3.019-7.851-15.701-7.851-15.701l-5.435-4.831
			c0,0-5.435-3.02,0-3.623C1671.903,2615.228,1682.773,2614.02,1682.773,2614.02z"/>
		<path style="fill:#FCC79F;" d="M1751.011,2186.472c-1.812-8.152-14.493-23.551-30.798-13.587
			c-16.305,9.964-27.175,9.058-48.914,9.964c-21.74,0.906-47.102,0.906-55.255,0.906c-8.152,0,9.058,33.516,13.587,31.704
			c4.529-1.812,28.08-11.776,28.08-11.776l24.735-3.623c0,0,11.498,5.435,24.179,5.435s11.344-5.435,22.883-1.812
			c11.538,3.623,2.48-12.682,11.538,3.623c9.058,16.305,19.022,10.106,19.928,8.223c0.906-1.882-1.812-8.223,0.906-10.035
			c2.717-1.812,11.776-2.717,11.776-2.717l7.247-8.828c0,0,3.623-2.042-4.529-4.759c-8.152-2.717-15.399-12.681-18.116-12.681
			C1755.541,2176.508,1751.011,2186.472,1751.011,2186.472z"/>
		<path style="fill:#FCC79F;" d="M1754.031,2465.465c-16.909-6.039-30.641-12.077-38.268-12.077s-6.419-4.831-12.458,0
			c-6.039,4.831-8.455,4.831-19.324,6.039c-10.87,1.208-27.778,6.039-27.778,6.039s-13.286-7.247-10.87,7.247
			c2.416,14.493,24.155,7.247,24.155,7.247s10.87-18.116,15.701-3.623c4.831,14.493,4.831,14.493,4.831,14.493h15.701l10.042-19.794
			h13.746l16.068,8.924l8.454-1.208l16.114-7.716h6.833c0,0,7.247-5.569,0-5.569S1754.031,2465.465,1754.031,2465.465z"/>
		<path style="fill:#FCC79F;" d="M1722.629,2870.065c0,0,11.381-7.247-10.01-4.831c-21.392,2.415-67.58-8.455-67.58-8.455
			s6.333,19.324,11.164,19.324c4.831,0,1.208-1.208,15.701,0c14.493,1.208,22.46,6.039,22.46,6.039s5.319-1.208,10.15,0
			c4.831,1.208,21.141-4.831,21.141-4.831l19.978-2.128l-10.926-12.365L1722.629,2870.065z"/>
		<path style="fill:#FCC79F;" d="M1966.597,2528.873c0,0-7.247-16.305-9.964-16.305c-2.718,0-7.247,8.152-10.87,8.152
			c-3.623,0-10.87,0-21.74,0c-10.87,0-8.152-8.152-22.646,0s-11.776,5.435-19.928,8.152c-8.152,2.718-11.776,0-11.776,0
			s-2.718,6.945-10.87,1.208s-9.964,2.416-9.058,6.039c0.906,3.623,3.623-2.717,14.493,0c10.87,2.718,17.21-0.906,29.892,0
			c12.682,0.906,34.421,0,34.421,0c3.623,18.116,5.435,23.552,9.964,16.305c4.529-7.247-4.529-19.928,6.341-12.682
			s16.305,7.247,16.305,7.247l5.435-7.247V2528.873z"/>
		<path style="fill:#FCC79F;" d="M1947.527,2284.301h-39.462l-36.653-21.74c0,0-2.644,18.116-15.325,21.74
			s-30.798-12.682-12.681,3.623c18.116,16.305,38.645,19.928,38.645,19.928s20.021,0,26.015,0c5.994,0,9.776,0,9.776,0
			s30.544,1.812,29.685,0c-0.858-1.812,19.07,0.805,19.07,0.805l18.117-23.048L1947.527,2284.301z"/>
		<path style="fill:#FCC79F;" d="M1942.491,2762.448c0,0-22.679-19.802-24.65-19.802s-9.776,0-9.776,0s-15.746,17.99-21.181,9.901
			c-5.435-8.089-5.582-11.712-15.473-9.901c-9.891,1.812-17.561,3.497-21.878,9.901c-4.317,6.404-18.692,9.901-18.692,9.901
			s-9.177-7.373-9.177,0c0,7.373,38.044,12.808,38.044,12.808s1.664-7.247,11.702-7.247c10.038,0,13.661,9.058,20.907,7.247
			c7.247-1.812,25.522,0.24,25.522,0.24h8.899L1942.491,2762.448z"/>
	</g>
	<path style="fill:#FFD9AB;" d="M1640.04,1849.805c0,0-39.395-43.777-4.974-75.179c34.421-31.402,94.582-15.701,106.471-14.493
		c11.889,1.208,55.369,59.784,45.103,66.427c-10.266,6.643-50.726-15.097-59.784-13.889c-9.058,1.208-57.972-2.416-66.427,7.247
		C1651.975,1829.579,1640.04,1849.805,1640.04,1849.805z"/>
</g>
</svg>
