<?xml version="1.0" encoding="utf-8"?>
<!-- Generator: Adobe Illustrator 27.5.0, SVG Export Plug-In . SVG Version: 6.00 Build 0)  -->
<svg version="1.1" id="Layer_1" xmlns="http://www.w3.org/2000/svg" xmlns:xlink="http://www.w3.org/1999/xlink" x="0px" y="0px"
	 viewBox="0 0 2000 2000" style="enable-background:new 0 0 2000 2000;" xml:space="preserve">
<path style="fill:#343534;" d="M1291.16,537.877H742.816c-52.361,0-94.959,42.598-94.959,94.958v302.888l17.767,0.849V679.095
	c0-27.568,12.378-52.244,31.877-68.761c5.765-4.887,12.148-9.066,19.03-12.387c11.849-5.745,25.154-8.967,39.208-8.967h69.808
	h85.836h123.747h240.542c49.77,0,90.125,40.345,90.125,90.115v22.483l20.323-0.972v-67.771
	C1386.118,580.475,1343.52,537.877,1291.16,537.877z"/>
<path style="fill:#343534;" d="M1365.795,1565.201c0,49.77-40.354,90.125-90.125,90.125h-258.284l-15.707,8.472
	c-0.064,0.035-0.134,0.051-0.2,0.078c-0.054,0.022-0.104,0.045-0.159,0.062c-0.192,0.059-0.387,0.099-0.585,0.099
	c-0.131,0-0.263-0.014-0.393-0.04l-43.016-8.67H755.738c-38.292,0-71-23.89-84.052-57.575l-23.829-4.803v18.518
	c0,52.361,42.598,94.96,94.959,94.96h548.344c52.36,0,94.958-42.599,94.958-94.96v-255.552l-20.323,4.096V1565.201z"/>
<path style="fill:#110F0E;" d="M742.816,1711.937h548.344c55.399,0,100.469-45.071,100.469-100.471v-256.663l-5.511,1.111v255.552
	c0,52.361-42.598,94.96-94.958,94.96H742.816c-52.361,0-94.959-42.599-94.959-94.96v-18.518l-5.511-1.111v19.629
	C642.346,1666.865,687.417,1711.937,742.816,1711.937z"/>
<path style="fill:#110F0E;" d="M647.857,935.723V632.835c0-52.36,42.598-94.958,94.959-94.958h548.344
	c52.36,0,94.958,42.598,94.958,94.958v67.771l5.511-0.263v-67.508c0-55.398-45.07-100.47-100.469-100.47H742.816
	c-55.399,0-100.47,45.071-100.47,100.47v302.624L647.857,935.723z"/>
<path style="fill:#D2E8EF;" d="M697.5,610.334c-19.499,16.517-31.877,41.193-31.877,68.761v257.477l30.006,1.435v-11.869
	c0,0,0,0,0,0v-0.003c0-0.205,0.038-0.402,0.097-0.592c0.005-0.015,0.002-0.029,0.007-0.044c0.044-0.13,0.104-0.251,0.171-0.367
	c0.011-0.02,0.024-0.037,0.036-0.056c0.376-0.603,1.045-0.988,1.771-0.927l0.022,0.001c0.002,0,0.005,0.001,0.007,0.001
	l208.513,9.812l9.53-214.946L716.531,597.947C709.649,601.268,703.265,605.447,697.5,610.334z"/>
<path style="fill:#D2E8EF;" d="M855.939,1006.829c1.866,0.056,3.946,0.128,6.165,0.221c0.313-1.293,0.505-2.635,0.557-4.015
	c0.205-5.415-1.712-10.586-5.396-14.559c-3.685-3.974-8.696-6.275-14.111-6.48l-13.001-0.491
	C830.59,987.286,833.716,1006.155,855.939,1006.829z"/>
<path style="fill:#D2E8EF;" d="M1188.783,757.533l-15.249-9.266c-8.761,2.515-15.046,10.741-14.687,20.247
	c0.052,1.38,0.244,2.722,0.557,4.015c2.219-0.094,4.299-0.165,6.165-0.222C1179.342,771.89,1185.774,764.482,1188.783,757.533z"/>
<polygon style="fill:#D2E8EF;" points="825.546,588.98 1015.065,704.155 1094.762,700.405 911.382,588.98 "/>
<path style="fill:#D2E8EF;" d="M755.738,1655.326h201.588l-285.64-57.575C684.738,1631.436,717.446,1655.326,755.738,1655.326z"/>
<path style="fill:#D2E8EF;" d="M1275.671,588.98h-240.542l174.456,106.022l114.185-5.373c0.001,0,0.001,0,0.002,0l0.025-0.001
	c0.025-0.001,0.049,0.009,0.074,0.009c0.17-0.002,0.339,0.017,0.506,0.059c0.067,0.018,0.127,0.045,0.192,0.069
	c0.082,0.03,0.167,0.048,0.246,0.089c0.041,0.022,0.071,0.055,0.11,0.079c0.061,0.038,0.116,0.079,0.173,0.124
	c0.104,0.08,0.196,0.168,0.281,0.265c0.047,0.054,0.092,0.106,0.133,0.165c0.08,0.116,0.143,0.24,0.197,0.37
	c0.018,0.043,0.05,0.078,0.065,0.122c0.005,0.015,0.003,0.03,0.007,0.045c0.059,0.189,0.097,0.386,0.097,0.59v0.001
	c0,0.002,0,0.003,0,0.005v11.866l39.917-1.908v-22.483C1365.795,629.325,1325.441,588.98,1275.671,588.98z"/>
<path style="fill:#D2E8EF;" d="M1365.795,1565.201V1360.01l-239.906,48.358l8.104,182.785c0.034,0.762-0.371,1.477-1.042,1.839
	l-115.564,62.334h258.284C1325.441,1655.326,1365.795,1614.971,1365.795,1565.201z"/>
<path style="fill:#E9F2F4;" d="M755.738,588.98c-14.053,0-27.359,3.222-39.208,8.967l199.253,121.068l0.372-8.385v0v0l0-0.009
	c0.001-0.019,0.007-0.038,0.009-0.058c0.008-0.114,0.023-0.225,0.05-0.333c0.009-0.038,0.025-0.074,0.037-0.111
	c0.027-0.088,0.057-0.175,0.095-0.257c0.02-0.042,0.045-0.08,0.067-0.12c0.041-0.073,0.083-0.145,0.132-0.211
	c0.03-0.041,0.063-0.077,0.095-0.115c0.053-0.061,0.108-0.12,0.167-0.174c0.019-0.017,0.033-0.038,0.052-0.055
	c0.02-0.017,0.044-0.028,0.065-0.044c0.064-0.05,0.131-0.095,0.201-0.136c0.042-0.025,0.084-0.051,0.127-0.073
	c0.078-0.039,0.16-0.07,0.244-0.099c0.038-0.013,0.076-0.029,0.115-0.04c0.091-0.025,0.186-0.04,0.282-0.052
	c0.037-0.004,0.072-0.013,0.109-0.016c0.016-0.001,0.03-0.005,0.046-0.006l97.016-4.565L825.546,588.98H755.738z"/>
<polygon style="fill:#E9F2F4;" points="911.382,588.98 1094.762,700.405 1209.584,695.002 1035.129,588.98 "/>
<path style="fill:#E9F2F4;" d="M1191.354,746.984l-13.001,0.491c-1.672,0.064-3.279,0.35-4.82,0.792l15.249,9.266
	C1190.628,753.269,1191.189,749.182,1191.354,746.984z"/>
<path style="fill:#C161AF;" d="M1202.43,746.566l-11.076,0.418c-0.166,2.198-0.726,6.285-2.572,10.549
	c-3.009,6.949-9.441,14.357-23.214,14.774c-1.866,0.057-3.946,0.128-6.165,0.222c0.31,1.279,0.744,2.507,1.282,3.676
	c5.6-0.382,10.967-0.586,15.225-0.715C1197.998,774.821,1201.784,753.363,1202.43,746.566z"/>
<path style="fill:#B257A5;" d="M1270.943,764.28c-0.205-5.415-2.506-10.427-6.479-14.11c-3.781-3.506-8.646-5.411-13.774-5.411
	c-0.261,0-0.523,0.005-0.785,0.015l-47.474,1.793c-0.646,6.797-4.432,28.254-26.519,28.924c-4.258,0.129-9.625,0.333-15.225,0.715
	c3.327,7.223,10.762,12.122,19.199,11.817l71.551-2.703c5.415-0.204,10.426-2.506,14.111-6.479
	C1269.231,774.866,1271.147,769.695,1270.943,764.28z"/>
<polygon style="fill:#D16DC3;" points="1309.006,704.292 1321.901,703.676 1321.901,695.401 "/>
<polygon style="fill:#C95DBF;" points="910.227,934.148 979.073,937.388 972.603,719.586 920.034,712.951 "/>
<polygon style="fill:#B74FB2;" points="979.073,937.388 1004.467,938.583 998.445,732.916 998.149,722.81 972.603,719.586 "/>
<polygon style="fill:#C161AF;" points="941.204,711.613 1000.166,719.055 1301.476,704.651 1317.03,693.927 "/>
<path style="fill:#F286D8;" d="M1240.751,876.586c-52.508,97.061,10.343,147.183-46.939,249.813
	c-56.804,101.774,97.63,164.055,100.209,244.021l131.277-26.461l-10.749-621.896C1398.458,730.447,1287.23,790.67,1240.751,876.586z
	"/>
<path style="fill:#E27AD3;" d="M1193.812,1126.398c57.282-102.63-5.569-152.752,46.939-249.813
	c46.479-85.915,157.707-146.139,173.798-154.523l-0.325-18.817l-116.269,5.558c-7.645,4.194-24.984,14.535-45.351,32.058
	c5.425,0.421,10.514,2.637,14.564,6.392c4.753,4.406,7.505,10.4,7.75,16.877c0.245,6.478-2.047,12.662-6.454,17.415
	c-4.407,4.753-10.401,7.505-16.877,7.749l-45.747,1.729c-16.126,21.676-31.191,47.913-42.26,79.199
	c-41.37,116.95,0.796,142.409-37.392,225.149c-4.629,10.03-8.952,19.236-12.942,27.813l12.465,281.162l168.31-33.925
	C1291.442,1290.454,1137.007,1228.173,1193.812,1126.398z"/>
<path style="fill:#DB71D1;" d="M1163.58,870.221c11.068-31.285,26.134-57.523,42.26-79.199l-25.804,0.975
	c-0.31,0.012-0.62,0.018-0.927,0.018c-12.962,0-23.744-10.289-24.237-23.35c-0.505-13.37,9.961-24.659,23.332-25.164l71.551-2.702
	c0.958-0.037,1.908-0.011,2.85,0.062c20.366-17.523,37.705-27.864,45.351-32.058l-103.618,4.953
	c-13.877,10.126-71.682,56.553-96.79,143.736c-10.274,35.673-12.46,62.337-11.847,84.914l17.759,0.836
	c0.017,0.001,0.032,0.006,0.048,0.007c0.031,0.003,0.061,0.009,0.092,0.013c0.103,0.012,0.203,0.029,0.3,0.056
	c0.034,0.009,0.066,0.023,0.1,0.034c0.089,0.03,0.175,0.063,0.257,0.105c0.042,0.021,0.082,0.045,0.122,0.069
	c0.071,0.042,0.139,0.087,0.204,0.138c0.021,0.016,0.045,0.027,0.065,0.044c0.02,0.017,0.034,0.038,0.053,0.055
	c0.059,0.054,0.114,0.112,0.166,0.172c0.033,0.039,0.066,0.076,0.096,0.116c0.049,0.066,0.091,0.137,0.131,0.21
	c0.023,0.041,0.048,0.08,0.068,0.122c0.038,0.081,0.067,0.167,0.094,0.253c0.012,0.039,0.029,0.075,0.038,0.114
	c0.026,0.107,0.041,0.218,0.049,0.331c0.001,0.02,0.008,0.039,0.009,0.059l0,0.009v0v0l7.893,178.033
	c3.99-8.576,8.313-17.782,12.942-27.813C1164.375,1012.63,1122.209,987.171,1163.58,870.221z"/>
<path style="fill:#B257A5;" d="M1097.547,857.492c25.109-87.183,82.913-133.609,96.79-143.736l-192.204,9.188l6.319,215.827
	l77.247,3.635C1085.087,919.829,1087.272,893.165,1097.547,857.492z"/>
<path style="fill:#510F45;" d="M1249.754,740.799l-71.551,2.702c-13.37,0.505-23.837,11.794-23.332,25.164
	c0.493,13.061,11.274,23.35,24.237,23.35c0.307,0,0.617-0.006,0.927-0.018l25.804-0.975l45.747-1.729
	c6.477-0.244,12.471-2.996,16.877-7.749c4.407-4.753,6.699-10.938,6.454-17.415c-0.245-6.477-2.997-12.471-7.75-16.877
	c-4.05-3.755-9.14-5.971-14.564-6.392C1251.663,740.788,1250.712,740.762,1249.754,740.799z M1179.885,788.023
	c-8.437,0.305-15.872-4.594-19.199-11.817c-0.539-1.169-0.973-2.397-1.282-3.676c-0.313-1.293-0.505-2.635-0.557-4.015
	c-0.359-9.506,5.926-17.732,14.687-20.247c1.54-0.442,3.148-0.728,4.82-0.792l13.001-0.491l11.076-0.418l47.474-1.793
	c0.262-0.01,0.524-0.015,0.785-0.015c5.128,0,9.993,1.905,13.774,5.411c3.974,3.684,6.275,8.695,6.479,14.11
	c0.204,5.415-1.712,10.586-5.396,14.56c-3.685,3.974-8.696,6.275-14.111,6.479L1179.885,788.023z"/>
<path style="fill:#C161AF;" d="M845.597,1010.011c4.258,0.129,9.625,0.333,15.226,0.715c0.538-1.169,0.972-2.397,1.282-3.676
	c-2.219-0.094-4.299-0.165-6.165-0.221c-22.223-0.674-25.349-19.543-25.786-25.323l-11.076-0.419
	C819.724,987.885,823.51,1009.341,845.597,1010.011z"/>
<path style="fill:#B257A5;" d="M755.961,1013.36c3.684,3.974,8.696,6.275,14.111,6.479l71.552,2.703
	c8.435,0.315,15.872-4.59,19.2-11.817c-5.601-0.382-10.968-0.586-15.226-0.715c-22.086-0.669-25.873-22.126-26.519-28.923
	l-47.474-1.794c-0.263-0.01-0.524-0.015-0.785-0.015c-5.128,0-9.993,1.905-13.774,5.411c-3.974,3.685-6.275,8.695-6.479,14.111
	C750.36,1004.217,752.277,1009.387,755.961,1013.36z"/>
<polygon style="fill:#D16DC3;" points="712.502,938.813 699.607,929.921 699.607,938.196 "/>
<polygon style="fill:#C95DBF;" points="1101.474,947.471 1048.905,954.106 1031.35,1545.073 1129.742,1590.202 1129.964,1590.082 
	"/>
<polygon style="fill:#B74FB2;" points="1048.905,954.106 1023.359,957.331 1023.063,967.436 1006.484,1533.668 1031.35,1545.073 "/>
<polygon style="fill:#994299;" points="1006.484,1533.668 1002.825,1658.66 1129.742,1590.202 1031.35,1545.073 "/>
<polygon style="fill:#C161AF;" points="704.478,928.448 720.032,939.172 1021.343,953.575 1080.304,946.134 "/>
<path style="fill:#F286D8;" d="M827.696,1360.919c-57.282-102.63,5.569-152.751-46.939-249.813
	c-46.479-85.916-157.707-146.139-173.798-154.523l-10.749,621.896l131.277,26.461C730.066,1524.974,884.5,1462.693,827.696,1360.919
	z"/>
<path style="fill:#E27AD3;" d="M780.757,1111.106c52.508,97.061-10.343,147.183,46.939,249.813
	c56.804,101.774-97.63,164.055-100.209,244.021l172.869,34.844c-2.211-36.648,9.661-53.47,29.97-126.114
	c20.685-73.989,3.182-101.039-35.006-183.779c-38.188-82.741,3.978-108.199-37.392-225.15
	c-11.068-31.285-26.133-57.523-42.26-79.199l-45.747-1.728c-6.477-0.244-12.471-2.996-16.878-7.749
	c-4.407-4.753-6.699-10.938-6.454-17.414c0.245-6.478,2.997-12.472,7.75-16.878c4.05-3.755,9.14-5.968,14.566-6.391
	c-20.367-17.524-37.707-27.866-45.352-32.06l-116.269-5.558l-0.325,18.817C623.05,964.967,734.278,1025.191,780.757,1111.106z"/>
<path style="fill:#DB71D1;" d="M768.905,975.383c0.941-0.074,1.891-0.1,2.848-0.064l71.551,2.703
	c6.477,0.244,12.471,2.996,16.878,7.749c4.407,4.753,6.699,10.938,6.454,17.414c-0.494,13.06-11.276,23.35-24.237,23.35
	c-0.308,0-0.617-0.006-0.927-0.018l-25.805-0.975c16.126,21.676,31.191,47.914,42.26,79.199
	c41.37,116.951-0.796,142.409,37.392,225.15c38.188,82.74,55.691,109.79,35.006,183.779c-20.309,72.644-32.181,89.466-29.97,126.114
	l98.46,19.846l5.777-197.322c-1.002-123.538-51.776-111.533-68.699-175.378c-17.503-66.034,16.707-95.47-11.934-194.917
	c-25.109-87.184-82.914-133.61-96.791-143.736l-103.618-4.953C731.198,947.517,748.538,957.859,768.905,975.383z"/>
<path style="fill:#B257A5;" d="M923.961,1092.013c28.641,99.447-5.569,128.884,11.934,194.917
	c16.923,63.845,67.697,51.841,68.699,175.378l14.781-504.845l-192.204-9.188C841.048,958.402,898.853,1004.829,923.961,1092.013z"/>
<path style="fill:#510F45;" d="M647.857,1592.948l23.829,4.803l285.64,57.575l43.016,8.67c0.13,0.026,0.262,0.04,0.393,0.04
	c0.198,0,0.393-0.04,0.585-0.099c0.055-0.017,0.106-0.04,0.159-0.062c0.067-0.027,0.136-0.043,0.2-0.078l15.707-8.472
	l115.564-62.334c0.671-0.362,1.076-1.077,1.042-1.839l-8.104-182.785l239.906-48.358l20.323-4.096l5.511-1.111l36.079-7.272
	c0.941-0.189,1.612-1.023,1.596-1.983l-11.138-644.421c-0.009-0.538-0.236-1.05-0.629-1.417c-0.393-0.368-0.923-0.576-1.455-0.535
	l-24.453,1.169l-5.511,0.263l-20.323,0.972l-39.917,1.908V691.62c0-0.002,0-0.003,0-0.005v-0.001c0-0.204-0.037-0.401-0.097-0.59
	c-0.005-0.015-0.002-0.03-0.007-0.045c-0.015-0.045-0.047-0.079-0.065-0.122c-0.054-0.13-0.117-0.254-0.197-0.37
	c-0.041-0.059-0.086-0.111-0.133-0.165c-0.085-0.098-0.177-0.185-0.281-0.265c-0.057-0.044-0.112-0.086-0.173-0.124
	c-0.039-0.024-0.069-0.057-0.11-0.079c-0.079-0.041-0.164-0.059-0.246-0.089c-0.064-0.024-0.125-0.052-0.192-0.069
	c-0.167-0.042-0.336-0.06-0.506-0.059c-0.025,0-0.049-0.01-0.074-0.009l-0.025,0.001c-0.001,0-0.001,0-0.002,0l-114.185,5.373
	l-114.822,5.403l-79.697,3.75l-97.016,4.565c-0.016,0.001-0.03,0.005-0.046,0.006c-0.037,0.003-0.072,0.011-0.109,0.016
	c-0.096,0.012-0.191,0.027-0.282,0.052c-0.039,0.011-0.076,0.026-0.115,0.04c-0.084,0.029-0.165,0.06-0.244,0.099
	c-0.044,0.022-0.085,0.047-0.127,0.073c-0.07,0.042-0.137,0.086-0.201,0.136c-0.021,0.016-0.045,0.027-0.065,0.044
	c-0.02,0.017-0.034,0.038-0.052,0.055c-0.06,0.054-0.115,0.112-0.167,0.174c-0.033,0.038-0.066,0.075-0.095,0.115
	c-0.049,0.066-0.091,0.138-0.132,0.211c-0.023,0.04-0.048,0.079-0.067,0.12c-0.039,0.082-0.068,0.169-0.095,0.257
	c-0.012,0.037-0.028,0.073-0.037,0.111c-0.027,0.107-0.041,0.219-0.05,0.333c-0.001,0.02-0.008,0.038-0.009,0.058l0,0.009v0v0
	l-0.372,8.385l-9.53,214.946l-208.513-9.812c-0.002,0-0.005-0.001-0.007-0.001l-0.022-0.001c-0.726-0.061-1.395,0.324-1.771,0.927
	c-0.012,0.019-0.024,0.037-0.036,0.056c-0.067,0.116-0.127,0.237-0.171,0.367c-0.005,0.015-0.003,0.029-0.007,0.044
	c-0.059,0.189-0.097,0.387-0.097,0.592v0.003c0,0,0,0,0,0v11.869l-30.006-1.435l-17.767-0.849l-5.511-0.264l-36.92-1.765
	c-0.537-0.024-1.062,0.167-1.455,0.535c-0.393,0.368-0.619,0.879-0.629,1.417l-11.138,644.421c-0.017,0.96,0.655,1.794,1.596,1.984
	l48.546,9.785L647.857,1592.948z M1129.742,1590.202l-126.918,68.458l3.66-124.992l16.579-566.232l0.296-10.105l25.546-3.224
	l52.569-6.635l28.491,642.611L1129.742,1590.202z M1113.246,1123.183l-7.893-178.033v0v0l0-0.009
	c-0.001-0.02-0.007-0.039-0.009-0.059c-0.008-0.113-0.023-0.224-0.049-0.331c-0.01-0.039-0.026-0.076-0.038-0.114
	c-0.027-0.087-0.055-0.172-0.094-0.253c-0.02-0.042-0.045-0.081-0.068-0.122c-0.041-0.072-0.083-0.143-0.131-0.21
	c-0.03-0.04-0.063-0.078-0.096-0.116c-0.052-0.061-0.107-0.118-0.166-0.172c-0.019-0.017-0.033-0.039-0.053-0.055
	c-0.02-0.017-0.044-0.028-0.065-0.044c-0.065-0.051-0.133-0.096-0.204-0.138c-0.041-0.024-0.08-0.048-0.122-0.069
	c-0.082-0.042-0.168-0.074-0.257-0.105c-0.034-0.011-0.066-0.025-0.1-0.034c-0.097-0.027-0.198-0.044-0.3-0.056
	c-0.031-0.004-0.061-0.011-0.092-0.013c-0.016-0.001-0.032-0.006-0.048-0.007l-17.759-0.836l-77.247-3.635l-6.319-215.827
	l192.204-9.188l103.618-4.953l116.269-5.558l0.325,18.817l10.749,621.896l-131.277,26.461l-168.31,33.925L1113.246,1123.183z
	 M1309.006,704.292l12.895-8.891v8.275L1309.006,704.292z M1301.476,704.651l-301.311,14.403l-58.962-7.441l375.826-17.686
	L1301.476,704.651z M972.603,719.586l25.546,3.224l0.296,10.105l6.022,205.667l-25.394-1.195l-68.846-3.24l9.807-221.197
	L972.603,719.586z M1080.304,946.134l-58.961,7.441l-301.311-14.403l-15.553-10.724L1080.304,946.134z M712.502,938.813
	l-12.895-0.616v-8.275L712.502,938.813z M723.553,943.323l103.618,4.953l192.204,9.188l-14.781,504.845l-5.777,197.322
	l-98.46-19.846l-172.869-34.844l-131.277-26.461l10.749-621.896l0.325-18.817L723.553,943.323z"/>
<path style="fill:#510F45;" d="M842.4,1026.535c12.961,0,23.743-10.29,24.237-23.35c0.245-6.477-2.048-12.661-6.454-17.414
	c-4.407-4.753-10.401-7.505-16.878-7.749l-71.551-2.703c-0.958-0.036-1.907-0.01-2.848,0.064
	c-5.426,0.423-10.516,2.636-14.566,6.391c-4.753,4.406-7.505,10.4-7.75,16.878c-0.245,6.477,2.048,12.661,6.454,17.414
	c4.407,4.753,10.401,7.505,16.878,7.749l45.747,1.728l25.805,0.975C841.783,1026.529,842.092,1026.535,842.4,1026.535z
	 M770.818,979.279c0.261,0,0.523,0.005,0.785,0.015l47.474,1.794l11.076,0.419l13.001,0.491c5.415,0.204,10.426,2.506,14.111,6.48
	c3.684,3.973,5.601,9.143,5.396,14.559c-0.052,1.38-0.244,2.722-0.557,4.015c-0.31,1.279-0.744,2.507-1.282,3.676
	c-3.328,7.227-10.765,12.132-19.2,11.817l-71.552-2.703c-5.415-0.204-10.426-2.506-14.111-6.479
	c-3.684-3.974-5.601-9.144-5.396-14.559c0.205-5.416,2.506-10.427,6.479-14.111C760.825,981.185,765.69,979.279,770.818,979.279z"/>
<path style="fill:#FBB935;" d="M220.692,1203.131c3.161,2.896,6.858,5.892,11.172,8.899c-10.872-22.195-3.136-32.559,0.12-35.649
	c-12.705-7.225-21.4-15.315-25.658-23.889v18.872C206.326,1183.363,211.428,1194.645,220.692,1203.131z"/>
<path style="fill:#F4A625;" d="M231.864,1212.03c23.697,16.522,66.054,33.39,140.989,35.875
	c98.831,3.283,146.879-29.604,166.725-49.497c8.558-8.579,13.272-19.487,13.272-30.716v-15.2
	c-6.514,13.115-23.399,25.104-49.151,34.588c-33.175,12.216-77.252,18.944-124.111,18.944c-46.859,0-90.936-6.729-124.111-18.944
	c-8.918-3.284-16.762-6.871-23.493-10.699C228.728,1179.471,220.992,1189.835,231.864,1212.03z"/>
<path style="fill:#AD7D2C;" d="M386.386,1251.165c90.822,0,136.086-31.316,155.34-50.615c9.13-9.151,14.158-20.82,14.158-32.857
	v-27.546c0-17.873-18.533-34.541-52.184-46.933c-33.175-12.217-77.252-18.945-124.111-18.945c-46.859,0-90.936,6.729-124.111,18.945
	c-33.651,12.392-52.184,29.06-52.184,46.933v31.218c0,12.859,5.451,24.936,15.35,34.003c20.903,19.149,64.607,42.601,154.109,45.569
	C377.408,1251.091,381.95,1251.165,386.386,1251.165z M256.525,1096.06c32.848-12.097,76.553-18.758,123.063-18.758
	c8.644,0,17.191,0.231,25.59,0.684c18.61,1.002,36.488,3.096,53.077,6.195c16.206,3.027,31.181,7.012,44.397,11.879
	c32.371,11.921,50.199,27.577,50.199,44.087s-17.828,32.167-50.199,44.088c-32.848,12.096-76.553,18.757-123.063,18.757
	c-46.511,0-90.215-6.661-123.063-18.757c-7.319-2.695-13.886-5.583-19.68-8.626c-15.459-8.122-25.351-17.364-28.965-27.097
	c-1.023-2.754-1.555-5.546-1.555-8.364C206.326,1123.637,224.154,1107.98,256.525,1096.06z M206.326,1152.492
	c4.258,8.574,12.953,16.664,25.658,23.889c6.731,3.828,14.575,7.415,23.493,10.699c33.175,12.216,77.251,18.944,124.111,18.944
	c46.859,0,90.936-6.729,124.111-18.944c25.752-9.483,42.637-21.473,49.151-34.588v15.2c0,11.229-4.714,22.137-13.272,30.716
	c-19.846,19.894-67.895,52.78-166.725,49.497c-74.935-2.485-117.292-19.353-140.989-35.875c-4.313-3.008-8.011-6.004-11.172-8.899
	c-9.264-8.486-14.366-19.768-14.366-31.767V1152.492z"/>
<path style="fill:#FDDC56;" d="M206.326,1140.146c0,2.818,0.532,5.61,1.555,8.364c33.896,20.721,186.47,0.173,207.091-14.558
	c18.297-13.066-0.968-46.916-9.794-55.968c-8.399-0.453-16.945-0.684-25.59-0.684c-46.51,0-90.215,6.661-123.063,18.758
	C224.154,1107.98,206.326,1123.637,206.326,1140.146z"/>
<path style="fill:#F3D249;" d="M414.972,1133.953c-20.621,14.731-173.196,35.278-207.091,14.558
	c3.614,9.733,13.506,18.976,28.965,27.097c139.749,10.329,208.368-8.496,245.46-32.349c32.077-20.61-11.038-50.84-24.05-59.078
	c-16.588-3.099-34.467-5.193-53.077-6.195C414.004,1087.037,433.269,1120.887,414.972,1133.953z"/>
<path style="fill:#EFCC3A;" d="M482.305,1143.259c-37.092,23.854-105.71,42.678-245.46,32.349c5.794,3.043,12.361,5.931,19.68,8.626
	c32.848,12.096,76.552,18.757,123.063,18.757c46.511,0,90.216-6.661,123.063-18.757c32.371-11.921,50.199-27.578,50.199-44.088
	s-17.828-32.166-50.199-44.087c-13.216-4.867-28.191-8.852-44.397-11.879C471.267,1092.419,514.382,1122.648,482.305,1143.259z"/>
<path style="fill:#FBB935;" d="M1441.182,483.214c3.161,2.896,6.858,5.892,11.172,8.898c-10.871-22.194-3.137-32.558,0.12-35.648
	c-12.705-7.225-21.4-15.315-25.658-23.889v18.871C1426.815,463.444,1431.917,474.727,1441.182,483.214z"/>
<path style="fill:#F4A625;" d="M1452.354,492.112c23.698,16.522,66.055,33.39,140.989,35.875
	c98.833,3.292,146.88-29.604,166.726-49.496c8.559-8.579,13.272-19.488,13.272-30.717v-15.199
	c-6.514,13.115-23.399,25.104-49.151,34.588c-33.175,12.216-77.252,18.944-124.111,18.944s-90.936-6.728-124.111-18.944
	c-8.918-3.284-16.763-6.871-23.494-10.699C1449.217,459.554,1441.482,469.918,1452.354,492.112z"/>
<path style="fill:#AD7D2C;" d="M1439.134,485.45c20.903,19.149,64.608,42.6,154.108,45.568c4.662,0.154,9.195,0.228,13.637,0.228
	c90.811,0,136.084-31.317,155.335-50.615c9.13-9.15,14.158-20.82,14.158-32.857v-27.545c0-17.873-18.533-34.541-52.184-46.934
	c-33.175-12.216-77.252-18.944-124.111-18.944s-90.936,6.729-124.111,18.944c-33.651,12.393-52.184,29.061-52.184,46.934v31.217
	C1423.783,464.306,1429.235,476.382,1439.134,485.45z M1477.015,376.142c32.848-12.096,76.552-18.757,123.063-18.757
	c8.645,0,17.191,0.231,25.59,0.684c18.61,1.002,36.489,3.096,53.077,6.195c16.206,3.027,31.181,7.012,44.396,11.878
	c32.372,11.921,50.199,27.578,50.199,44.088s-17.828,32.167-50.199,44.088c-32.848,12.096-76.553,18.757-123.063,18.757
	s-90.215-6.661-123.063-18.757c-7.319-2.695-13.887-5.583-19.681-8.628c-15.459-8.121-25.351-17.364-28.964-27.097
	c-1.022-2.753-1.554-5.545-1.554-8.363C1426.815,403.72,1444.643,388.063,1477.015,376.142z M1426.815,432.575
	c4.258,8.573,12.953,16.664,25.658,23.889c6.731,3.828,14.575,7.415,23.494,10.699c33.175,12.216,77.251,18.944,124.111,18.944
	s90.937-6.728,124.111-18.944c25.752-9.483,42.637-21.473,49.151-34.588v15.199c0,11.228-4.713,22.138-13.272,30.717
	c-19.845,19.892-67.893,52.788-166.726,49.496c-74.935-2.485-117.291-19.353-140.989-35.875c-4.313-3.007-8.011-6.003-11.172-8.898
	c-9.264-8.487-14.366-19.77-14.366-31.768V432.575z"/>
<path style="fill:#FDDC56;" d="M1426.815,420.229c0,2.818,0.532,5.61,1.554,8.363c33.895,20.722,186.47,0.174,207.092-14.557
	c18.296-13.066-0.967-46.915-9.793-55.967c-8.399-0.453-16.946-0.684-25.59-0.684c-46.511,0-90.215,6.661-123.063,18.757
	C1444.643,388.063,1426.815,403.72,1426.815,420.229z"/>
<path style="fill:#F3D249;" d="M1635.461,414.036c-20.621,14.731-173.197,35.279-207.092,14.557
	c3.613,9.733,13.505,18.976,28.964,27.097c139.75,10.33,208.369-8.495,245.461-32.349c32.077-20.61-11.037-50.839-24.05-59.078
	c-16.588-3.099-34.467-5.193-53.077-6.195C1634.495,367.121,1653.758,400.97,1635.461,414.036z"/>
<path style="fill:#EFCC3A;" d="M1702.795,423.341c-37.092,23.853-105.711,42.678-245.461,32.349
	c5.794,3.044,12.362,5.932,19.681,8.628c32.848,12.096,76.552,18.757,123.063,18.757s90.216-6.661,123.063-18.757
	c32.372-11.921,50.199-27.578,50.199-44.088s-17.828-32.167-50.199-44.088c-13.215-4.866-28.19-8.851-44.396-11.878
	C1691.758,372.502,1734.871,402.731,1702.795,423.341z"/>
<path style="fill:#79B243;" d="M463.937,343.196c-12.088,3.477-20.471,8.397-25.147,11.694
	c-28.763,36.588-52.439,77.117-75.608,116.796c-7.818,13.389-15.694,26.874-23.802,40.274c0.755,2.51,2.456,7.625,5.175,14.3
	C382.705,463.957,415.993,397.859,463.937,343.196z"/>
<path style="fill:#79B243;" d="M638.636,408.125c6.285,4.904,6.289,13.102,0.335,18.561c-2.139,1.958-4.238,3.945-6.321,5.947
	c-46.261,44.453-79.021,99.436-111.346,154.761c7.8-5.541,15.886-12.004,24.262-19.474
	c31.276-52.378,65.543-104.045,113.314-144.199c-26.54-26.538-51.927-45.461-75.35-58.583
	C601.899,379.467,620.267,393.796,638.636,408.125z"/>
<path style="fill:#73A742;" d="M520.831,588.203C520.831,588.203,520.831,588.203,520.831,588.203
	c-2.908,4.979-5.815,9.96-8.727,14.937c-0.086,0.147-0.172,0.294-0.257,0.441c-0.885,1.512-1.772,3.023-2.659,4.535
	c-0.255,0.436-0.511,0.871-0.767,1.306c-0.784,1.335-1.569,2.668-2.355,4.002c-0.348,0.59-0.695,1.18-1.043,1.769
	c-0.715,1.211-1.432,2.422-2.149,3.632c-0.41,0.692-0.82,1.385-1.231,2.077c-0.682,1.148-1.365,2.294-2.049,3.44
	c-0.438,0.735-0.877,1.47-1.316,2.204c-0.665,1.111-1.331,2.221-1.999,3.331c-0.46,0.764-0.92,1.528-1.38,2.292
	c-0.652,1.079-1.305,2.157-1.959,3.234c-0.479,0.789-0.958,1.577-1.438,2.365c-0.643,1.054-1.288,2.107-1.933,3.159
	c-0.495,0.807-0.991,1.614-1.488,2.419c-0.637,1.032-1.275,2.063-1.914,3.093c-0.508,0.818-1.017,1.635-1.527,2.451
	c-0.635,1.017-1.272,2.033-1.911,3.048c-0.52,0.826-1.042,1.652-1.564,2.476c-0.632,0.998-1.266,1.996-1.902,2.991
	c-0.535,0.837-1.071,1.673-1.609,2.508c-0.632,0.983-1.266,1.965-1.902,2.945c-0.545,0.84-1.093,1.679-1.641,2.518
	c-0.633,0.968-1.267,1.936-1.905,2.901c-0.557,0.845-1.117,1.688-1.678,2.53c-0.636,0.957-1.274,1.912-1.915,2.865
	c-0.569,0.846-1.14,1.69-1.712,2.533c-0.639,0.943-1.279,1.885-1.923,2.824c-0.579,0.846-1.162,1.688-1.746,2.531
	c-0.646,0.935-1.293,1.868-1.944,2.799c-0.589,0.841-1.181,1.68-1.774,2.518c-0.652,0.922-1.304,1.845-1.96,2.763
	c-0.602,0.842-1.209,1.681-1.816,2.52c-0.657,0.909-1.314,1.818-1.976,2.724c-0.612,0.837-1.23,1.669-1.846,2.503
	c-0.667,0.902-1.334,1.804-2.007,2.702c-0.62,0.828-1.247,1.651-1.872,2.476c-0.678,0.894-1.355,1.79-2.039,2.68
	c-0.632,0.822-1.27,1.639-1.906,2.457c-0.688,0.884-1.374,1.769-2.067,2.648c-0.642,0.814-1.292,1.623-1.94,2.434
	c-0.699,0.874-1.396,1.751-2.101,2.621c-0.655,0.808-1.318,1.609-1.978,2.413c-0.709,0.863-1.415,1.727-2.13,2.585
	c-0.668,0.801-1.345,1.595-2.018,2.392c-0.721,0.852-1.439,1.707-2.166,2.554c-0.678,0.79-1.366,1.572-2.05,2.357
	c-0.735,0.843-1.467,1.689-2.208,2.527c-0.691,0.78-1.392,1.553-2.089,2.328c-0.748,0.833-1.493,1.669-2.248,2.496
	c-0.706,0.773-1.424,1.538-2.137,2.306c-0.759,0.818-1.514,1.641-2.281,2.453c-0.72,0.763-1.453,1.517-2.179,2.274
	c-0.774,0.808-1.543,1.62-2.326,2.421c-0.729,0.747-1.471,1.484-2.207,2.226c-0.794,0.801-1.583,1.606-2.385,2.401
	c-0.739,0.731-1.492,1.452-2.238,2.179c-0.814,0.792-1.621,1.59-2.444,2.375c-0.724,0.692-1.463,1.373-2.194,2.06
	c-0.85,0.799-1.693,1.603-2.552,2.395c-0.743,0.685-1.552,1.289-2.411,1.811c-0.099,0.06-0.205,0.108-0.306,0.167
	c-0.334,0.193-0.668,0.384-1.015,0.553c-5.88,2.863-13.552,2.292-18.653-1.688c-40.966-31.958-81.932-63.914-122.899-95.872
	c-6.295-4.911-6.306-13.117-0.373-18.591c0.05-0.046,0.099-0.094,0.149-0.14c2.001-1.846,3.969-3.717,5.921-5.601
	c0.559-0.54,1.116-1.082,1.671-1.624c1.726-1.687,3.435-3.386,5.124-5.101c0.277-0.281,0.559-0.558,0.835-0.84
	c1.912-1.955,3.795-3.932,5.662-5.922c0.517-0.551,1.03-1.106,1.543-1.66c1.54-1.661,3.065-3.332,4.575-5.016
	c0.377-0.42,0.758-0.836,1.133-1.258c1.802-2.025,3.581-4.069,5.342-6.126c0.461-0.539,0.918-1.082,1.376-1.622
	c1.427-1.684,2.842-3.377,4.244-5.08c0.425-0.516,0.853-1.03,1.276-1.548c1.707-2.092,3.397-4.197,5.068-6.317
	c0.393-0.498,0.78-1,1.171-1.499c1.365-1.745,2.718-3.497,4.06-5.259c0.447-0.586,0.895-1.172,1.339-1.76
	c1.628-2.155,3.243-4.32,4.84-6.5c0.296-0.404,0.587-0.811,0.882-1.216c1.358-1.863,2.704-3.734,4.041-5.613
	c0.45-0.633,0.9-1.266,1.348-1.9c1.561-2.212,3.113-4.432,4.649-6.664c0.162-0.236,0.321-0.473,0.483-0.709
	c1.409-2.056,2.806-4.121,4.195-6.192c0.447-0.667,0.894-1.335,1.339-2.004c1.351-2.029,2.694-4.063,4.028-6.106
	c0.181-0.276,0.363-0.551,0.544-0.828c1.481-2.273,2.948-4.558,4.409-6.847c0.437-0.685,0.872-1.37,1.307-2.056
	c1.195-1.883,2.384-3.77,3.568-5.661c0.306-0.488,0.613-0.975,0.918-1.464c1.414-2.269,2.819-4.544,4.219-6.823
	c0.267-0.435,0.534-0.872,0.8-1.308c-2.719-6.676-4.419-11.79-5.175-14.3c-29.951,49.502-63.09,97.845-108.346,135.857
	c-3.196,2.69-4.921,6.096-4.857,9.588c0.06,3.213,1.688,6.226,4.584,8.485L371.437,775.63c6.564,5.117,17.464,4.939,23.801-0.396
	c57.168-48.017,94.998-112.805,131.584-175.46c6.182-10.587,12.403-21.235,18.744-31.854c-8.376,7.469-16.462,13.933-24.262,19.474
	C521.146,587.663,520.988,587.934,520.831,588.203z"/>
<path style="fill:#86C447;" d="M438.791,354.891c4.675-3.298,13.059-8.217,25.147-11.694c0.009-0.01,0.017-0.02,0.026-0.029
	c-0.016,0.01-0.039,0.025-0.038,0.025c0.46-0.524,0.928-1.044,1.391-1.566c0.473-0.534,0.946-1.069,1.422-1.601
	c0.966-1.079,1.94-2.152,2.918-3.222c0.354-0.388,0.705-0.778,1.061-1.164c1.324-1.437,2.659-2.865,4.006-4.284
	c0.339-0.357,0.683-0.71,1.023-1.065c1.026-1.074,2.058-2.144,3.098-3.207c0.489-0.5,0.983-0.997,1.475-1.495
	c0.918-0.928,1.841-1.852,2.77-2.772c0.516-0.511,1.033-1.02,1.552-1.528c0.972-0.951,1.952-1.896,2.936-2.837
	c0.46-0.44,0.917-0.882,1.379-1.32c1.442-1.365,2.893-2.722,4.361-4.066c5.954-5.459,16.132-5.716,22.419-0.811
	c22.598,17.628,45.196,35.256,67.793,52.885c23.423,13.122,48.81,32.045,75.35,58.583c0.03-0.025,0.06-0.052,0.09-0.077
	c3.197-2.69,4.921-6.095,4.856-9.586c-0.06-3.213-1.688-6.227-4.584-8.486L518.568,295.832c-3.192-2.49-7.409-3.727-11.629-3.727
	c-4.458,0-8.917,1.38-12.173,4.121C473.802,313.835,455.446,333.704,438.791,354.891z"/>
<path style="fill:#325025;" d="M223.608,657.453c0.074,4.002,2.053,7.719,5.572,10.463l140.675,109.74
	c3.688,2.876,8.451,4.305,13.214,4.305c5.03,0,10.059-1.594,13.822-4.76c57.508-48.302,95.453-113.286,132.149-176.131
	c36.585-62.654,74.416-127.442,131.582-175.459c0,0,0.001,0,0.001,0c3.802-3.2,5.852-7.32,5.772-11.602
	c-0.074-4.003-2.053-7.719-5.573-10.464L520.148,293.807c-7.583-5.916-19.712-5.714-27.036,0.453
	c-57.508,48.303-95.453,113.286-132.149,176.131c-36.585,62.655-74.416,127.443-131.583,175.46
	C225.579,649.051,223.529,653.171,223.608,657.453z M518.568,295.832l140.676,109.739c2.896,2.26,4.524,5.273,4.584,8.486
	c0.065,3.491-1.66,6.896-4.856,9.586c-0.03,0.025-0.06,0.052-0.09,0.077c-47.771,40.154-82.038,91.821-113.314,144.199
	c-6.341,10.619-12.562,21.267-18.744,31.854c-36.585,62.655-74.416,127.443-131.584,175.46c-6.338,5.334-17.238,5.513-23.801,0.396
	L230.761,665.891c-2.896-2.26-4.524-5.272-4.584-8.485c-0.065-3.492,1.66-6.897,4.857-9.588
	c45.256-38.012,78.395-86.355,108.346-135.857c8.108-13.4,15.985-26.885,23.802-40.274c23.169-39.679,46.845-80.207,75.608-116.796
	c16.655-21.186,35.011-41.056,55.975-58.664c3.256-2.741,7.715-4.121,12.173-4.121C511.158,292.105,515.375,293.342,518.568,295.832
	z"/>
<path style="fill:#5E9140;" d="M453.763,694.881c-0.612,0.837-1.23,1.669-1.846,2.503
	C452.533,696.551,453.151,695.718,453.763,694.881z"/>
<path style="fill:#5E9140;" d="M461.289,684.356c-0.589,0.841-1.181,1.68-1.774,2.518
	C460.108,686.036,460.701,685.198,461.289,684.356z"/>
<path style="fill:#5E9140;" d="M472.207,668.275c-0.557,0.845-1.117,1.688-1.678,2.53C471.09,669.963,471.65,669.12,472.207,668.275
	z"/>
<path style="fill:#5E9140;" d="M464.979,679.027c-0.579,0.846-1.162,1.688-1.746,2.531
	C463.817,680.715,464.4,679.873,464.979,679.027z"/>
<path style="fill:#5E9140;" d="M468.614,673.67c-0.569,0.846-1.14,1.69-1.712,2.533C467.474,675.36,468.046,674.517,468.614,673.67z
	"/>
<path style="fill:#5E9140;" d="M457.555,689.638c-0.602,0.842-1.209,1.681-1.816,2.52
	C456.346,691.319,456.953,690.48,457.555,689.638z"/>
<path style="fill:#5E9140;" d="M375.772,758.985c-40.966-31.958-81.932-63.915-122.899-95.872
	c-6.294-4.91-6.306-13.116-0.373-18.591c0.049-0.045,0.096-0.092,0.145-0.137c-0.05,0.046-0.099,0.093-0.149,0.14
	c-5.933,5.475-5.922,13.68,0.373,18.591c40.966,31.957,81.932,63.914,122.899,95.872c5.101,3.979,12.773,4.551,18.653,1.688
	C388.542,763.537,380.873,762.964,375.772,758.985z"/>
<path style="fill:#5E9140;" d="M266.196,631.218c-0.276,0.282-0.558,0.559-0.835,0.84C265.638,631.777,265.92,631.5,266.196,631.218
	z"/>
<path style="fill:#5E9140;" d="M343.755,527.569c0.158-0.257,0.318-0.511,0.475-0.768c0.523,0.196,0.818,0.328,0.817,0.328
	c-0.107-0.084,1.748,5.272,5.611,13.43c10.995-17.708,21.503-35.697,31.828-53.379c19.591-33.551,39.848-68.244,62.854-100.002
	c11.124-15.626,28.49-25.875,48.894-28.851c22.982-3.358,47.511,3.076,65.615,17.199c33.139,25.85,37.78,71.883,11.034,109.456
	c-0.002,0.003-0.004,0.006-0.006,0.009c-22.932,31.656-43.158,66.294-62.717,99.791c-3.834,6.566-7.693,13.175-11.593,19.795
	c7.777-4.324,15.864-9.734,24.265-16.374c0.158-0.27,0.315-0.54,0.473-0.81c32.325-55.324,65.085-110.308,111.346-154.761
	c-0.251,0.241-0.512,0.475-0.763,0.717c7.974-19.154-47.43-76.883-96.046-90.047c-48.851-13.118-71.078-0.657-71.878-0.136
	c-0.009,0.01-0.017,0.02-0.026,0.029c-47.944,54.663-81.232,120.76-119.382,183.064
	C344.288,526.696,344.022,527.133,343.755,527.569z"/>
<path style="fill:#5E9140;" d="M449.91,700.086c-0.62,0.828-1.247,1.651-1.872,2.476
	C448.663,701.738,449.289,700.914,449.91,700.086z"/>
<path style="fill:#5E9140;" d="M445.999,705.242c-0.632,0.822-1.27,1.639-1.906,2.457
	C444.729,706.88,445.367,706.063,445.999,705.242z"/>
<path style="fill:#5E9140;" d="M338.618,535.856c0.306-0.488,0.613-0.975,0.918-1.464
	C339.231,534.881,338.923,535.368,338.618,535.856z"/>
<path style="fill:#5E9140;" d="M499.595,624.341c-0.438,0.735-0.877,1.47-1.316,2.204
	C498.718,625.81,499.156,625.076,499.595,624.341z"/>
<path style="fill:#5E9140;" d="M502.875,618.824c-0.41,0.692-0.82,1.385-1.231,2.077
	C502.054,620.208,502.464,619.516,502.875,618.824z"/>
<path style="fill:#5E9140;" d="M506.066,613.423c-0.348,0.59-0.695,1.18-1.043,1.769
	C505.371,614.602,505.718,614.013,506.066,613.423z"/>
<path style="fill:#5E9140;" d="M509.187,608.115c-0.255,0.436-0.511,0.871-0.767,1.306
	C508.676,608.986,508.932,608.551,509.187,608.115z"/>
<path style="fill:#5E9140;" d="M496.28,629.875c-0.46,0.764-0.92,1.528-1.38,2.292C495.36,631.404,495.82,630.64,496.28,629.875z"/>
<path style="fill:#5E9140;" d="M475.753,662.857c-0.545,0.84-1.093,1.679-1.641,2.518
	C474.66,664.536,475.208,663.697,475.753,662.857z"/>
<path style="fill:#5E9140;" d="M479.263,657.404c-0.535,0.837-1.071,1.673-1.609,2.508
	C478.192,659.077,478.728,658.241,479.263,657.404z"/>
<path style="fill:#5E9140;" d="M482.729,651.937c-0.52,0.826-1.042,1.652-1.564,2.476
	C481.687,653.588,482.209,652.763,482.729,651.937z"/>
<path style="fill:#5E9140;" d="M492.941,635.402c-0.479,0.789-0.958,1.577-1.438,2.365
	C491.983,636.979,492.462,636.19,492.941,635.402z"/>
<path style="fill:#5E9140;" d="M489.569,640.926c-0.495,0.807-0.991,1.614-1.488,2.419
	C488.578,642.54,489.074,641.733,489.569,640.926z"/>
<path style="fill:#5E9140;" d="M486.167,646.438c-0.508,0.818-1.017,1.635-1.527,2.451
	C485.15,648.073,485.659,647.256,486.167,646.438z"/>
<path style="fill:#5E9140;" d="M512.103,603.14c-0.086,0.147-0.172,0.294-0.257,0.441
	C511.932,603.434,512.017,603.287,512.103,603.14z"/>
<path style="fill:#5E9140;" d="M333.743,543.573c0.437-0.685,0.872-1.37,1.307-2.056
	C334.615,542.203,334.18,542.889,333.743,543.573z"/>
<path style="fill:#5E9140;" d="M412.173,744.509c-0.729,0.747-1.471,1.484-2.207,2.226
	C410.702,745.993,411.444,745.256,412.173,744.509z"/>
<path style="fill:#5E9140;" d="M442.025,710.347c-0.642,0.814-1.292,1.623-1.94,2.434
	C440.733,711.97,441.383,711.161,442.025,710.347z"/>
<path style="fill:#5E9140;" d="M402.899,753.69c-0.724,0.692-1.463,1.373-2.194,2.06
	C401.436,755.063,402.175,754.382,402.899,753.69z"/>
<path style="fill:#5E9140;" d="M416.678,739.813c-0.72,0.763-1.453,1.517-2.179,2.274
	C415.226,741.33,415.958,740.577,416.678,739.813z"/>
<path style="fill:#5E9140;" d="M258.567,638.784c0.559-0.54,1.116-1.082,1.671-1.624
	C259.682,637.703,259.126,638.245,258.567,638.784z"/>
<path style="fill:#5E9140;" d="M437.984,715.402c-0.655,0.808-1.318,1.609-1.978,2.413
	C436.666,717.011,437.329,716.209,437.984,715.402z"/>
<path style="fill:#5E9140;" d="M421.096,735.055c-0.706,0.773-1.424,1.538-2.137,2.306
	C419.672,736.592,420.389,735.828,421.096,735.055z"/>
<path style="fill:#5E9140;" d="M433.875,720.4c-0.668,0.801-1.345,1.595-2.018,2.392C432.531,721.995,433.207,721.201,433.875,720.4
	z"/>
<path style="fill:#5E9140;" d="M425.433,730.231c-0.691,0.78-1.392,1.553-2.089,2.328
	C424.041,731.783,424.742,731.011,425.433,730.231z"/>
<path style="fill:#5E9140;" d="M429.691,725.346c-0.678,0.79-1.366,1.572-2.05,2.357
	C428.325,726.917,429.013,726.135,429.691,725.346z"/>
<path style="fill:#5E9140;" d="M407.581,749.135c-0.739,0.731-1.492,1.452-2.238,2.179
	C406.089,750.587,406.842,749.867,407.581,749.135z"/>
<path style="fill:#5E9140;" d="M312.748,574.823c0.45-0.633,0.9-1.266,1.348-1.9C313.649,573.558,313.198,574.19,312.748,574.823z"
	/>
<path style="fill:#5E9140;" d="M318.745,566.259c0.162-0.236,0.321-0.473,0.483-0.709
	C319.066,565.786,318.907,566.023,318.745,566.259z"/>
<path style="fill:#5E9140;" d="M307.825,581.652c0.296-0.404,0.587-0.811,0.882-1.216
	C308.413,580.841,308.121,581.248,307.825,581.652z"/>
<path style="fill:#5E9140;" d="M323.423,559.358c0.447-0.667,0.894-1.335,1.339-2.004
	C324.317,558.023,323.87,558.69,323.423,559.358z"/>
<path style="fill:#5E9140;" d="M328.79,551.248c0.181-0.276,0.363-0.551,0.544-0.828
	C329.154,550.697,328.971,550.972,328.79,551.248z"/>
<path style="fill:#5E9140;" d="M284.451,611.237c0.461-0.539,0.918-1.082,1.376-1.622
	C285.368,610.155,284.912,610.698,284.451,611.237z"/>
<path style="fill:#5E9140;" d="M271.857,625.296c0.517-0.551,1.03-1.106,1.543-1.66C272.887,624.19,272.374,624.745,271.857,625.296
	z"/>
<path style="fill:#5E9140;" d="M277.976,618.621c0.377-0.42,0.758-0.836,1.133-1.258
	C278.734,617.784,278.352,618.201,277.976,618.621z"/>
<path style="fill:#5E9140;" d="M301.646,589.911c0.447-0.586,0.895-1.172,1.339-1.76
	C302.541,588.739,302.093,589.325,301.646,589.911z"/>
<path style="fill:#5E9140;" d="M296.415,596.669c0.393-0.498,0.78-1,1.171-1.499C297.195,595.669,296.808,596.171,296.415,596.669z"
	/>
<path style="fill:#5E9140;" d="M290.072,604.534c0.425-0.516,0.853-1.03,1.276-1.548
	C290.924,603.504,290.496,604.018,290.072,604.534z"/>
<path style="fill:#5E9140;" d="M395.742,759.955c-0.099,0.06-0.205,0.108-0.306,0.167
	C395.537,760.063,395.643,760.015,395.742,759.955z"/>
<path style="fill:#5E9140;" d="M478.843,327.082c0.489-0.5,0.983-0.997,1.475-1.495
	C479.826,326.085,479.333,326.582,478.843,327.082z"/>
<path style="fill:#5E9140;" d="M474.722,331.354c0.339-0.357,0.683-0.71,1.023-1.065
	C475.405,330.645,475.061,330.997,474.722,331.354z"/>
<path style="fill:#5E9140;" d="M483.089,322.816c0.516-0.511,1.033-1.02,1.552-1.528
	C484.122,321.795,483.605,322.305,483.089,322.816z"/>
<path style="fill:#5E9140;" d="M487.577,318.45c0.46-0.44,0.917-0.882,1.379-1.32C488.494,317.568,488.037,318.01,487.577,318.45z"
	/>
<path style="fill:#5E9140;" d="M465.316,341.626c0.473-0.534,0.946-1.069,1.422-1.601
	C466.261,340.558,465.789,341.092,465.316,341.626z"/>
<path style="fill:#5E9140;" d="M469.656,336.803c0.354-0.388,0.705-0.778,1.061-1.164
	C470.361,336.025,470.01,336.415,469.656,336.803z"/>
<path style="fill:#55833C;" d="M443.136,687.758c-11.187,15.509-28.619,25.662-49.078,28.582c-3.977,0.567-8.001,0.846-12.027,0.846
	c-19.397,0-38.884-6.461-53.915-18.186c-33.067-25.794-37.488-71.66-10.513-109.06c11.644-15.862,22.57-32.494,33.054-49.38
	c-3.863-8.158-5.718-13.514-5.611-13.43c0,0-0.294-0.132-0.817-0.328c-0.157,0.257-0.317,0.511-0.475,0.768
	c-1.4,2.28-2.805,4.555-4.219,6.823c-0.305,0.489-0.612,0.976-0.918,1.464c-1.183,1.892-2.373,3.778-3.568,5.661
	c-0.435,0.686-0.87,1.371-1.307,2.056c-1.461,2.289-2.928,4.573-4.409,6.847c-0.18,0.277-0.363,0.552-0.544,0.828
	c-1.333,2.043-2.677,4.077-4.028,6.106c-0.445,0.669-0.892,1.336-1.339,2.004c-1.389,2.071-2.786,4.136-4.195,6.192
	c-0.162,0.236-0.321,0.473-0.483,0.709c-1.535,2.232-3.087,4.452-4.649,6.664c-0.448,0.635-0.898,1.268-1.348,1.9
	c-1.337,1.879-2.683,3.75-4.041,5.613c-0.295,0.405-0.586,0.812-0.882,1.216c-1.597,2.179-3.212,4.344-4.84,6.5
	c-0.444,0.588-0.893,1.173-1.339,1.76c-1.342,1.762-2.695,3.514-4.06,5.259c-0.391,0.499-0.778,1.001-1.171,1.499
	c-1.671,2.12-3.361,4.225-5.068,6.317c-0.423,0.518-0.851,1.032-1.276,1.548c-1.402,1.703-2.817,3.397-4.244,5.08
	c-0.459,0.54-0.915,1.083-1.376,1.622c-1.761,2.057-3.54,4.101-5.342,6.126c-0.375,0.421-0.756,0.838-1.133,1.258
	c-1.51,1.684-3.035,3.355-4.575,5.016c-0.514,0.554-1.026,1.108-1.543,1.66c-1.866,1.99-3.75,3.967-5.662,5.922
	c-0.276,0.282-0.558,0.559-0.835,0.84c-1.689,1.715-3.398,3.414-5.124,5.101c-0.555,0.543-1.112,1.085-1.671,1.624
	c-1.952,1.884-3.92,3.755-5.921,5.601c-0.049,0.045-0.096,0.092-0.145,0.137c-5.933,5.476-5.922,13.682,0.373,18.591
	c40.966,31.958,81.932,63.914,122.899,95.872c5.101,3.979,12.77,4.551,18.65,1.689c0.347-0.169,0.681-0.36,1.015-0.553
	c0.1-0.058,0.207-0.107,0.306-0.167c0.859-0.522,1.668-1.126,2.411-1.811c0.859-0.792,1.702-1.596,2.552-2.395
	c0.731-0.687,1.47-1.367,2.194-2.06c0.823-0.786,1.63-1.583,2.444-2.375c0.746-0.727,1.499-1.447,2.238-2.179
	c0.802-0.794,1.591-1.6,2.385-2.401c0.736-0.742,1.478-1.478,2.207-2.226c0.782-0.801,1.551-1.613,2.326-2.421
	c0.727-0.758,1.459-1.511,2.179-2.274c0.767-0.813,1.521-1.635,2.281-2.453c0.713-0.768,1.43-1.533,2.137-2.306
	c0.756-0.827,1.5-1.663,2.248-2.496c0.697-0.775,1.398-1.548,2.089-2.328c0.742-0.838,1.473-1.684,2.208-2.527
	c0.684-0.785,1.372-1.568,2.05-2.357c0.728-0.847,1.445-1.702,2.166-2.554c0.674-0.796,1.35-1.591,2.018-2.392
	c0.715-0.858,1.422-1.722,2.13-2.585c0.66-0.804,1.323-1.605,1.978-2.413c0.705-0.87,1.402-1.747,2.101-2.621
	c0.648-0.811,1.298-1.62,1.94-2.434c0.693-0.879,1.38-1.764,2.067-2.648c0.637-0.818,1.275-1.635,1.906-2.457
	c0.684-0.89,1.361-1.785,2.039-2.68c0.625-0.824,1.251-1.648,1.872-2.476c0.673-0.898,1.34-1.8,2.007-2.702
	c0.617-0.833,1.234-1.666,1.846-2.503c0.662-0.905,1.319-1.814,1.976-2.724c0.607-0.839,1.214-1.678,1.816-2.52
	c0.657-0.919,1.309-1.841,1.96-2.763c0.593-0.838,1.185-1.677,1.774-2.518c0.651-0.931,1.298-1.864,1.944-2.799
	c0.583-0.843,1.166-1.685,1.746-2.531c0.644-0.939,1.284-1.881,1.923-2.824c0.572-0.843,1.144-1.687,1.712-2.533
	c0.641-0.953,1.278-1.909,1.915-2.865c0.561-0.842,1.121-1.685,1.678-2.53c0.637-0.965,1.271-1.933,1.905-2.901
	c0.548-0.838,1.096-1.677,1.641-2.518c0.636-0.98,1.269-1.962,1.902-2.945c0.537-0.835,1.074-1.671,1.609-2.508
	c0.636-0.996,1.27-1.993,1.902-2.991c0.522-0.824,1.044-1.65,1.564-2.476c0.639-1.015,1.276-2.031,1.911-3.048
	c0.51-0.816,1.019-1.633,1.527-2.451c0.64-1.03,1.278-2.061,1.914-3.093c0.497-0.806,0.993-1.612,1.488-2.419
	c0.646-1.052,1.29-2.105,1.933-3.159c0.48-0.788,0.96-1.576,1.438-2.365c0.654-1.077,1.307-2.155,1.959-3.234
	c0.461-0.764,0.921-1.528,1.38-2.292c0.667-1.109,1.334-2.219,1.999-3.331c0.439-0.734,0.878-1.469,1.316-2.204
	c0.684-1.146,1.367-2.293,2.049-3.44c0.411-0.692,0.821-1.384,1.231-2.077c0.717-1.21,1.433-2.42,2.149-3.632
	c0.348-0.589,0.695-1.179,1.043-1.769c0.786-1.333,1.571-2.667,2.355-4.002c0.256-0.435,0.511-0.871,0.767-1.306
	c0.887-1.511,1.773-3.022,2.659-4.535c0.086-0.147,0.172-0.294,0.257-0.441c2.913-4.977,5.819-9.958,8.728-14.938
	c0,0.001-0.001,0.001-0.001,0.001c-8.401,6.64-16.488,12.05-24.265,16.374C479.916,632.847,462.523,661.347,443.136,687.758z"/>
<path style="fill:#79B243;" d="M351.96,543.326c5.54,12.92,50.288,105.801,140.049,63.914c4.696-7.944,9.333-15.879,13.93-23.753
	c19.59-33.549,39.848-68.242,62.853-99.999c0.807-1.134,1.584-2.275,2.332-3.424c35.511-119.016-103.773-97.18-122.656-92.77
	c-0.347,0.461-0.706,0.912-1.041,1.383c-22.938,31.664-43.163,66.302-62.723,99.799C374.095,506.646,363.29,525.138,351.96,543.326z
	 M482.153,429.222c8.184-11.743,24.167-13.974,35.117-5.431c10.956,8.548,12.731,24.628,4.547,36.372
	c-8.199,11.733-23.339,14.618-34.304,6.065C476.57,457.692,473.955,440.955,482.153,429.222z M470.304,492.612
	c30.023,23.421,42.25,62.56,27.664,87.695c-14.586,25.137-51.168,26.201-81.251,2.732c-30.024-23.421-42.17-62.498-27.584-87.633
	C403.72,470.272,440.219,469.143,470.304,492.612z"/>
<path style="fill:#74A942;" d="M351.96,543.326c-10.245,16.447-20.917,32.647-32.279,48.126
	c-26.13,36.227-21.921,80.608,10.015,105.521c17.612,13.738,41.537,20.03,63.999,16.821c19.762-2.819,36.582-12.604,47.363-27.55
	c18.417-25.089,35.044-52.098,50.951-79.005C402.249,649.127,357.5,556.246,351.96,543.326z M405.101,647.544
	c-8.289,11.663-24.379,13.807-35.328,5.266c-10.956-8.547-12.624-24.544-4.335-36.207c8.303-11.651,23.507-14.487,34.471-5.934
	C410.849,619.203,413.403,635.892,405.101,647.544z"/>
<path style="fill:#8AC24C;" d="M571.125,480.064c23.279-35.743,18.16-78.316-12.857-102.512
	c-14.494-11.306-33.238-17.529-51.881-17.529c-3.946,0-7.886,0.279-11.782,0.848c-19.087,2.783-35.389,12.153-46.136,26.424
	C467.351,382.884,606.636,361.047,571.125,480.064z"/>
<path style="fill:#325025;" d="M328.116,698.999c15.031,11.726,34.518,18.186,53.915,18.186c4.026,0,8.049-0.278,12.027-0.846
	c20.46-2.92,37.891-13.073,49.078-28.582c19.387-26.411,36.78-54.911,53.43-83.18c3.899-6.621,7.759-13.229,11.593-19.795
	c19.56-33.497,39.785-68.135,62.717-99.791c0.002-0.003,0.004-0.006,0.006-0.009c26.746-37.573,22.106-83.606-11.034-109.456
	c-18.104-14.123-42.633-20.558-65.615-17.199c-20.404,2.976-37.77,13.225-48.894,28.851
	c-23.006,31.758-43.264,66.451-62.854,100.002c-10.325,17.683-20.833,35.671-31.828,53.379
	c-10.484,16.886-21.41,33.518-33.054,49.38C290.627,627.339,295.049,673.205,328.116,698.999z M448.469,387.294
	c10.747-14.271,27.049-23.641,46.136-26.424c3.896-0.568,7.836-0.848,11.782-0.848c18.643,0,37.388,6.224,51.881,17.529
	c31.017,24.195,36.136,66.769,12.857,102.512c-0.748,1.148-1.525,2.29-2.332,3.424c-23.005,31.757-43.263,66.45-62.853,99.999
	c-4.598,7.874-9.234,15.81-13.93,23.753c-15.907,26.907-32.534,53.917-50.951,79.005c-10.781,14.946-27.602,24.73-47.363,27.55
	c-22.461,3.209-46.387-3.083-63.999-16.821c-31.936-24.913-36.146-69.295-10.015-105.521c11.362-15.479,22.035-31.679,32.279-48.126
	c11.329-18.188,22.134-36.681,32.744-54.851c19.559-33.497,39.784-68.135,62.723-99.799
	C447.763,388.206,448.121,387.755,448.469,387.294z"/>
<path style="fill:#B2D899;" d="M416.716,583.04c30.083,23.469,66.666,22.405,81.251-2.732c14.586-25.136,2.359-64.274-27.664-87.695
	c-30.085-23.47-66.584-22.341-81.172,2.794C374.547,520.542,386.692,559.619,416.716,583.04z"/>
<path style="fill:#B2D899;" d="M399.908,610.668c-10.964-8.553-26.168-5.716-34.471,5.934c-8.288,11.663-6.621,27.66,4.335,36.207
	c10.949,8.541,27.04,6.397,35.328-5.266C413.403,635.892,410.849,619.203,399.908,610.668z"/>
<path style="fill:#B2D899;" d="M487.513,466.228c10.965,8.553,26.105,5.668,34.304-6.065c8.184-11.745,6.409-27.824-4.547-36.372
	c-10.949-8.543-26.932-6.313-35.117,5.431C473.955,440.955,476.57,457.692,487.513,466.228z"/>
<path style="fill:#689A49;" d="M535.841,343.303c48.616,13.164,104.02,70.893,96.046,90.047c0.25-0.242,0.511-0.476,0.763-0.717
	c2.083-2.002,4.182-3.989,6.321-5.947c5.954-5.46,5.95-13.658-0.335-18.561c-18.368-14.329-36.737-28.658-55.105-42.987
	c-22.598-17.628-45.195-35.256-67.793-52.885c-6.287-4.905-16.465-4.648-22.419,0.811c-1.468,1.344-2.92,2.701-4.361,4.066
	c-0.463,0.438-0.92,0.88-1.379,1.32c-0.984,0.941-1.964,1.886-2.936,2.837c-0.519,0.508-1.036,1.018-1.552,1.528
	c-0.929,0.92-1.852,1.844-2.77,2.772c-0.492,0.497-0.986,0.995-1.475,1.495c-1.04,1.063-2.071,2.133-3.098,3.207
	c-0.34,0.355-0.685,0.708-1.023,1.065c-1.347,1.419-2.682,2.848-4.006,4.284c-0.356,0.387-0.706,0.777-1.061,1.164
	c-0.978,1.07-1.952,2.143-2.918,3.222c-0.476,0.532-0.949,1.067-1.422,1.601c-0.463,0.522-0.93,1.042-1.391,1.566
	c-0.001-0.001,0.022-0.015,0.038-0.025C464.764,342.646,486.99,330.185,535.841,343.303z"/>
<path style="fill:#79B243;" d="M1616.659,1367.192c-7.755,1.845-14.159-3.272-14.704-11.333c-0.129-1.941-0.28-3.877-0.441-5.81
	c-0.049-0.589-0.102-1.177-0.154-1.766c-5.662-64.296-28.265-124.56-51.407-184.696c-0.545,9.553-0.549,19.904,0.052,31.111
	c21.368,57.142,40.311,116.173,41.828,178.561c37.302-4.149,67.937-12.154,92.815-22.25
	C1661.986,1356.404,1639.322,1361.798,1616.659,1367.192z"/>
<path style="fill:#79B243;" d="M1776.485,1271.323c4.835-11.611,6.23-21.23,6.575-26.941c-10.606-45.316-27.467-89.121-43.981-132
	c-5.572-14.468-11.183-29.042-16.583-43.744c-2.432-0.978-7.488-2.845-14.4-4.892
	C1732.921,1132.456,1763.745,1199.737,1776.485,1271.323z"/>
<path style="fill:#73A742;" d="M1549.954,1163.588c-0.112-0.292-0.225-0.583-0.337-0.875c0,0,0,0.001,0,0.001
	c-2.06-5.351-4.122-10.701-6.177-16.053c-0.077-0.201-0.154-0.401-0.231-0.602c-0.609-1.586-1.216-3.172-1.824-4.759
	c-0.203-0.531-0.406-1.061-0.609-1.591c-0.536-1.402-1.07-2.804-1.603-4.206c-0.256-0.672-0.512-1.344-0.767-2.017
	c-0.494-1.301-0.987-2.604-1.479-3.905c-0.288-0.763-0.577-1.527-0.865-2.291c-0.466-1.236-0.93-2.473-1.393-3.71
	c-0.305-0.815-0.61-1.63-0.914-2.446c-0.446-1.194-0.889-2.39-1.332-3.585c-0.318-0.86-0.636-1.719-0.953-2.58
	c-0.427-1.16-0.853-2.32-1.277-3.481c-0.325-0.889-0.65-1.778-0.973-2.668c-0.416-1.144-0.829-2.288-1.242-3.433
	c-0.324-0.9-0.648-1.801-0.97-2.702c-0.406-1.135-0.81-2.271-1.212-3.406c-0.324-0.916-0.647-1.831-0.969-2.748
	c-0.395-1.124-0.787-2.248-1.178-3.373c-0.323-0.931-0.645-1.862-0.966-2.794c-0.381-1.107-0.76-2.215-1.137-3.324
	c-0.323-0.951-0.644-1.902-0.964-2.853c-0.37-1.099-0.737-2.197-1.102-3.296c-0.318-0.959-0.634-1.918-0.949-2.878
	c-0.359-1.093-0.716-2.187-1.07-3.282c-0.313-0.967-0.622-1.936-0.932-2.904c-0.349-1.092-0.696-2.185-1.039-3.278
	c-0.304-0.968-0.604-1.936-0.904-2.905c-0.34-1.097-0.678-2.194-1.012-3.292c-0.296-0.972-0.587-1.945-0.878-2.918
	c-0.327-1.092-0.653-2.185-0.975-3.279c-0.289-0.984-0.573-1.969-0.857-2.954c-0.314-1.089-0.628-2.178-0.936-3.269
	c-0.279-0.988-0.553-1.977-0.827-2.966c-0.302-1.09-0.604-2.179-0.9-3.27c-0.27-0.997-0.533-1.995-0.798-2.992
	c-0.288-1.086-0.576-2.172-0.858-3.259c-0.26-1.004-0.512-2.01-0.766-3.016c-0.274-1.086-0.549-2.171-0.817-3.258
	c-0.248-1.009-0.488-2.02-0.73-3.03c-0.26-1.088-0.522-2.175-0.776-3.264c-0.235-1.01-0.46-2.022-0.689-3.034
	c-0.247-1.093-0.496-2.186-0.735-3.281c-0.222-1.015-0.433-2.032-0.648-3.048c-0.231-1.093-0.465-2.186-0.688-3.28
	c-0.209-1.025-0.407-2.053-0.609-3.08c-0.214-1.091-0.433-2.181-0.639-3.274c-0.194-1.028-0.376-2.059-0.563-3.088
	c-0.199-1.097-0.402-2.192-0.592-3.29c-0.178-1.03-0.344-2.064-0.515-3.096c-0.182-1.102-0.37-2.202-0.543-3.306
	c-0.162-1.03-0.31-2.063-0.464-3.094c-0.166-1.11-0.337-2.219-0.494-3.331c-0.145-1.032-0.275-2.068-0.412-3.102
	c-0.148-1.115-0.302-2.229-0.44-3.347c-0.128-1.033-0.239-2.069-0.358-3.103c-0.13-1.124-0.267-2.246-0.386-3.373
	c-0.108-1.021-0.199-2.047-0.3-3.07c-0.112-1.144-0.232-2.286-0.333-3.432c-0.084-0.958-0.151-1.921-0.228-2.881
	c-0.096-1.202-0.201-2.401-0.285-3.606c-0.071-1.008-0.037-2.017,0.092-3.014c0.009-0.07,0.027-0.14,0.037-0.21
	c0.061-0.426,0.131-0.851,0.225-1.271c1.437-6.38,6.676-12.014,12.969-13.512c50.545-12.03,101.09-24.06,151.635-36.09
	c7.767-1.849,14.182,3.268,14.751,11.321c0.137,1.956,0.294,3.907,0.462,5.855c0.043,0.497,0.089,0.994,0.134,1.49
	c0.141,1.558,0.292,3.113,0.452,4.666c0.045,0.432,0.087,0.864,0.133,1.295c0.208,1.943,0.429,3.882,0.666,5.818
	c0.031,0.25,0.065,0.498,0.096,0.747c0.21,1.687,0.433,3.371,0.665,5.052c0.07,0.506,0.141,1.013,0.213,1.519
	c0.232,1.636,0.474,3.269,0.726,4.9c0.046,0.295,0.088,0.591,0.135,0.886c0.301,1.92,0.617,3.836,0.945,5.75
	c0.07,0.406,0.143,0.811,0.213,1.217c0.269,1.543,0.546,3.084,0.832,4.623c0.09,0.486,0.18,0.973,0.272,1.459
	c0.357,1.887,0.722,3.773,1.104,5.654c0,0.001,0,0.002,0,0.003c0.388,1.914,0.791,3.825,1.203,5.733
	c0.1,0.463,0.202,0.926,0.303,1.389c0.332,1.518,0.672,3.035,1.019,4.55c0.098,0.426,0.194,0.852,0.292,1.278
	c0.439,1.894,0.887,3.786,1.348,5.674c0.045,0.183,0.091,0.365,0.136,0.547c0.417,1.7,0.843,3.397,1.277,5.093
	c0.123,0.483,0.248,0.966,0.373,1.449c0.408,1.579,0.823,3.157,1.246,4.733c0.082,0.308,0.163,0.616,0.246,0.923
	c0.508,1.883,1.026,3.764,1.552,5.642c0.097,0.347,0.197,0.693,0.294,1.04c0.437,1.549,0.881,3.097,1.33,4.643
	c0.135,0.464,0.27,0.928,0.406,1.392c0.53,1.808,1.065,3.615,1.611,5.419c0.011,0.038,0.023,0.076,0.034,0.114
	c0.572,1.889,1.153,3.776,1.741,5.662c0.128,0.412,0.258,0.823,0.387,1.234c0.479,1.527,0.963,3.053,1.451,4.578
	c0.127,0.396,0.253,0.792,0.38,1.188c0.607,1.882,1.219,3.763,1.839,5.641c0.015,0.044,0.029,0.088,0.044,0.132
	c0.599,1.813,1.207,3.625,1.818,5.437c0.139,0.413,0.279,0.825,0.419,1.238c0.549,1.618,1.102,3.234,1.66,4.85
	c0.087,0.252,0.173,0.504,0.26,0.755c0.658,1.902,1.323,3.803,1.992,5.703c0.071,0.201,0.142,0.401,0.213,0.602
	c0.595,1.686,1.195,3.371,1.799,5.055c0.128,0.358,0.257,0.716,0.385,1.074c0.246,0.686,0.496,1.372,0.744,2.057
	c6.912,2.046,11.968,3.914,14.4,4.892c-19.948-54.31-37.001-110.385-38.418-169.47c-0.104-4.177-1.686-7.651-4.454-9.781
	c-2.546-1.961-5.916-2.57-9.489-1.721l-173.568,41.31c-8.098,1.929-14.765,10.554-14.559,18.834
	c1.789,74.636,28.753,144.647,54.829,212.354c4.406,11.441,8.836,22.95,13.168,34.535
	C1549.405,1183.492,1549.408,1173.141,1549.954,1163.588z"/>
<path style="fill:#86C447;" d="M1793.908,1324.736c-0.656-27.369-4.706-54.115-10.848-80.355c-0.345,5.711-1.74,15.331-6.575,26.941
	c0.002,0.013,0.005,0.025,0.007,0.038c0.002-0.019,0.005-0.046,0.004-0.045c0.123,0.689,0.236,1.38,0.355,2.07
	c0.121,0.7,0.243,1.4,0.36,2.101c0.24,1.434,0.471,2.87,0.696,4.308c0.081,0.514,0.166,1.026,0.244,1.541
	c0.296,1.934,0.577,3.871,0.845,5.811c0.066,0.481,0.126,0.965,0.19,1.447c0.198,1.478,0.39,2.957,0.571,4.438
	c0.085,0.693,0.164,1.387,0.245,2.081c0.151,1.298,0.297,2.597,0.435,3.898c0.077,0.722,0.152,1.444,0.224,2.167
	c0.135,1.354,0.261,2.709,0.382,4.065c0.056,0.633,0.116,1.266,0.169,1.9c0.165,1.979,0.318,3.96,0.451,5.947
	c0.544,8.06-5.613,16.168-13.37,18.014c-27.882,6.636-55.763,13.272-83.645,19.908c-24.878,10.095-55.513,18.1-92.815,22.25
	c0.001,0.04,0.003,0.079,0.004,0.119c0.104,4.178,1.686,7.65,4.452,9.78c2.547,1.962,5.918,2.57,9.491,1.721l173.567-41.31
	C1787.448,1341.642,1794.116,1333.018,1793.908,1324.736z"/>
<path style="fill:#325025;" d="M1686.647,899.104c-0.125-4.968-2.062-9.142-5.455-11.754c-3.172-2.443-7.311-3.219-11.652-2.185
	l-173.568,41.31c-9.354,2.228-16.771,11.827-16.533,21.397c1.8,75.08,28.845,145.303,55,213.214
	c26.076,67.707,53.041,137.719,54.829,212.354c0,0,0,0,0,0.001c0.124,4.967,2.061,9.142,5.454,11.753
	c2.256,1.737,5,2.631,7.958,2.631c1.202,0,2.44-0.147,3.694-0.446l173.567-41.31c9.357-2.227,16.773-11.825,16.534-21.396
	c-1.8-75.08-28.845-145.303-55-213.214C1715.4,1043.752,1688.436,973.74,1686.647,899.104z M1596.291,1383.158
	c-2.767-2.13-4.348-5.603-4.452-9.78c-0.001-0.04-0.003-0.079-0.004-0.119c-1.518-62.387-20.461-121.419-41.828-178.561
	c-4.332-11.584-8.761-23.093-13.168-34.535c-26.076-67.707-53.041-137.719-54.829-212.354c-0.206-8.28,6.461-16.905,14.559-18.834
	l173.568-41.31c3.573-0.85,6.943-0.24,9.489,1.721c2.768,2.13,4.349,5.604,4.454,9.781c1.416,59.085,18.469,115.161,38.418,169.47
	c5.4,14.702,11.011,29.276,16.583,43.744c16.514,42.878,33.375,86.684,43.981,132c6.141,26.24,10.192,52.986,10.848,80.355
	c0.208,8.281-6.459,16.905-14.559,18.833l-173.567,41.31C1602.209,1385.729,1598.837,1385.12,1596.291,1383.158z"/>
<path style="fill:#5E9140;" d="M1601.955,1355.859c-0.129-1.941-0.28-3.877-0.441-5.81
	C1601.675,1351.982,1601.825,1353.918,1601.955,1355.859z"/>
<path style="fill:#5E9140;" d="M1500.697,1012.234c-0.209-1.025-0.407-2.053-0.609-3.08
	C1500.29,1010.181,1500.488,1011.208,1500.697,1012.234z"/>
<path style="fill:#5E9140;" d="M1532.423,1117.549c-0.318-0.86-0.636-1.719-0.953-2.58
	C1531.787,1115.83,1532.105,1116.689,1532.423,1117.549z"/>
<path style="fill:#5E9140;" d="M1543.439,1146.661c-0.077-0.201-0.154-0.401-0.231-0.602
	C1543.285,1146.26,1543.363,1146.46,1543.439,1146.661z"/>
<path style="fill:#5E9140;" d="M1541.385,1141.3c-0.203-0.531-0.406-1.061-0.609-1.591
	C1540.979,1140.239,1541.182,1140.77,1541.385,1141.3z"/>
<path style="fill:#5E9140;" d="M1502.033,1018.563c-0.222-1.015-0.433-2.032-0.648-3.048
	C1501.6,1016.531,1501.812,1017.548,1502.033,1018.563z"/>
<path style="fill:#5E9140;" d="M1539.173,1135.503c-0.256-0.672-0.512-1.345-0.767-2.017
	C1538.661,1134.159,1538.917,1134.831,1539.173,1135.503z"/>
<path style="fill:#5E9140;" d="M1534.669,1123.58c-0.305-0.815-0.61-1.63-0.914-2.446
	C1534.059,1121.95,1534.364,1122.765,1534.669,1123.58z"/>
<path style="fill:#5E9140;" d="M1536.927,1129.581c-0.288-0.764-0.577-1.527-0.865-2.291
	C1536.35,1128.054,1536.638,1128.818,1536.927,1129.581z"/>
<path style="fill:#5E9140;" d="M1499.449,1005.88c-0.194-1.028-0.376-2.059-0.563-3.088
	C1499.072,1003.821,1499.255,1004.852,1499.449,1005.88z"/>
<path style="fill:#5E9140;" d="M1517.46,1074.732c-0.313-0.967-0.622-1.936-0.932-2.904
	C1516.838,1072.796,1517.147,1073.765,1517.46,1074.732z"/>
<path style="fill:#5E9140;" d="M1515.489,1068.55c-0.304-0.968-0.604-1.936-0.904-2.905
	C1514.885,1066.614,1515.185,1067.583,1515.489,1068.55z"/>
<path style="fill:#5E9140;" d="M1513.573,1062.353c-0.296-0.972-0.587-1.945-0.878-2.918
	C1512.986,1060.408,1513.277,1061.381,1513.573,1062.353z"/>
<path style="fill:#5E9140;" d="M1695.09,1025.438c0.479,1.527,0.963,3.053,1.451,4.578
	C1696.053,1028.49,1695.569,1026.964,1695.09,1025.438z"/>
<path style="fill:#5E9140;" d="M1523.649,1093.159c-0.323-0.931-0.645-1.862-0.966-2.794
	C1523.004,1091.297,1523.326,1092.229,1523.649,1093.159z"/>
<path style="fill:#5E9140;" d="M1530.193,1111.489c-0.325-0.889-0.65-1.778-0.973-2.668
	C1529.543,1109.71,1529.868,1110.6,1530.193,1111.489z"/>
<path style="fill:#5E9140;" d="M1521.546,1087.041c-0.323-0.951-0.644-1.902-0.964-2.853
	C1520.901,1085.139,1521.223,1086.09,1521.546,1087.041z"/>
<path style="fill:#5E9140;" d="M1511.72,1056.156c-0.289-0.984-0.573-1.969-0.857-2.954
	C1511.147,1054.187,1511.431,1055.172,1511.72,1056.156z"/>
<path style="fill:#5E9140;" d="M1525.796,1099.279c-0.324-0.916-0.647-1.831-0.969-2.748
	C1525.149,1097.448,1525.472,1098.364,1525.796,1099.279z"/>
<path style="fill:#5E9140;" d="M1509.927,1049.933c-0.279-0.988-0.553-1.977-0.827-2.966
	C1509.374,1047.956,1509.647,1048.945,1509.927,1049.933z"/>
<path style="fill:#5E9140;" d="M1503.457,1024.877c-0.235-1.01-0.46-2.022-0.689-3.034
	C1502.997,1022.856,1503.222,1023.867,1503.457,1024.877z"/>
<path style="fill:#5E9140;" d="M1498.293,999.502c-0.178-1.03-0.344-2.064-0.515-3.096
	C1497.949,997.438,1498.115,998.471,1498.293,999.502z"/>
<path style="fill:#5E9140;" d="M1527.978,1105.388c-0.324-0.9-0.648-1.801-0.97-2.702
	C1527.331,1103.586,1527.654,1104.487,1527.978,1105.388z"/>
<path style="fill:#5E9140;" d="M1508.2,1043.697c-0.27-0.997-0.533-1.995-0.798-2.992
	C1507.667,1041.702,1507.93,1042.7,1508.2,1043.697z"/>
<path style="fill:#5E9140;" d="M1504.962,1031.172c-0.248-1.009-0.488-2.02-0.73-3.03
	C1504.474,1029.152,1504.714,1030.163,1504.962,1031.172z"/>
<path style="fill:#5E9140;" d="M1506.545,1037.445c-0.26-1.004-0.512-2.01-0.766-3.016
	C1506.032,1035.435,1506.285,1036.441,1506.545,1037.445z"/>
<path style="fill:#5E9140;" d="M1519.479,1080.892c-0.318-0.959-0.634-1.918-0.949-2.878
	C1518.845,1078.974,1519.161,1079.933,1519.479,1080.892z"/>
<path style="fill:#5E9140;" d="M1679.188,963.265c0.357,1.887,0.722,3.773,1.104,5.654
	C1679.91,967.037,1679.545,965.152,1679.188,963.265z"/>
<path style="fill:#5E9140;" d="M1686.243,994.635c0.408,1.579,0.823,3.157,1.246,4.733
	C1687.067,997.792,1686.652,996.214,1686.243,994.635z"/>
<path style="fill:#5E9140;" d="M1687.735,1000.291c0.508,1.883,1.026,3.764,1.552,5.642
	C1688.76,1004.055,1688.242,1002.174,1687.735,1000.291z"/>
<path style="fill:#5E9140;" d="M1689.581,1006.972c0.437,1.549,0.881,3.097,1.33,4.643
	C1690.462,1010.069,1690.019,1008.521,1689.581,1006.972z"/>
<path style="fill:#5E9140;" d="M1684.594,988.093c0.417,1.7,0.843,3.397,1.277,5.093
	C1685.437,991.49,1685.011,989.793,1684.594,988.093z"/>
<path style="fill:#5E9140;" d="M1683.11,981.872c0.439,1.894,0.887,3.786,1.348,5.674
	C1683.998,985.657,1683.549,983.766,1683.11,981.872z"/>
<path style="fill:#5E9140;" d="M1680.292,968.922c0.388,1.914,0.791,3.825,1.203,5.733
	C1681.083,972.747,1680.68,970.836,1680.292,968.922z"/>
<path style="fill:#5E9140;" d="M1681.799,976.044c0.333,1.518,0.672,3.035,1.019,4.55
	C1682.471,979.079,1682.131,977.562,1681.799,976.044z"/>
<path style="fill:#5E9140;" d="M1691.317,1013.007c0.53,1.808,1.065,3.615,1.611,5.419
	C1692.382,1016.623,1691.847,1014.815,1691.317,1013.007z"/>
<path style="fill:#5E9140;" d="M1692.962,1018.541c0.572,1.889,1.153,3.776,1.741,5.662
	C1694.115,1022.317,1693.534,1020.43,1692.962,1018.541z"/>
<path style="fill:#5E9140;" d="M1497.235,993.1c-0.162-1.03-0.31-2.063-0.464-3.094
	C1496.925,991.038,1497.073,992.07,1497.235,993.1z"/>
<path style="fill:#5E9140;" d="M1701.043,1043.65c0.549,1.618,1.102,3.234,1.66,4.85
	C1702.145,1046.885,1701.592,1045.268,1701.043,1043.65z"/>
<path style="fill:#5E9140;" d="M1696.922,1031.203c0.607,1.882,1.219,3.763,1.839,5.641
	C1698.141,1034.965,1697.529,1033.084,1696.922,1031.203z"/>
<path style="fill:#5E9140;" d="M1702.963,1049.255c0.658,1.902,1.323,3.803,1.992,5.703
	C1704.285,1053.059,1703.621,1051.158,1702.963,1049.255z"/>
<path style="fill:#5E9140;" d="M1707.352,1061.689c0.176,0.488,0.349,0.978,0.526,1.466c-0.48,0.286-0.767,0.434-0.767,0.433
	c0.132-0.032-5.209-1.929-13.992-4.008c6.961,19.648,14.445,39.09,21.804,58.198c13.963,36.256,28.402,73.746,38.833,111.549
	c5.254,18.447,2.41,38.411-8.011,56.205c-11.738,20.041-32.08,35.18-54.415,40.495c-5.897,1.403-11.753,2.082-17.493,2.082
	c-34.056,0-64.063-23.877-74.876-61.836c-0.001-0.003-0.002-0.007-0.003-0.01c-10.396-37.682-24.812-75.111-38.753-111.309
	c-2.733-7.096-5.483-14.237-8.218-21.419c-1.481,8.774-2.307,18.469-2.369,29.176c0.112,0.292,0.225,0.583,0.337,0.875
	c23.142,60.136,45.745,120.4,51.407,184.696c-0.062-0.706-0.119-1.414-0.185-2.119c9.977,18.191,89.666,10.985,130.313-18.758
	c40.755-29.953,44.91-55.093,45.004-56.046c-0.002-0.013-0.004-0.025-0.007-0.038c-12.74-71.585-43.564-138.867-68.389-207.576
	C1707.848,1063.061,1707.599,1062.375,1707.352,1061.689z"/>
<path style="fill:#5E9140;" d="M1506.858,942.758c50.545-12.03,101.089-24.06,151.634-36.09c7.766-1.849,14.182,3.267,14.751,11.321
	c0.137,1.954,0.295,3.904,0.463,5.851c-0.168-1.948-0.326-3.899-0.462-5.855c-0.569-8.053-6.984-13.17-14.751-11.321
	c-50.545,12.03-101.089,24.059-151.635,36.09c-6.294,1.498-11.532,7.132-12.969,13.512
	C1495.327,949.887,1500.564,944.255,1506.858,942.758z"/>
<path style="fill:#5E9140;" d="M1705.168,1055.56c0.595,1.686,1.195,3.371,1.799,5.055
	C1706.363,1058.931,1705.763,1057.246,1705.168,1055.56z"/>
<path style="fill:#5E9140;" d="M1698.805,1036.976c0.599,1.813,1.207,3.625,1.818,5.437
	C1700.012,1040.601,1699.405,1038.789,1698.805,1036.976z"/>
<path style="fill:#5E9140;" d="M1494.048,967.248c-0.084-0.958-0.151-1.921-0.228-2.881
	C1493.897,965.327,1493.964,966.29,1494.048,967.248z"/>
<path style="fill:#5E9140;" d="M1673.84,925.331c0.141,1.558,0.292,3.113,0.452,4.666
	C1674.132,928.444,1673.981,926.889,1673.84,925.331z"/>
<path style="fill:#5E9140;" d="M1493.626,957.747c0.009-0.07,0.027-0.14,0.037-0.21
	C1493.654,957.607,1493.635,957.677,1493.626,957.747z"/>
<path style="fill:#5E9140;" d="M1496.278,986.675c-0.145-1.032-0.275-2.068-0.412-3.102
	C1496.002,984.607,1496.132,985.643,1496.278,986.675z"/>
<path style="fill:#5E9140;" d="M1494.68,973.75c-0.108-1.021-0.199-2.047-0.3-3.07
	C1494.481,971.703,1494.572,972.729,1494.68,973.75z"/>
<path style="fill:#5E9140;" d="M1495.425,980.226c-0.128-1.032-0.239-2.069-0.358-3.103
	C1495.186,978.157,1495.297,979.193,1495.425,980.226z"/>
<path style="fill:#5E9140;" d="M1676.926,950.216c0.301,1.92,0.617,3.836,0.945,5.75
	C1677.542,954.052,1677.227,952.136,1676.926,950.216z"/>
<path style="fill:#5E9140;" d="M1676.064,944.429c0.232,1.636,0.474,3.269,0.726,4.9
	C1676.538,947.698,1676.297,946.065,1676.064,944.429z"/>
<path style="fill:#5E9140;" d="M1678.084,957.183c0.269,1.543,0.546,3.084,0.832,4.623
	C1678.63,960.267,1678.353,958.726,1678.084,957.183z"/>
<path style="fill:#5E9140;" d="M1674.425,931.292c0.208,1.943,0.429,3.882,0.666,5.818
	C1674.854,935.175,1674.633,933.235,1674.425,931.292z"/>
<path style="fill:#5E9140;" d="M1675.187,937.858c0.21,1.687,0.433,3.371,0.665,5.052
	C1675.62,941.229,1675.397,939.545,1675.187,937.858z"/>
<path style="fill:#5E9140;" d="M1781.044,1305.241c0.056,0.633,0.116,1.266,0.169,1.9
	C1781.16,1306.507,1781.1,1305.875,1781.044,1305.241z"/>
<path style="fill:#5E9140;" d="M1780.438,1299.009c0.077,0.722,0.152,1.444,0.224,2.167
	C1780.59,1300.453,1780.514,1299.731,1780.438,1299.009z"/>
<path style="fill:#5E9140;" d="M1778.997,1287.145c0.066,0.481,0.126,0.965,0.19,1.447
	C1779.122,1288.11,1779.063,1287.626,1778.997,1287.145z"/>
<path style="fill:#5E9140;" d="M1777.907,1279.793c0.08,0.514,0.166,1.026,0.244,1.541
	C1778.073,1280.82,1777.988,1280.307,1777.907,1279.793z"/>
<path style="fill:#5E9140;" d="M1779.758,1293.03c0.085,0.693,0.164,1.387,0.245,2.081
	C1779.922,1294.417,1779.843,1293.723,1779.758,1293.03z"/>
<path style="fill:#5E9140;" d="M1776.851,1273.385c0.121,0.7,0.243,1.4,0.36,2.101
	C1777.094,1274.785,1776.972,1274.085,1776.851,1273.385z"/>
<path style="fill:#55833C;" d="M1520.403,1039.854c-5.124-18.423-2.165-38.378,8.335-56.179
	c11.875-20.133,32.335-35.335,54.73-40.665c40.797-9.716,79.378,15.486,91.734,59.912c5.114,19.001,11.278,37.922,17.916,56.658
	c8.783,2.079,14.125,3.976,13.992,4.008c0,0,0.287-0.147,0.767-0.433c-0.176-0.488-0.35-0.978-0.526-1.466
	c-0.129-0.358-0.257-0.716-0.385-1.074c-0.604-1.684-1.203-3.369-1.799-5.055c-0.071-0.201-0.143-0.401-0.213-0.602
	c-0.67-1.899-1.334-3.8-1.992-5.703c-0.087-0.251-0.173-0.503-0.26-0.755c-0.558-1.615-1.111-3.232-1.66-4.85
	c-0.14-0.413-0.28-0.826-0.419-1.238c-0.612-1.811-1.219-3.623-1.818-5.437c-0.015-0.044-0.029-0.088-0.044-0.132
	c-0.621-1.878-1.233-3.759-1.839-5.641c-0.127-0.396-0.254-0.792-0.38-1.188c-0.489-1.525-0.973-3.051-1.451-4.578
	c-0.129-0.412-0.259-0.823-0.387-1.234c-0.588-1.886-1.169-3.773-1.741-5.662c-0.011-0.038-0.023-0.076-0.034-0.114
	c-0.546-1.804-1.081-3.611-1.611-5.419c-0.136-0.464-0.271-0.928-0.406-1.392c-0.449-1.546-0.893-3.094-1.33-4.643
	c-0.098-0.347-0.197-0.693-0.294-1.04c-0.527-1.878-1.044-3.759-1.552-5.642c-0.083-0.307-0.163-0.615-0.246-0.923
	c-0.422-1.576-0.837-3.154-1.246-4.733c-0.125-0.483-0.249-0.966-0.373-1.449c-0.434-1.695-0.86-3.393-1.277-5.093
	c-0.045-0.182-0.091-0.365-0.136-0.547c-0.461-1.889-0.909-3.78-1.348-5.674c-0.099-0.425-0.195-0.852-0.292-1.278
	c-0.347-1.515-0.687-3.032-1.019-4.55c-0.101-0.463-0.204-0.925-0.303-1.389c-0.412-1.908-0.815-3.819-1.203-5.733
	c0-0.001,0-0.002,0-0.003c-0.381-1.882-0.747-3.767-1.104-5.654c-0.092-0.486-0.182-0.973-0.272-1.459
	c-0.286-1.539-0.563-3.08-0.832-4.623c-0.071-0.406-0.144-0.811-0.213-1.217c-0.328-1.914-0.644-3.83-0.945-5.75
	c-0.046-0.295-0.089-0.591-0.135-0.886c-0.252-1.631-0.494-3.265-0.726-4.9c-0.072-0.506-0.143-1.013-0.213-1.519
	c-0.232-1.682-0.454-3.365-0.665-5.052c-0.031-0.25-0.065-0.498-0.096-0.747c-0.237-1.936-0.458-3.875-0.666-5.818
	c-0.046-0.432-0.088-0.864-0.133-1.295c-0.161-1.553-0.311-3.108-0.452-4.666c-0.045-0.497-0.091-0.993-0.134-1.49
	c-0.168-1.947-0.326-3.896-0.463-5.851c-0.57-8.054-6.985-13.17-14.751-11.321c-50.545,12.03-101.09,24.059-151.634,36.09
	c-6.293,1.498-11.531,7.129-12.969,13.508c-0.095,0.42-0.164,0.845-0.225,1.271c-0.01,0.07-0.028,0.14-0.037,0.21
	c-0.129,0.997-0.163,2.006-0.092,3.014c0.084,1.205,0.189,2.404,0.285,3.606c0.077,0.96,0.144,1.923,0.228,2.881
	c0.101,1.146,0.221,2.288,0.333,3.432c0.1,1.023,0.191,2.049,0.3,3.07c0.12,1.127,0.257,2.248,0.386,3.373
	c0.119,1.035,0.231,2.071,0.358,3.103c0.138,1.118,0.292,2.232,0.44,3.347c0.137,1.034,0.267,2.069,0.412,3.102
	c0.156,1.112,0.328,2.221,0.494,3.331c0.154,1.032,0.302,2.064,0.464,3.094c0.174,1.104,0.361,2.204,0.543,3.306
	c0.171,1.032,0.337,2.065,0.515,3.096c0.19,1.098,0.393,2.193,0.592,3.29c0.187,1.03,0.369,2.061,0.563,3.088
	c0.206,1.093,0.424,2.183,0.639,3.274c0.202,1.027,0.4,2.055,0.609,3.08c0.223,1.095,0.457,2.187,0.688,3.28
	c0.215,1.017,0.427,2.034,0.648,3.048c0.239,1.095,0.488,2.188,0.735,3.281c0.228,1.012,0.454,2.023,0.689,3.034
	c0.253,1.089,0.515,2.176,0.776,3.264c0.242,1.01,0.482,2.021,0.73,3.03c0.267,1.087,0.542,2.172,0.817,3.258
	c0.254,1.005,0.506,2.011,0.766,3.016c0.281,1.087,0.57,2.173,0.858,3.259c0.264,0.998,0.528,1.996,0.798,2.992
	c0.296,1.091,0.598,2.18,0.9,3.27c0.274,0.989,0.547,1.979,0.827,2.966c0.308,1.09,0.622,2.18,0.936,3.269
	c0.284,0.985,0.568,1.97,0.857,2.954c0.321,1.094,0.648,2.187,0.975,3.279c0.291,0.973,0.583,1.946,0.878,2.918
	c0.334,1.098,0.673,2.196,1.012,3.292c0.3,0.969,0.6,1.937,0.904,2.905c0.344,1.093,0.691,2.186,1.039,3.278
	c0.309,0.968,0.619,1.937,0.932,2.904c0.354,1.095,0.711,2.188,1.07,3.282c0.315,0.96,0.63,1.919,0.949,2.878
	c0.365,1.099,0.733,2.198,1.102,3.296c0.32,0.951,0.641,1.902,0.964,2.853c0.377,1.108,0.756,2.216,1.137,3.324
	c0.321,0.932,0.642,1.863,0.966,2.794c0.391,1.125,0.783,2.249,1.178,3.373c0.322,0.917,0.645,1.832,0.969,2.748
	c0.402,1.136,0.806,2.271,1.212,3.406c0.322,0.901,0.646,1.802,0.97,2.702c0.412,1.145,0.826,2.289,1.242,3.433
	c0.323,0.89,0.648,1.779,0.973,2.668c0.424,1.161,0.85,2.321,1.277,3.481c0.317,0.86,0.635,1.72,0.953,2.58
	c0.443,1.195,0.886,2.391,1.332,3.585c0.304,0.815,0.609,1.631,0.914,2.446c0.463,1.237,0.927,2.474,1.393,3.71
	c0.288,0.764,0.576,1.527,0.865,2.291c0.492,1.302,0.984,2.604,1.479,3.905c0.255,0.672,0.511,1.345,0.767,2.017
	c0.534,1.402,1.068,2.804,1.603,4.206c0.203,0.53,0.406,1.061,0.609,1.591c0.607,1.586,1.215,3.173,1.824,4.759
	c0.077,0.201,0.154,0.401,0.231,0.602c2.055,5.352,4.118,10.702,6.177,16.053c0,0,0-0.001,0-0.001
	c0.062-10.708,0.889-20.402,2.369-29.176C1540.31,1102.876,1528.918,1071.491,1520.403,1039.854z"/>
<path style="fill:#79B243;" d="M1690.144,1058.871c-13.487-3.73-114.017-26.832-137.378,69.477
	c3.266,8.619,6.563,17.186,9.836,25.684c13.962,36.254,28.401,73.744,38.832,111.545c0.381,1.338,0.788,2.659,1.217,3.96
	c70.76,102.07,140.708-20.336,149.06-37.838c-0.143-0.56-0.271-1.121-0.43-1.678c-10.399-37.691-24.815-75.121-38.756-111.318
	C1704.963,1099.067,1697.271,1079.079,1690.144,1058.871z M1680.234,1262.629c-13.519,3.216-27.184-5.441-31.244-19.168
	c-4.041-13.731,3.163-27.357,16.691-30.577c13.501-3.213,28.205,5.198,32.247,18.93
	C1701.986,1245.54,1693.744,1259.415,1680.234,1262.629z M1704.346,1117.831c10.517,27.092-11.401,56.3-48.521,65.134
	c-37.043,8.816-75.245-6.083-85.763-33.174c-10.519-27.091,11.5-56.324,48.619-65.158
	C1655.726,1075.816,1693.828,1090.74,1704.346,1117.831z"/>
<path style="fill:#74A942;" d="M1690.144,1058.871c-6.445-18.274-12.429-36.727-17.42-55.269
	c-11.969-43.034-49.257-67.468-88.661-58.091c-21.729,5.172-41.584,19.928-53.112,39.471c-10.142,17.193-13.008,36.44-8.07,54.194
	c8.092,30.065,18.803,59.933,29.884,89.172C1576.127,1032.039,1676.657,1055.141,1690.144,1058.871z M1593.52,1004.394
	c13.518-3.217,27.052,5.473,30.983,19.23c3.912,13.762-3.37,27.406-16.897,30.626c-13.5,3.212-28.127-5.217-32.041-18.979
	C1571.635,1021.514,1580.011,1007.609,1593.52,1004.394z"/>
<path style="fill:#8AC24C;" d="M1602.651,1269.537c13.37,40.504,49.813,63.096,88.083,53.991
	c21.667-5.156,41.402-19.846,52.792-39.294c9.749-16.645,12.615-35.228,8.184-52.535
	C1743.359,1249.2,1673.411,1371.606,1602.651,1269.537z"/>
<path style="fill:#325025;" d="M1583.469,943.011c-22.395,5.33-42.855,20.532-54.73,40.665c-10.5,17.801-13.459,37.756-8.335,56.179
	c8.515,31.637,19.906,63.021,31.583,93.682c2.735,7.182,5.485,14.323,8.218,21.419c13.941,36.197,28.357,73.627,38.753,111.309
	c0.001,0.003,0.002,0.007,0.003,0.01c10.813,37.959,40.82,61.836,74.876,61.836c5.74,0,11.596-0.679,17.493-2.082
	c22.335-5.315,42.677-20.454,54.415-40.495c10.421-17.794,13.266-37.758,8.011-56.205c-10.43-37.803-24.869-75.293-38.833-111.549
	c-7.359-19.107-14.843-38.55-21.804-58.198c-6.638-18.735-12.802-37.657-17.916-56.658
	C1662.847,958.497,1624.266,933.295,1583.469,943.011z M1751.281,1230.021c0.158,0.557,0.286,1.118,0.43,1.678
	c4.431,17.307,1.565,35.891-8.184,52.535c-11.391,19.448-31.126,34.138-52.792,39.294c-38.27,9.105-74.713-13.487-88.083-53.991
	c-0.43-1.302-0.836-2.622-1.217-3.96c-10.43-37.801-24.869-75.291-38.832-111.545c-3.273-8.498-6.57-17.065-9.836-25.684
	c-11.081-29.239-21.792-59.106-29.884-89.172c-4.938-17.754-2.072-37.001,8.07-54.194c11.528-19.543,31.383-34.299,53.112-39.471
	c39.404-9.377,76.692,15.057,88.661,58.091c4.99,18.542,10.975,36.995,17.42,55.269c7.127,20.208,14.819,40.196,22.381,59.831
	C1726.466,1154.899,1740.881,1192.329,1751.281,1230.021z"/>
<path style="fill:#B2D899;" d="M1618.682,1084.633c-37.118,8.834-59.138,38.066-48.619,65.158
	c10.518,27.091,48.72,41.99,85.763,33.174c37.12-8.834,59.037-38.042,48.521-65.134
	C1693.828,1090.74,1655.726,1075.816,1618.682,1084.633z"/>
<path style="fill:#B2D899;" d="M1607.605,1054.25c13.527-3.22,20.809-16.864,16.897-30.626
	c-3.931-13.757-17.465-22.448-30.983-19.23c-13.509,3.216-21.885,17.12-17.955,30.878
	C1579.478,1049.033,1594.106,1057.462,1607.605,1054.25z"/>
<path style="fill:#B2D899;" d="M1665.681,1212.884c-13.528,3.22-20.732,16.846-16.691,30.577
	c4.06,13.727,17.725,22.384,31.244,19.168c13.51-3.214,21.752-17.089,17.694-30.815
	C1693.886,1218.082,1679.182,1209.67,1665.681,1212.884z"/>
<path style="fill:#689A49;" d="M1731.488,1327.407c-40.647,29.743-120.336,36.949-130.313,18.758
	c0.066,0.705,0.123,1.413,0.185,2.119c0.052,0.588,0.105,1.177,0.154,1.766c0.161,1.933,0.311,3.869,0.441,5.81
	c0.545,8.06,6.949,13.177,14.704,11.333c22.663-5.394,45.327-10.788,67.99-16.182c27.881-6.636,55.763-13.272,83.645-19.908
	c7.758-1.846,13.914-9.955,13.37-18.014c-0.132-1.987-0.286-3.968-0.451-5.947c-0.053-0.634-0.113-1.267-0.169-1.9
	c-0.12-1.356-0.246-2.712-0.382-4.065c-0.072-0.723-0.148-1.445-0.224-2.167c-0.138-1.301-0.283-2.601-0.435-3.898
	c-0.081-0.694-0.16-1.388-0.245-2.081c-0.181-1.481-0.373-2.96-0.571-4.438c-0.065-0.482-0.124-0.965-0.19-1.447
	c-0.267-1.94-0.549-3.877-0.845-5.811c-0.078-0.514-0.164-1.027-0.244-1.541c-0.225-1.438-0.456-2.874-0.696-4.308
	c-0.117-0.701-0.24-1.401-0.36-2.101c-0.119-0.69-0.233-1.381-0.355-2.07c0.001,0-0.002,0.026-0.004,0.045
	C1776.398,1272.314,1772.243,1297.454,1731.488,1327.407z"/>
</svg>
